<?xml version="1.0" encoding="UTF-8"?>
<svg width="30px" height="36px" viewBox="0 0 30 36" version="1.1" xmlns="http://www.w3.org/2000/svg" xmlns:xlink="http://www.w3.org/1999/xlink">
    <!-- Generator: Sketch 59.1 (86144) - https://sketch.com -->
    <title>Fill 1</title>
    <desc>Created with Sketch.</desc>
    <g id="页面-1" stroke="none" stroke-width="1" fill="none" fill-rule="evenodd">
        <g id="发照片多张图片-增加增加滚动条" transform="translate(-30.000000, -150.000000)" fill="#FFF9E0">
            <g id="消息广告条" transform="translate(-0.304688, 127.671875)">
                <path d="M45.3372884,57.4496936 C47.768759,57.4496936 49.7373865,55.4810662 49.7373865,53.0615074 L40.9333669,53.0615074 C40.9333669,55.4810662 42.9019943,57.4496936 45.3372884,57.4496936 M58.5373374,47.7868995 C58.8667002,47.7712623 59.1922394,47.8575858 59.4706218,48.0379289 C58.3372394,47.3124387 57.6509649,46.0614583 57.6549845,44.7124877 L57.6549845,36.9085662 C57.6549845,31.1868995 53.5097884,26.4143505 47.9726806,25.2418995 L47.9726806,24.9594975 C47.9726806,23.5045956 46.7921904,22.328125 45.3372884,22.328125 L45.3334649,22.328125 C43.8783669,22.328125 42.6942492,23.5084191 42.6942492,24.9635172 L42.6942492,25.2378799 C37.1529257,26.4143505 33.0117492,31.183076 33.0117492,36.9085662 L33.0117492,44.7163113 C33.0117492,46.1164093 32.2823865,47.3397917 31.1922394,48.0418015 C31.4666512,47.8614093 31.79621,47.7712623 32.1255727,47.7909191 C31.1568472,47.755527 30.341308,48.5124387 30.3058669,49.4811642 C30.2706708,50.4496936 31.0275825,51.2653799 31.996112,51.3006893 L58.5294943,51.3006893 C59.4980237,51.3046936 60.2863571,50.5163603 60.290196,49.5477819 C60.2942002,48.5752328 59.5098865,47.7868995 58.5373374,47.7868995" id="Fill-1"></path>
            </g>
        </g>
    </g>
</svg>