<?xml version="1.0" encoding="UTF-8"?>
<svg width="56px" height="60px" viewBox="0 0 56 60" version="1.1" xmlns="http://www.w3.org/2000/svg" xmlns:xlink="http://www.w3.org/1999/xlink">
    <!-- Generator: Sketch 51.1 (57501) - http://www.bohemiancoding.com/sketch -->
    <title>Group 5</title>
    <desc>Created with Sketch.</desc>
    <defs>
        <linearGradient x1="71.408097%" y1="12.066496%" x2="29.7044832%" y2="87.7302165%" id="linearGradient-1">
            <stop stop-color="#38B6FF" offset="0%"></stop>
            <stop stop-color="#3889FF" offset="100%"></stop>
        </linearGradient>
    </defs>
    <g id="Page-1" stroke="none" stroke-width="1" fill="none" fill-rule="evenodd">
        <g id="支付栏" transform="translate(-30.000000, -1134.000000)">
            <g id="Group-2" transform="translate(30.000000, 1134.000000)">
                <g id="Group-5">
                    <path d="M31.8651748,55.5285035 C45.526042,53.5754545 55.9285315,42.0011748 55.9285315,27.9594685 C55.9285315,12.4890769 43.4394545,0 27.9594685,0 C12.488979,0 0,12.4890769 0,27.9594685 C0,41.7441818 10.0120559,53.1945175 23.282,55.5285035 C24.8446154,55.6715385 24.1966993,59.8247413 25.7494266,59.8247413 C27.0546573,59.8247413 30.5599441,55.6619441 31.8651748,55.5285035 Z" id="Fill-1" fill="url(#linearGradient-1)"></path>
                    <path d="M36.5901259,30.5791329 C37.7145315,30.5791329 38.6288392,31.4939301 38.6288392,32.6178462 C38.6288392,33.7418601 37.7145315,34.6565594 36.5901259,34.6565594 L30.2934545,34.6565594 L30.2934545,39.914979 C30.2934545,41.038993 29.379049,41.9536923 28.2547413,41.9536923 C27.1307273,41.9536923 26.2163217,41.038993 26.2163217,39.914979 L26.2163217,34.6565594 L19.9096643,34.6565594 C18.7857483,34.6565594 17.8713427,33.7418601 17.8713427,32.6178462 C17.8713427,31.4939301 18.7857483,30.5791329 19.9096643,30.5791329 L26.2163217,30.5791329 L26.2163217,27.569035 L19.9096643,27.569035 C18.7857483,27.569035 17.8713427,26.6542378 17.8713427,25.5303217 C17.8713427,24.4063077 18.7857483,23.4915105 19.9096643,23.4915105 L24.434993,23.4915105 L18.9570769,17.1091748 C18.2330909,16.2613427 18.3283497,14.9656084 19.1761818,14.2321259 C20.024014,13.5082378 21.3197483,13.6033986 22.0532308,14.4512308 L28.2451469,21.6722937 L34.4374545,14.4512308 C35.1709371,13.6033986 36.4570769,13.4986434 37.3141119,14.2321259 C38.1619441,14.9561119 38.2666993,16.2517483 37.5332168,17.1091748 L32.0556923,23.4915105 L36.5806294,23.4915105 C37.7049371,23.4915105 38.6193427,24.4063077 38.6193427,25.5303217 C38.6193427,26.6542378 37.7049371,27.569035 36.5806294,27.569035 L30.2934545,27.569035 L30.2934545,30.5791329 L36.5901259,30.5791329 Z" id="Fill-3" fill="#FFFFFF"></path>
                </g>
            </g>
        </g>
    </g>
</svg>