<?xml version="1.0" encoding="UTF-8"?>
<svg width="55px" height="55px" viewBox="0 0 55 55" version="1.1" xmlns="http://www.w3.org/2000/svg" xmlns:xlink="http://www.w3.org/1999/xlink">
    <!-- Generator: Sketch 51.1 (57501) - http://www.bohemiancoding.com/sketch -->
    <title>Group 19</title>
    <desc>Created with Sketch.</desc>
    <defs></defs>
    <g id="Page-1" stroke="none" stroke-width="1" fill="none" fill-rule="evenodd">
        <g id="toast以及底线" transform="translate(-348.000000, -1839.000000)">
            <g id="Group-21" transform="translate(179.000000, 1843.000000)">
                <g id="Group-19" transform="translate(173.000000, 0.000000)">
                    <path d="M-1.99162274,23.3720441 C-1.99162274,9.36185664 9.3091681,-2 23.2548052,-2 C37.2004423,-2 48.5012331,9.36185664 48.5012331,23.3720441 C48.5012331,32.7275264 48.5012331,32.7275264 48.5012331,41.4366026 C48.5012331,43.5930749 48.0562762,45.6139586 46.8155464,46.9935622 C45.4678434,48.4921124 43.281665,48.9541356 40.4060683,48.9659202 C31.9706005,49.00049 27.513694,49.0061278 22.4711748,48.9943676 C21.8696612,48.9929648 21.2580184,48.9913597 20.4186874,48.9890257 C19.3609334,48.9860534 18.7693227,48.9843946 18.2397557,48.9829612 C13.9758655,48.9714198 10.3316098,48.965937 5.13558426,48.965937 C3.16545706,48.965937 1.34206689,48.478904 -0.177276191,47.1728183 C-1.19551338,46.2975024 -1.71812348,45.1388909 -1.9095383,43.7739849 C-1.99561494,43.1602054 -2.00842426,42.6790565 -1.99559365,41.8095632 C-1.99241495,41.5941514 -1.99162274,41.5264035 -1.99162274,41.4366026 C-1.99162274,32.7373042 -1.99162274,32.7373042 -1.99162274,23.3720441 Z" id="Combined-Shape-Copy-2" stroke="#D9D9D9" stroke-width="4"></path>
                    <rect id="Rectangle-30" stroke="#D9D9D9" stroke-width="3" x="7.37660997" y="19.0705747" width="9" height="1" rx="0.5"></rect>
                    <path d="M8.67924656,26.0127475 L15.6074498,22.0127475 C15.8465961,21.8746763 15.9285337,21.5688811 15.7904625,21.3297348 C15.6523913,21.0905885 15.3465961,21.0086509 15.1074498,21.1467221 L8.17924656,25.1467221 C7.94010025,25.2847933 7.85816267,25.5905885 7.99623386,25.8297348 C8.13430504,26.0688811 8.44010025,26.1508187 8.67924656,26.0127475 Z" id="Rectangle-30-Copy" stroke="#D9D9D9" stroke-width="3"></path>
                    <rect id="Rectangle-30-Copy-3" stroke="#D9D9D9" stroke-width="3" x="30.37661" y="19.0705747" width="9" height="1" rx="0.5"></rect>
                    <path d="M38.1074498,26.0127475 C38.3465961,26.1508187 38.6523913,26.0688811 38.7904625,25.8297348 C38.9285337,25.5905885 38.8465961,25.2847933 38.6074498,25.1467221 L31.6792466,21.1467221 C31.4401002,21.0086509 31.134305,21.0905885 30.9962339,21.3297348 C30.8581627,21.5688811 30.9401002,21.8746763 31.1792466,22.0127475 L38.1074498,26.0127475 Z" id="Rectangle-30-Copy-2" stroke="#D9D9D9" stroke-width="3"></path>
                    <path d="M29,35.2721897 L29,27 L18,27 L18,35.2725593 L18.0346831,35.2725593 C18.3388055,37.9317447 20.6692638,40 23.5001911,40 C26.3315006,40 28.6615767,37.9317447 28.965699,35.2725593 L29,35.2725593 L29,35.2721897 Z" id="Path" fill="#D9D9D9"></path>
                </g>
            </g>
        </g>
    </g>
</svg>