<?xml version="1.0" encoding="UTF-8"?>
<svg width="36px" height="30px" viewBox="0 0 36 30" version="1.1" xmlns="http://www.w3.org/2000/svg" xmlns:xlink="http://www.w3.org/1999/xlink">
    <!-- Generator: Sketch 59.1 (86144) - https://sketch.com -->
    <title>编组</title>
    <desc>Created with Sketch.</desc>
    <g id="页面-1" stroke="none" stroke-width="1" fill="none" fill-rule="evenodd">
        <g id="发视频增加包场" transform="translate(-41.000000, -635.000000)" fill="#333333">
            <g id="编组" transform="translate(41.000000, 635.000000)">
                <path d="M25.7078632,7.87647644 C24.9024669,7.08967016 23.5966389,7.08967016 22.7912426,7.87647644 C21.9858463,8.66323037 21.9858463,9.9387801 22.7912426,10.7255864 C25.2074852,13.0861099 25.2074852,16.9127592 22.7912426,19.2730733 C21.9858463,20.0598796 21.9858463,21.3354293 22.7912426,22.1221832 C23.5966389,22.9089895 24.9024669,22.9089895 25.7078632,22.1221832 C29.734952,18.1883613 29.734952,11.8101414 25.7078632,7.87605759 L25.7078632,7.87647644 Z" id="Fill-1"></path>
                <path d="M30.541308,2.17846597 C29.7356973,1.39145026 28.4298694,1.39145026 27.6244731,2.17846597 C26.8190767,2.9652199 26.8190767,4.24076963 27.6244731,5.02757592 C33.262569,10.5349581 33.262569,19.4645393 27.6244731,24.9719215 C26.8190767,25.7586754 26.8190767,27.0342775 27.6244731,27.8210314 C28.4300838,28.6077853 29.7359117,28.6077853 30.541308,27.8210314 C37.7900358,20.740089 37.7900358,9.25940838 30.541308,2.17825654 L30.541308,2.17846597 Z" id="Fill-5"></path>
                <g id="编组-4" transform="translate(-0.000011, 0.000000)">
                    <path d="M1.432883,7.26186713 L19.249,25.0773308 L19.249385,28.4245288 C19.249385,29.8586892 18.34176,30.3659237 17.1798897,29.5967781 L17.04978,29.5060471 L8.24969817,23.0586649 L2.7470409,23.0586649 C1.22977433,23.0586649 0,21.847199 0,20.3970942 L0,20.3970942 L0,9.60253927 C0,8.59172366 0.575774093,7.7124634 1.432883,7.26186713 Z M17.04978,0.493848168 C18.2642793,-0.395994764 19.249385,0.106675393 19.249385,1.57531414 L19.249385,1.57531414 L19.249,19.4203308 L6.769,6.94033084 L8.24969817,6.94102094 Z" id="形状结合"></path>
                </g>
                <rect id="矩形" transform="translate(17.000000, 15.000000) scale(1, -1) rotate(45.000000) translate(-17.000000, -15.000000) " x="15" y="-4" width="4" height="38" rx="2"></rect>
            </g>
        </g>
    </g>
</svg>