<?xml version="1.0" encoding="UTF-8"?>
<svg width="56px" height="56px" viewBox="0 0 56 56" version="1.1" xmlns="http://www.w3.org/2000/svg" xmlns:xlink="http://www.w3.org/1999/xlink">
    <!-- Generator: Sketch 59.1 (86144) - https://sketch.com -->
    <title>Group 8备份 2</title>
    <desc>Created with Sketch.</desc>
    <defs>
        <linearGradient x1="2.50470197%" y1="97.7684227%" x2="97.5387008%" y2="3.79539696%" id="linearGradient-1">
            <stop stop-color="#5F66F3" offset="0%"></stop>
            <stop stop-color="#D291FB" offset="100%"></stop>
        </linearGradient>
    </defs>
    <g id="Page-2" stroke="none" stroke-width="1" fill="none" fill-rule="evenodd">
        <g id="首页-K歌榜活动入口备份-9" transform="translate(-572.000000, -2185.000000)" fill="url(#linearGradient-1)">
            <g id="下导航备份-2" transform="translate(0.000000, 2158.000000)">
                <g id="Group-8备份-2" transform="translate(572.000000, 27.000000)">
                    <path d="M28,0 C43.463973,0 56,12.536027 56,28 C56,43.463973 43.463973,56 28,56 C12.536027,56 0,43.463973 0,28 C0,12.536027 12.536027,0 28,0 Z M38.7256179,30 L17.9934314,30 C17.5731759,30 17.1561842,30.0682944 16.7560872,30.2031958 C14.6596095,30.9096658 13.5144182,33.2397166 14.1975973,35.4076675 C16.3799883,42.3326027 21.1009027,45.7948718 28.3595726,45.7948718 C35.6178585,45.7948718 40.338773,42.3326027 42.5214519,35.4076675 C42.6512339,34.9947244 42.7179487,34.5627225 42.7179487,34.1284375 C42.7179487,31.8484163 40.9300872,30 38.7256179,30 Z" id="Combined-Shape"></path>
                </g>
            </g>
        </g>
    </g>
</svg>