<?xml version="1.0" encoding="UTF-8"?>
<svg width="120px" height="120px" viewBox="0 0 120 120" version="1.1" xmlns="http://www.w3.org/2000/svg" xmlns:xlink="http://www.w3.org/1999/xlink">
    <!-- Generator: Sketch 51.1 (57501) - http://www.bohemiancoding.com/sketch -->
    <title>Group 17</title>
    <desc>Created with Sketch.</desc>
    <defs>
        <circle id="path-1" cx="60" cy="60" r="60"></circle>
        <polygon id="path-3" points="0 0.161721168 116.941243 0.161721168 116.941243 47 0 47"></polygon>
    </defs>
    <g id="Page-2" stroke="none" stroke-width="1" fill="none" fill-rule="evenodd">
        <g id="增加VIP图标页" transform="translate(-61.000000, -199.000000)">
            <g id="会员头像" transform="translate(0.000000, 128.000000)">
                <g id="Group-17" transform="translate(61.000000, 71.000000)">
                    <mask id="mask-2" fill="white">
                        <use xlink:href="#path-1"></use>
                    </mask>
                    <use id="Oval-2" fill="#FFFFFF" xlink:href="#path-1"></use>
                    <g id="Group-14" mask="url(#mask-2)">
                        <g transform="translate(1.000000, 10.000000)">
                            <g id="Group-3" stroke-width="1" fill="none" transform="translate(0.000000, 73.000000)">
                                <mask id="mask-4" fill="white">
                                    <use xlink:href="#path-3"></use>
                                </mask>
                                <g id="Clip-2"></g>
                                <path d="M57.931959,46.9996226 C82.975612,46.9996226 104.902406,33.5704876 116.941243,13.5915423 L116.941243,13.4810752 C113.503019,8.21638905 89.6416999,0.161721168 80.2895798,0.161721168 C61.6960015,32.6016701 36.6514919,5.74734526 37.1874993,0.482659124 C24.1818272,-0.375005109 8.59530307,8.96958978 0,14.986619 C12.4823411,34.9715679 34.3918331,47.0786993 57.931959,46.9996226" id="Fill-1" fill="#7B7B7B" mask="url(#mask-4)"></path>
                            </g>
                            <path d="M80.4542236,73.1719971 C77.1745987,69.9692394 75.2098573,64.4925957 76.1929089,55 C67.4578769,68.9060847 50.7560673,69.6772084 42.1309078,55.3327227 C42.6800996,59.5246839 42.3508234,65.1470723 37,73.6456374 C39.4512939,82.7250977 62.9841598,103.959363 80.4542236,73.1719971 Z" id="Fill-4" fill="#EDE7E6"></path>
                            <path d="M79.7368164,72.3798828 C74.5191492,66.342019 76.6973366,56.8318625 77.0196209,51.2921562 C78.8277532,47.368724 42.527678,53.3125831 42,56.7331408 C42.7429239,59.2470081 62.0661142,76.608746 79.7368164,72.3798828 Z" id="Fill-6" fill="#E3DCDB"></path>
                            <path d="M80.7057069,34.2822619 C80.6074358,40.4205893 79.6459966,45.6962731 78,50 C86.9904852,47.2036113 89.1095542,24.9206306 80.7057069,34.2822619" id="Fill-8" fill="#EFE7E6"></path>
                            <path d="M75.9954446,20.4748933 C56.7330629,25.0406874 48.7515149,15.7882607 44.8127774,13 C38.5381975,18.2428347 40.0257594,30.3941756 38.0043541,32.6214006 C37.6598894,32.1561726 37.3399928,31.6719558 37.0460292,31.1723751 C35.3438381,81.5563079 81.4210615,78.1017096 80.9970919,33.8487739 C76.8491846,27.1620925 77.5928803,27.0509212 75.9954446,20.4702324 L75.9954446,20.4748933 Z" id="Fill-10" fill="#FFF6F4"></path>
                            <path d="M44.6661118,16.1051595 C48.657347,18.8376239 56.7503565,27.9052454 76.2948812,23.4251815 C78.0192922,29.980204 77.1570867,29.980204 81.6898781,36.9679888 C85.0391293,38.1713254 94.6457542,5.07564801 66.4719765,0.599591137 C33.5352459,-4.53780436 29.3330437,24.7297399 37.7467026,35.3320642 C39.8025597,33.2576282 38.2882588,21.3502228 44.6561718,16.1051595 L44.6661118,16.1051595 Z" id="Fill-12" fill="#A1A1A1"></path>
                        </g>
                    </g>
                </g>
            </g>
        </g>
    </g>
</svg>