<?xml version="1.0" encoding="UTF-8" standalone="no"?>
<svg width="18px" height="19px" viewBox="0 0 18 19" version="1.1" xmlns="http://www.w3.org/2000/svg" xmlns:xlink="http://www.w3.org/1999/xlink">
    <!-- Generator: Sketch 49.3 (51167) - http://www.bohemiancoding.com/sketch -->
    <title>Combined Shape</title>
    <desc>Created with Sketch.</desc>
    <defs></defs>
    <g id="Page-1" stroke="none" stroke-width="1" fill="none" fill-rule="evenodd">
        <g id="我的歌单" transform="translate(-693.000000, -808.000000)" fill="#D9D9D9">
            <g id="榜单4" transform="translate(30.000000, 734.000000)">
                <path d="M673.232125,82.4010973 L683.232125,82.4010973 C683.78441,82.4010973 684.232125,82.8488125 684.232125,83.4010973 C684.232125,83.953382 683.78441,84.4010973 683.232125,84.4010973 L673.232125,84.4010973 L673.232125,94.4010973 C673.232125,94.953382 672.78441,95.4010973 672.232125,95.4010973 C671.67984,95.4010973 671.232125,94.953382 671.232125,94.4010973 L671.232125,84.4010973 L661.232125,84.4010973 C660.67984,84.4010973 660.232125,83.953382 660.232125,83.4010973 C660.232125,82.8488125 660.67984,82.4010973 661.232125,82.4010973 L671.232125,82.4010973 L671.232125,72.4010973 C671.232125,71.8488125 671.67984,71.4010973 672.232125,71.4010973 C672.78441,71.4010973 673.232125,71.8488125 673.232125,72.4010973 L673.232125,82.4010973 Z" id="Combined-Shape" transform="translate(672.232125, 83.401097) rotate(135.000000) translate(-672.232125, -83.401097) "></path>
            </g>
        </g>
    </g>
</svg>