<?xml version="1.0" encoding="UTF-8"?>
<svg width="88px" height="58px" viewBox="0 0 88 58" version="1.1" xmlns="http://www.w3.org/2000/svg" xmlns:xlink="http://www.w3.org/1999/xlink">
    <!-- Generator: Sketch 51.1 (57501) - http://www.bohemiancoding.com/sketch -->
    <title>Group 20</title>
    <desc>Created with Sketch.</desc>
    <defs></defs>
    <g id="Page-2" stroke="none" stroke-width="1" fill="none" fill-rule="evenodd">
        <g id="首页新版本按钮" transform="translate(-634.000000, -167.000000)">
            <g id="搜索入口" transform="translate(30.000000, 159.000000)">
                <g id="Group-20" transform="translate(604.000000, 8.000000)">
                    <path d="M74.8505747,24.5914743 C74.0235839,24.4790903 73.1794489,24.4210526 72.3218391,24.4210526 C72.1721841,24.4210526 72.0229393,24.4228199 71.8741245,24.4263349 L71.8741245,15.0526316 C71.8741245,8.42521458 66.5015415,3.05263158 59.8741245,3.05263158 L15.0344828,3.05263158 C8.40706576,3.05263158 3.03448276,8.42521458 3.03448276,15.0526316 L3.03448276,39.8915073 C3.03448276,46.5189243 8.40706576,51.8915073 15.0344828,51.8915073 L55.6952519,51.8915073 C56.2536277,52.9759778 56.9137691,53.9988626 57.6629591,54.9473684 L15,54.9473684 C6.71572875,54.9473684 2.91712926e-15,48.2316397 -1.77635684e-15,39.9473684 L-1.77635684e-15,15 C-2.79088747e-15,6.71572875 6.71572875,1.52179594e-15 15,0 L59.8505747,0 C68.134846,-1.52179594e-15 74.8505747,6.71572875 74.8505747,15 L74.8505747,24.5914743 Z" id="Combined-Shape" fill="#333333"></path>
                    <ellipse id="Oval-8-Copy" stroke="#333333" stroke-width="3" cx="73.3333333" cy="43.245614" rx="13.1666667" ry="13.254386"></ellipse>
                    <g id="Page-1" transform="translate(63.724138, 36.631579)" fill="#333333">
                        <path d="M1.31877811,6.37485786 L9.2844605,6.42503022 C10.1289553,6.43034933 10.810746,7.11644788 10.810746,7.96095942 L10.810746,7.96095942 C10.810746,8.79862763 10.1316818,9.47769189 9.29401355,9.47769189 C9.29082918,9.47769189 9.28764481,9.47768186 9.2844605,9.4776618 L1.31877811,9.42748944 C0.474283321,9.42217034 -0.207507402,8.73607179 -0.207507402,7.89156025 L-0.207507402,7.89156025 C-0.207507402,7.05389204 0.471556854,6.37482778 1.30922507,6.37482778 C1.31240944,6.37482778 1.3155938,6.37483781 1.31877811,6.37485786 Z" id="Rectangle-15" transform="translate(5.301619, 7.926260) rotate(45.000000) translate(-5.301619, -7.926260) "></path>
                        <path d="M6.50698234,5.27929139 L17.6870987,5.33748683 C18.5313303,5.34188127 19.2133938,6.02750435 19.2133938,6.87174738 L19.2133938,6.87174738 C19.2133938,7.7103319 18.5335867,8.39013897 17.6950022,8.39013897 C17.6923677,8.39013897 17.6897331,8.39013212 17.6870987,8.3901184 L6.50698234,8.33192297 C5.66275074,8.32752852 4.98068722,7.64190545 4.98068722,6.79766242 L4.98068722,6.79766242 C4.98068722,5.95907789 5.6604943,5.27927082 6.49907882,5.27927082 C6.50171334,5.27927082 6.50434785,5.27927768 6.50698234,5.27929139 Z" id="Rectangle-15-Copy" transform="translate(12.097040, 6.834705) rotate(-45.000000) translate(-12.097040, -6.834705) "></path>
                    </g>
                    <text id="已点" fill="#333333" font-family="PingFangSC-Semibold, PingFang SC" font-size="28" font-weight="500" letter-spacing="-3.0999999">
                        <tspan x="11.0080459" y="36.4561404">已点</tspan>
                    </text>
                </g>
            </g>
        </g>
    </g>
</svg>