<?xml version="1.0" encoding="UTF-8"?>
<svg width="56px" height="56px" viewBox="0 0 56 56" version="1.1" xmlns="http://www.w3.org/2000/svg" xmlns:xlink="http://www.w3.org/1999/xlink">
    <!-- Generator: Sketch 59.1 (86144) - https://sketch.com -->
    <title>Group 7备份 4</title>
    <desc>Created with Sketch.</desc>
    <defs>
        <linearGradient x1="2.50470197%" y1="97.7670266%" x2="97.5387008%" y2="3.79674736%" id="linearGradient-1">
            <stop stop-color="#5F66F3" offset="0%"></stop>
            <stop stop-color="#D291FB" offset="100%"></stop>
        </linearGradient>
    </defs>
    <g id="Page-2" stroke="none" stroke-width="1" fill="none" fill-rule="evenodd">
        <g id="首页-K歌榜活动入口备份-9" transform="translate(-123.000000, -2020.000000)" fill="url(#linearGradient-1)">
            <g id="下导航备份" transform="translate(0.000000, 1993.000000)">
                <g id="Group-7备份-4" transform="translate(123.000000, 27.000000)">
                    <path d="M28.0000353,0.000818350174 C29.0221091,0.000818350174 30.0315824,0.0558847502 31.0256436,0.163206758 L31.0256576,19.5235311 C30.0800955,19.1851763 29.0618217,19.0008184 28.0011475,19.0008184 C23.0321714,19.0060771 19.0051636,23.0326712 19,28.0016374 C19.0051636,32.970221 23.0321714,36.9968152 28.0011475,37.0020739 C32.7759187,36.9955491 36.6794517,33.2755796 36.9792011,28.5762776 C37.0130603,28.3973736 37.0305116,28.2125909 37.0305116,28.0237322 L37.0305116,28.0237322 L37.0310749,1.49533211 C48.0518636,5.2614236 56,15.7216089 56,28.0021761 C56,43.4379603 43.4388765,56 28.0000353,56 C12.5611235,56 0,43.4398685 0,28.0021761 C0,12.5609498 12.5578015,0.0024438912 28.0000353,0.000818350174 Z M14.3381678,16.1320934 C8.43819238,21.2786519 7.80420455,29.4033746 11.2733319,35.7155404 C11.885551,36.4715679 12.992827,36.5881046 13.7475931,35.976907 C14.5023592,35.3657095 14.418295,34.3888488 14.0076139,33.5039144 C11.9677647,29.1084539 12.1603484,22.211898 16.5524813,18.8638415 C17.3059263,18.2537139 17.4223302,17.1466253 16.8111809,16.3919188 C16.2002099,15.6374325 15.0699522,15.4937565 14.3381678,16.1320934 Z" id="Combined-Shape"></path>
                </g>
            </g>
        </g>
    </g>
</svg>