<?xml version="1.0" encoding="UTF-8"?>
<svg width="36px" height="30px" viewBox="0 0 36 30" version="1.1" xmlns="http://www.w3.org/2000/svg" xmlns:xlink="http://www.w3.org/1999/xlink">
    <!-- Generator: Sketch 59.1 (86144) - https://sketch.com -->
    <title>编组备份</title>
    <desc>Created with Sketch.</desc>
    <g id="页面-1" stroke="none" stroke-width="1" fill="none" fill-rule="evenodd">
        <g id="发视频增加包场" transform="translate(-41.000000, -705.000000)" fill="#997EFF">
            <g id="编组备份" transform="translate(41.000000, 705.000000)">
                <path d="M25.7078632,7.87647644 C24.9024669,7.08967016 23.5966389,7.08967016 22.7912426,7.87647644 C21.9858463,8.66323037 21.9858463,9.9387801 22.7912426,10.7255864 C25.2074852,13.0861099 25.2074852,16.9127592 22.7912426,19.2730733 C21.9858463,20.0598796 21.9858463,21.3354293 22.7912426,22.1221832 C23.5966389,22.9089895 24.9024669,22.9089895 25.7078632,22.1221832 C29.734952,18.1883613 29.734952,11.8101414 25.7078632,7.87605759 L25.7078632,7.87647644 Z" id="Fill-1"></path>
                <path d="M30.541308,2.17846597 C29.7356973,1.39145026 28.4298694,1.39145026 27.6244731,2.17846597 C26.8190767,2.9652199 26.8190767,4.24076963 27.6244731,5.02757592 C33.262569,10.5349581 33.262569,19.4645393 27.6244731,24.9719215 C26.8190767,25.7586754 26.8190767,27.0342775 27.6244731,27.8210314 C28.4300838,28.6077853 29.7359117,28.6077853 30.541308,27.8210314 C37.7900358,20.740089 37.7900358,9.25940838 30.541308,2.17825654 L30.541308,2.17846597 Z" id="Fill-5"></path>
                <path d="M17.0497693,0.493638743 L8.24968745,6.94102094 L2.74703018,6.94102094 C1.21743639,6.94102094 -1.0719323e-05,8.13269634 -1.0719323e-05,9.60253927 L-1.0719323e-05,20.3970942 C-1.0719323e-05,21.847199 1.22976361,23.0586649 2.74703018,23.0586649 L8.24968745,23.0586649 L17.0497693,29.5060471 C18.2732728,30.4022251 19.2493743,29.9118063 19.2493743,28.4245288 L19.2493743,1.57531414 C19.2493743,0.106675393 18.2642685,-0.395994764 17.0497693,0.493848168 L17.0497693,0.493638743 Z" id="Fill-3"></path>
            </g>
        </g>
    </g>
</svg>