<?xml version="1.0" encoding="UTF-8"?>
<svg width="58px" height="60px" viewBox="0 0 58 60" version="1.1" xmlns="http://www.w3.org/2000/svg" xmlns:xlink="http://www.w3.org/1999/xlink">
    <!-- Generator: Sketch 51.1 (57501) - http://www.bohemiancoding.com/sketch -->
    <title>Fill 1</title>
    <desc>Created with Sketch.</desc>
    <defs>
        <linearGradient x1="50%" y1="100%" x2="50%" y2="-2.48949813e-15%" id="linearGradient-1">
            <stop stop-color="#C79D54" offset="0%"></stop>
            <stop stop-color="#F0D096" offset="100%"></stop>
        </linearGradient>
    </defs>
    <g id="Page-2" stroke="none" stroke-width="1" fill="none" fill-rule="evenodd">
        <g id="会员详情页定稿" transform="translate(-245.000000, -1079.000000)" fill="url(#linearGradient-1)">
            <g id="点歌专享特权" transform="translate(29.000000, 794.000000)">
                <path d="M250.437449,299.290897 L251.140485,299.290897 C253.828795,299.290897 256.509377,299.299021 259.197274,299.290897 C261.455767,299.28319 263.409618,297.244981 263.354809,294.954001 C263.307727,293.176582 262.198261,291.580593 260.557088,290.964652 C258.853586,290.316528 257.142048,290.680219 255.970149,292.133836 C254.11005,294.432523 252.344115,296.810468 250.437449,299.290897 Z M241.489606,299.290897 C241.395854,299.109468 241.372468,299.022399 241.317762,298.951161 C239.582837,296.707881 237.863675,294.448354 236.09774,292.228612 C235.011146,290.861648 233.549956,290.379955 231.877773,290.830403 C229.533152,291.469882 228.306548,293.532149 228.743988,295.949151 C229.04863,297.632209 230.775931,299.251424 232.417104,299.275066 C235.401916,299.314956 238.394867,299.290897 241.489606,299.290897 Z M240.576271,305.869624 L240.576271,329.807518 C240.576271,330.944686 241.222278,331.689036 242.280635,331.694844 C244.424759,331.71266 246.563587,331.71266 248.707711,331.694844 C249.760773,331.689036 250.40678,330.944686 250.40678,329.80171 L250.40678,305.869624 L240.576271,305.869624 Z M260.111612,285 C260.190117,285.047596 260.268106,285.118418 260.346198,285.126542 C262.471893,285.379209 264.28491,286.279895 265.839955,287.757154 C270.067546,291.778269 269.895702,297.76011 265.50389,301.536368 C264.026938,302.80814 262.338683,303.589992 260.43995,304.00909 L272.093231,304.00909 C273.257506,304.00909 273.570184,304.222284 274,305.288569 L274,320.858002 C273.562148,321.932098 273.257506,322.129774 272.022763,322.137481 L270.300501,322.137481 L270.300501,323.085868 C270.300501,328.797436 270.323887,334.5089 270.277218,340.220467 C270.269182,341.05002 270.112997,341.95081 269.761273,342.685482 C268.948311,344.375935 267.440451,345 265.635058,345 L224.427272,345 C223.356749,345 222.340623,344.818571 221.441944,344.14691 C220.144872,343.183109 219.699396,341.840099 219.699396,340.29983 C219.691772,334.540665 219.699396,328.781501 219.699396,323.022337 L219.699396,322.145605 L217.977134,322.145605 C216.742494,322.145605 216.445476,321.947929 216,320.865709 L216,305.15432 C216.351724,304.253946 217.05476,304.00909 217.945815,304.00909 C223.540844,304.024504 225.211809,304.016797 230.807353,304.016797 L231.510389,304.016797 C226.430789,303.052996 222.70338,299.646464 223.086114,294.361285 C223.367885,290.522016 225.266515,287.764861 228.603566,286.042746 C229.595997,285.529289 230.760271,285.339736 231.838727,285.007707 L233.534193,285.007707 C233.69079,285.055303 233.839247,285.126542 233.995432,285.134249 C236.488098,285.323905 238.559087,286.34301 240.137828,288.309981 C241.302102,289.771825 242.427331,291.264915 243.568219,292.749777 C244.357383,293.768986 245.138923,294.78809 245.951886,295.846667 C246.131354,295.649304 246.248801,295.530573 246.35028,295.404448 C247.999077,293.239593 249.663533,291.082966 251.296979,288.910508 C252.461254,287.362115 253.867738,286.137523 255.751223,285.584592 C256.626515,285.323905 257.532818,285.189657 258.416146,285 L260.111612,285 Z" id="Fill-1"></path>
            </g>
        </g>
    </g>
</svg>