<?xml version="1.0" encoding="UTF-8"?>
<svg width="30px" height="25px" viewBox="0 0 30 25" version="1.1" xmlns="http://www.w3.org/2000/svg" xmlns:xlink="http://www.w3.org/1999/xlink">
    <!-- Generator: Sketch 52.5 (67469) - http://www.bohemiancoding.com/sketch -->
    <title>shuaxin</title>
    <desc>Created with Sketch.</desc>
    <g id="Page-1" stroke="none" stroke-width="1" fill="none" fill-rule="evenodd">
        <g id="已点-copy" transform="translate(-273.000000, -355.000000)" fill="#999999" fill-rule="nonzero">
            <g id="分组-3" transform="translate(273.000000, 347.000000)">
                <g id="shuaxin" transform="translate(0.000000, 8.000000)">
                    <path d="M20.2502687,19.9077224 C18.658301,21.0445667 16.7956307,21.6144964 14.8914404,21.5882466 C14.639666,21.5855771 14.3896164,21.5722658 14.1426493,21.5501127 C14.0416987,21.5404012 13.9406879,21.5235538 13.8392737,21.5106759 C13.6448017,21.4844261 13.4498963,21.4578672 13.2606651,21.4205393 C13.143348,21.3978892 13.02874,21.367264 12.914105,21.3401748 C12.7284469,21.2957413 12.5436227,21.2509382 12.3624378,21.1959236 C12.2751114,21.1684011 12.1900367,21.1368759 12.1036044,21.1071506 C11.894584,21.0356916 11.6864246,20.9620327 11.4835993,20.8754626 C11.4377627,20.8567517 11.393654,20.8346925 11.3477874,20.8137484 C11.1114252,20.707631 10.8768181,20.5962716 10.6510278,20.471104 C10.6400224,20.4653013 10.630745,20.4604289 10.6197396,20.4547202 C9.85374807,20.0258783 9.15258153,19.4905767 8.53787741,18.8651113 C8.52859993,18.8553998 8.51845851,18.8437945 8.50834719,18.8327164 C8.31738814,18.6373624 8.13527611,18.4331969 7.96195089,18.2201562 C7.92579218,18.1748561 7.89050041,18.1260472 7.85391124,18.0794441 C6.60286257,16.4841568 5.84833995,14.4653 5.84833995,12.2688699 L7.970491,12.2688699 C8.02529799,12.2688699 8.07834703,12.2392991 8.10614938,12.1873268 C8.13398484,12.1353544 8.12932804,12.0745068 8.09918374,12.0284007 L4.5319696,6.57508515 C4.50441107,6.53297879 4.45703629,6.5052715 4.40324675,6.5052715 C4.3494572,6.5052715 4.30204932,6.53301212 4.2745239,6.57508515 L0.707249676,12.0282735 C0.677102365,12.0743826 0.672478674,12.1352271 0.700284037,12.1871995 C0.728119502,12.2391719 0.781138432,12.2687427 0.835972522,12.2687427 L2.95855511,12.2687427 C2.95855511,14.8508871 3.74834241,17.2443135 5.09023036,19.2232062 C5.1065668,19.2507893 5.11846618,19.2800813 5.13652748,19.3076341 C5.27542184,19.5099997 5.42979173,19.6968846 5.57883052,19.8882055 C5.63440813,19.9605644 5.68643971,20.0350929 5.74420575,20.1060853 C5.96383109,20.3777676 6.19708067,20.6330086 6.43698884,20.8824742 C6.45992368,20.9073272 6.48109753,20.9317165 6.50360191,20.9539332 C7.30883462,21.7755617 8.21945498,22.4680834 9.20987918,23.0215959 C9.235463,23.0371707 9.26104682,23.0531818 9.28925255,23.067796 C9.5745638,23.2239919 9.86780096,23.3651706 10.1650417,23.4988104 C10.2391442,23.5311719 10.3114586,23.5675999 10.3868555,23.5995917 C10.6408816,23.707012 10.9019034,23.8010908 11.1651769,23.890791 C11.2895228,23.9338579 11.4130079,23.9777944 11.5391089,24.0172616 C11.7688756,24.0865177 12.0039133,24.1446624 12.2411393,24.2019102 C12.3981281,24.2392047 12.5541927,24.2796051 12.7143272,24.3106637 C12.7809071,24.3244416 12.8435136,24.3453221 12.9088293,24.3555002 C13.1319374,24.3958976 13.3568337,24.4185173 13.5804054,24.4460398 C13.6611033,24.4558452 13.7404766,24.4696201 13.8212076,24.4784347 C14.222945,24.5188654 14.6233247,24.5454545 15.0233373,24.5454545 C17.4712116,24.5454545 19.8595649,23.7824374 21.9082907,22.319796 C22.5610018,21.8524173 22.7202121,20.9353435 22.2628971,20.2690444 C21.8042594,19.6014423 20.9029195,19.4403133 20.2502687,19.9077224 Z M27.0426579,12.2687427 C27.0413334,9.69463711 26.2563836,7.30601647 24.9211241,5.33115986 C24.9017052,5.29743175 24.8884512,5.26324003 24.8664706,5.23171481 C24.7006649,4.9902517 24.5193536,4.76517238 24.3390628,4.53969005 C24.3183495,4.51216759 24.2989607,4.48331189 24.2768898,4.45622274 C23.0548776,2.94520571 21.5207693,1.77820271 19.7819844,1.01518559 C19.7338661,0.993868793 19.6867352,0.970349108 19.6382496,0.949032311 C19.3608282,0.832736833 19.0763778,0.729755641 18.7906963,0.632543772 C18.6874941,0.597915718 18.5865134,0.559751529 18.4811257,0.528226304 C18.2319702,0.451431291 17.9792716,0.388847476 17.7243515,0.328899854 C17.5836991,0.295605046 17.4430468,0.25921044 17.3005733,0.230818344 C17.230047,0.217040451 17.163464,0.195756985 17.0938016,0.182879033 C16.9037366,0.149584226 16.7127775,0.134939722 16.522282,0.109653485 C16.389983,0.0927727634 16.261197,0.0719226022 16.1280341,0.0581477391 C15.8078886,0.0279557604 15.4903349,0.0151111399 15.1728715,0.00933878749 C15.1146449,0.00933878749 15.058667,0 15.0009009,0 C14.990329,0 14.9806482,0.00313312987 14.9700462,0.00400277037 C12.5252212,0.00577538253 10.1421719,0.758181068 8.09603192,2.21902257 C7.44162607,2.68509836 7.28241576,3.60306905 7.74016121,4.26980757 C8.19701262,4.93654307 9.09968,5.09810833 9.75276135,4.63066596 C11.333233,3.50275739 13.1769751,2.93189749 15.0679113,2.94921151 C15.3399987,2.9509811 15.6076821,2.96472566 15.8722801,2.99004523 C15.9538419,2.99938401 16.0345729,3.01179533 16.1156711,3.02200376 C16.333108,3.04909291 16.5487268,3.0805848 16.7612299,3.1232184 C16.8551848,3.14186567 16.9478121,3.16625499 17.0394521,3.18760209 C17.2480721,3.2355111 17.4562316,3.28701685 17.6599509,3.34963097 C17.7243123,3.37048113 17.7877797,3.39400081 17.8521743,3.41531761 C18.084593,3.49298226 18.3134326,3.57644654 18.5383921,3.67189186 C18.5612637,3.68163365 18.5846892,3.69364196 18.60673,3.70295045 C19.9534584,4.29332423 21.1348717,5.20198946 22.0565275,6.33923683 C22.0622921,6.34587579 22.0679633,6.35478127 22.0732975,6.36142326 C23.3706432,7.97098541 24.1516467,10.0284094 24.1525107,12.2687427 L22.0294657,12.2687427 C21.9746587,12.2687427 21.9216097,12.2983135 21.8938073,12.3502859 C21.866005,12.4022583 21.8706287,12.4631058 21.9008031,12.5092119 L25.468875,17.9620002 C25.4964335,18.0040733 25.5438083,18.0318139 25.5976279,18.0318139 C25.6514175,18.0317836 25.6987953,18.004043 25.7263207,17.9619699 L29.292728,12.5091816 C29.3229054,12.4630725 29.3275291,12.4022583 29.2996936,12.3502556 C29.2718913,12.2982832 29.2188392,12.2687124 29.1640352,12.2687124 L27.0426566,12.2687124 L27.0426579,12.2687427 Z" id="形状"></path>
                </g>
            </g>
        </g>
    </g>
</svg>