<?xml version="1.0" encoding="UTF-8"?>
<svg width="56px" height="56px" viewBox="0 0 56 56" version="1.1" xmlns="http://www.w3.org/2000/svg" xmlns:xlink="http://www.w3.org/1999/xlink">
    <!-- Generator: Sketch 51.1 (57501) - http://www.bohemiancoding.com/sketch -->
    <title>Fill 1</title>
    <desc>Created with Sketch.</desc>
    <defs>
        <linearGradient x1="26.6796875%" y1="88.0728137%" x2="68.3203125%" y2="10.6640715%" id="linearGradient-1">
            <stop stop-color="#03C803" offset="0%"></stop>
            <stop stop-color="#5BC800" offset="100%"></stop>
        </linearGradient>
    </defs>
    <g id="Page-1" stroke="none" stroke-width="1" fill="none" fill-rule="evenodd">
        <g id="支付栏" transform="translate(-30.000000, -997.000000)" fill="url(#linearGradient-1)">
            <path d="M51.3490007,1032.26254 C47.9971997,1034.28715 47.5000214,1031.12634 47.5000214,1031.12634 L43.299401,1020.50868 C41.6827682,1015.46321 44.6981039,1018.23388 44.6981039,1018.23388 C44.6981039,1018.23388 47.2853043,1020.35385 49.2490665,1021.64543 C51.2114614,1022.9379 53.448388,1022.02517 53.448388,1022.02517 L80.911527,1008.29455 C75.8441087,1001.46497 67.4745868,997 57.9985303,997 C42.5345954,997 30,1008.88306 30,1023.54268 C30,1031.97578 34.1501711,1039.47952 40.6157454,1044.34344 L39.4496014,1051.60369 C39.4496014,1051.60369 38.8808507,1053.72283 40.8509703,1052.73996 C42.1930715,1052.07024 45.6148042,1049.6672 47.651711,1048.20684 C50.9593518,1049.45303 54.4655084,1050.08966 58.0001709,1050.0859 C73.4627386,1050.0859 86,1038.20284 86,1023.54323 C86,1019.29721 84.9433679,1015.28725 83.0723011,1011.72743 C74.322017,1017.42936 53.9712011,1030.68146 51.3490007,1032.26254" id="Fill-1"></path>
        </g>
    </g>
</svg>