<?xml version="1.0" encoding="UTF-8"?>
<svg width="85px" height="84px" viewBox="0 0 85 84" version="1.1" xmlns="http://www.w3.org/2000/svg" xmlns:xlink="http://www.w3.org/1999/xlink">
    <!-- Generator: Sketch 51.1 (57501) - http://www.bohemiancoding.com/sketch -->
    <title>Group Copy 3</title>
    <desc>Created with Sketch.</desc>
    <defs></defs>
    <g id="Page-1" stroke="none" stroke-width="1" fill="none" fill-rule="evenodd">
        <g id="遥控弹窗定稿" transform="translate(-194.000000, -941.000000)">
            <g id="Group-6" transform="translate(196.500000, 943.000000)">
                <g id="Group-Copy-3">
                    <circle id="Oval" stroke="#333333" stroke-width="2" cx="40" cy="40" r="41"></circle>
                    <path d="M52.7999375,38.0813554 C51.9511916,38.0813554 51.1372894,38.4206251 50.5370579,39.0243303 C49.9370609,39.6282713 49.599875,40.4472037 49.599875,41.301195 C49.4655788,46.5387305 45.2071621,50.7141223 40,50.7141223 C34.7927598,50.7141223 30.5344212,46.5387305 30.400125,41.301195 C30.400125,35.9662648 34.6979165,31.6419906 40,31.6419906 L40,36.7290715 C40,37.5050056 40.611247,38.0813554 41.2191347,37.627476 L52.2557995,29.2978379 C52.7999375,28.8857777 52.7901719,27.9004333 52.2557995,27.4883731 C48.5750363,24.6962366 44.8876324,21.9133758 41.1935098,19.1393976 C40.6783561,18.7629465 40,19.1780725 40,20.0345006 L40,25.2023113 C31.1615275,25.2023113 24,32.4080987 24,41.301195 C24,50.1942126 31.1615275,57.4 40,57.4 C48.83816,57.4 56,50.1942126 56,41.301195 C56,40.4472037 55.662736,39.6282713 55.0625046,39.0243303 C54.4625075,38.4206251 53.6486052,38.0813554 52.7999375,38.0813554" id="Fill-1" fill="#333333"></path>
                </g>
            </g>
        </g>
    </g>
</svg>