<?xml version="1.0" encoding="UTF-8"?>
<svg width="85px" height="84px" viewBox="0 0 85 84" version="1.1" xmlns="http://www.w3.org/2000/svg" xmlns:xlink="http://www.w3.org/1999/xlink">
    <!-- Generator: Sketch 51.1 (57501) - http://www.bohemiancoding.com/sketch -->
    <title>Group Copy</title>
    <desc>Created with Sketch.</desc>
    <defs></defs>
    <g id="Page-1" stroke="none" stroke-width="1" fill="none" fill-rule="evenodd">
        <g id="遥控弹窗定稿" transform="translate(-471.000000, -941.000000)">
            <g id="Group-8" transform="translate(473.500000, 943.000000)">
                <g id="Group-Copy">
                    <circle id="Oval" stroke="#333333" stroke-width="2" cx="40" cy="40" r="41"></circle>
                    <path d="M40,57 C30.6111593,57 23,49.3888407 23,40 C23,30.6111593 30.6111593,23 40,23 C49.3888407,23 57,30.6111593 57,40 C57,49.3888407 49.3888407,57 40,57 Z M40,44.25 C42.3472102,44.25 44.25,42.3472102 44.25,40 C44.25,37.6527898 42.3472102,35.75 40,35.75 C37.6527898,35.75 35.75,37.6527898 35.75,40 C35.75,42.3472102 37.6527898,44.25 40,44.25 Z" id="Combined-Shape" fill="#333333"></path>
                </g>
            </g>
        </g>
    </g>
</svg>