<?xml version="1.0" encoding="UTF-8"?>
<svg width="84px" height="84px" viewBox="0 0 84 84" version="1.1" xmlns="http://www.w3.org/2000/svg" xmlns:xlink="http://www.w3.org/1999/xlink">
    <!-- Generator: Sketch 51.1 (57501) - http://www.bohemiancoding.com/sketch -->
    <title>Group Copy 4</title>
    <desc>Created with Sketch.</desc>
    <defs></defs>
    <g id="Page-1" stroke="none" stroke-width="1" fill="none" fill-rule="evenodd">
        <g id="遥控弹窗定稿" transform="translate(-56.000000, -941.000000)">
            <g id="Group-4" transform="translate(58.000000, 943.000000)">
                <g id="Group-Copy-4">
                    <circle id="Oval" stroke="#333333" stroke-width="2" cx="40" cy="40" r="41"></circle>
                    <g id="Group-2" transform="translate(25.000000, 26.000000)" fill="#333333">
                        <path d="M22.5242363,1.08991179 C23.1529079,1.80256704 23.5023486,2.82253711 23.5023486,3.95430675 L23.5023486,23.4742647 C23.5023486,24.6062487 23.1529079,25.6262188 22.5242363,26.338874 C21.8955112,27.0513149 21.0291985,27.4285714 20.023056,27.4285714 C19.2685429,27.4285714 18.4861603,27.2051867 17.7176053,26.7720303 L2.15173971,16.9769197 C0.782596972,16.1945371 0,15.0068677 0,13.7073987 C0,12.3938878 0.782596972,11.2202067 2.19365115,10.4097939 L17.6476635,0.698613308 C18.4861603,0.223599135 19.2545009,0 20.023056,0 C21.0291985,0 21.8955112,0.377256546 22.5242363,1.08991179 Z" id="Fill-1" transform="translate(11.751174, 13.714286) scale(-1, 1) translate(-11.751174, -13.714286) "></path>
                        <rect id="Rectangle" x="23.1428571" y="0.857142857" width="6.85714286" height="25.7142857" rx="3.42857143"></rect>
                    </g>
                </g>
            </g>
        </g>
    </g>
</svg>