<?xml version="1.0" encoding="UTF-8"?>
<svg width="84px" height="84px" viewBox="0 0 84 84" version="1.1" xmlns="http://www.w3.org/2000/svg" xmlns:xlink="http://www.w3.org/1999/xlink">
    <!-- Generator: Sketch 51.1 (57501) - http://www.bohemiancoding.com/sketch -->
    <title>Group Copy 2</title>
    <desc>Created with Sketch.</desc>
    <defs></defs>
    <g id="Page-1" stroke="none" stroke-width="1" fill="none" fill-rule="evenodd">
        <g id="遥控弹窗定稿" transform="translate(-610.000000, -941.000000)">
            <g id="Group-9" transform="translate(612.000000, 943.000000)">
                <g id="Group-Copy-2">
                    <circle id="Oval" stroke="#333333" stroke-width="2" cx="40" cy="40" r="41"></circle>
                    <path d="M34.3677566,31.9899569 C34.0884056,32.5104774 33.6681229,32.8489211 33.2253611,32.895046 L26.6482753,33.8491765 C24.1133877,34.2708963 23.112956,37.4314843 24.9208402,39.3122856 L29.6502883,44.0736052 C30.0305933,44.4697051 30.2113234,45.0039553 30.1180419,45.4876836 L28.973044,52.2375788 C28.5672987,54.8751786 31.2029608,56.8729075 33.4372748,55.6051905 L39.2859662,52.4446025 C39.7600462,52.1709939 40.2416641,52.1709939 40.6970339,52.4340584 L46.5781204,55.6127284 C48.7989289,56.8729075 51.4345911,54.8751786 51.0307751,52.2502318 L49.8868092,45.5051823 C49.8380821,44.9779764 50.0088065,44.4302656 50.3605751,44.0644969 L55.0721207,39.3215734 C56.8887543,37.4314843 55.8885021,34.2710758 53.3685108,33.8516443 L46.8059624,32.8987253 C46.2838283,32.7887972 45.8312851,32.4503535 45.6453503,32.0151731 L42.7410159,25.8119118 C41.629804,23.3951552 38.3719063,23.3951552 37.2582715,25.8171614 L34.3677566,31.9899569 Z" id="Fill-1" fill="#333333"></path>
                </g>
            </g>
        </g>
    </g>
</svg>