<?xml version="1.0" encoding="UTF-8"?>
<svg width="84px" height="84px" viewBox="0 0 84 84" version="1.1" xmlns="http://www.w3.org/2000/svg" xmlns:xlink="http://www.w3.org/1999/xlink">
    <!-- Generator: Sketch 51.1 (57501) - http://www.bohemiancoding.com/sketch -->
    <title>Group</title>
    <desc>Created with Sketch.</desc>
    <defs></defs>
    <g id="Page-1" stroke="none" stroke-width="1" fill="none" fill-rule="evenodd">
        <g id="遥控弹窗定稿" transform="translate(-333.000000, -941.000000)">
            <g id="Group-7" transform="translate(335.000000, 943.000000)">
                <g id="Group">
                    <circle id="Oval" stroke="#333333" stroke-width="2" cx="40" cy="40" r="41"></circle>
                    <g id="Group-6-Copy" transform="translate(40.000000, 40.000000) rotate(-10.000000) translate(-40.000000, -40.000000) translate(24.000000, 24.000000)" fill="#333333">
                        <path d="M4.44507035,19.9906799 L1.45341871,24.791152 C0.30238562,26.2709975 0.22000638,28.2443054 1.20676876,29.7241509 L2.60445179,31.0396715 C4.08429728,31.9440546 6.05760525,31.8619464 7.45528829,30.7109133 L12.1736522,27.7192617 C12.7490603,27.3081242 12.5847354,26.4858493 11.9270022,26.1570369 C10.6935899,25.581412 9.54255679,24.7593539 8.47363196,23.6904833 C7.40492391,22.7038835 6.58264903,21.5526336 6.00724088,20.2373298 C5.67826589,19.5795424 4.85620779,19.4971632 4.44507035,19.9906799 Z" id="Fill-1"></path>
                        <path d="M9.84627108,22.1591673 C14.9441149,27.2542103 23.1752205,27.283619 28.2308518,22.2251202 C33.286283,17.1665547 33.2518728,8.93571588 28.1537623,3.84073956 C23.0556517,-1.25423675 14.8248129,-1.2839789 9.76911488,3.77458663 C4.7137503,8.83308547 4.74809381,17.064191 9.84627108,22.1591673" id="Fill-3"></path>
                    </g>
                </g>
            </g>
        </g>
    </g>
</svg>