<?xml version="1.0" encoding="UTF-8"?>
<svg width="100px" height="100px" viewBox="0 0 100 100" version="1.1" xmlns="http://www.w3.org/2000/svg" xmlns:xlink="http://www.w3.org/1999/xlink">
    <!-- Generator: Sketch 51.1 (57501) - http://www.bohemiancoding.com/sketch -->
    <title>定制MV</title>
    <desc>Created with Sketch.</desc>
    <defs>
        <linearGradient x1="86.3984375%" y1="12.921875%" x2="9.7421875%" y2="89.0625%" id="linearGradient-1">
            <stop stop-color="#FF8D67" offset="0%"></stop>
            <stop stop-color="#FF493D" offset="100%"></stop>
        </linearGradient>
    </defs>
    <g id="Page-1" stroke="none" stroke-width="1" fill="none" fill-rule="evenodd">
        <g id="遥控弹窗定稿" transform="translate(-413.000000, -502.000000)">
            <g id="定制MV" transform="translate(413.000000, 502.000000)">
                <rect id="Rectangle-32-Copy-2" fill="url(#linearGradient-1)" x="0" y="0" width="100" height="100" rx="28"></rect>
                <g id="Group-5" transform="translate(28.000000, 29.000000)" fill="#FFFFFF">
                    <path d="M8.2126948,38.9568106 C7.09543644,38.9568106 6.02386546,38.5104581 5.23375791,37.7157231 C4.44398094,36.9209881 4,35.843051 4,34.7190886 L4,33.3493798 C4.05004883,31.9224137 4.32824707,30.7113946 4.83459473,29.7163227 C6.27068861,26.894118 8.2126948,26.0958248 9.50280762,26.0958248 C11.3061563,26.0958248 13.0264525,27.6496441 14.6636963,30.7572829 C16.4567523,33.816519 19.3288786,32.6654514 20.4155273,30.7572829 C24.8978678,23.4558886 28.8904622,19.8051915 32.3933105,19.8051915 C35.9042969,19.8051915 37.8934326,21.6209275 39.1796875,23.2555898 C40.4659424,24.8902522 40.9999103,26.4459005 40.9999103,30.0207947 C40.9999103,30.904307 40.9999103,32.4623572 40.9999103,34.6949452 C41.0145885,36.9801825 39.2255734,38.8656246 36.9556175,38.9568106 C34.6856617,39.0479966 9.32995317,38.9568106 8.2126948,38.9568106 Z M7.75483296,0 L36.245167,0 C40.5280594,0 44,3.48846407 44,7.79156154 L44,34.1621902 C44,38.4652877 40.5280594,41.9534884 36.245167,41.9534884 L7.75483296,41.9534884 C3.47194059,41.9534884 0,38.4652877 0,34.1621902 L0,7.79156154 C0,3.48846407 3.47194059,0 7.75483296,0 Z M7,12.4861264 C7,14.9686282 9.01477687,16.9811739 11.5000309,16.9811739 C13.9852849,16.9811739 16,14.9686282 16,12.4861264 C16,10.0036863 13.9852849,7.99114064 11.5000309,7.99114064 C9.01477687,7.99114064 7,10.0036863 7,12.4861264 Z" id="Combined-Shape"></path>
                </g>
            </g>
        </g>
    </g>
</svg>