<?xml version="1.0" encoding="UTF-8"?>
<svg width="100px" height="100px" viewBox="0 0 100 100" version="1.1" xmlns="http://www.w3.org/2000/svg" xmlns:xlink="http://www.w3.org/1999/xlink">
    <!-- Generator: Sketch 51.1 (57501) - http://www.bohemiancoding.com/sketch -->
    <title>炫彩弹幕</title>
    <desc>Created with Sketch.</desc>
    <defs>
        <linearGradient x1="2.50470197%" y1="97.7684227%" x2="97.5387008%" y2="3.79539696%" id="linearGradient-1">
            <stop stop-color="#46BCEC" offset="0%"></stop>
            <stop stop-color="#4ED8A9" offset="100%"></stop>
        </linearGradient>
    </defs>
    <g id="Page-1" stroke="none" stroke-width="1" fill="none" fill-rule="evenodd">
        <g id="遥控弹窗定稿" transform="translate(-60.000000, -502.000000)">
            <g id="炫彩弹幕" transform="translate(60.000000, 502.000000)">
                <rect id="Rectangle-32" fill="url(#linearGradient-1)" x="0" y="0" width="100" height="100" rx="28"></rect>
                <g id="Group-14" transform="translate(27.000000, 27.000000)" fill="#FFFFFF">
                    <path d="M16,39 L20.8358591,46.2543594 C21.4485307,47.173439 22.6902603,47.4218318 23.60934,46.8091603 C23.8290905,46.6626714 24.017652,46.4741099 24.1641409,46.2543594 L29,39 L16,39 Z" id="Path-2"></path>
                    <path d="M12.5,0 L32.5,1.77635684e-15 C39.4035594,5.08193556e-16 45,5.59644063 45,12.5 L45,26.5 C45,33.4035594 39.4035594,39 32.5,39 L12.5,39 C5.59644063,39 8.45442189e-16,33.4035594 0,26.5 L0,12.5 C-8.45442189e-16,5.59644063 5.59644063,1.26816328e-15 12.5,0 Z M9,19 C10.6568542,19 12,17.6568542 12,16 C12,14.3431458 10.6568542,13 9,13 C7.34314575,13 6,14.3431458 6,16 C6,17.6568542 7.34314575,19 9,19 Z M18,13 C16.3431458,13 15,14.3431458 15,16 C15,17.6568542 16.3431458,19 18,19 L35,19 C36.6568542,19 38,17.6568542 38,16 C38,14.3431458 36.6568542,13 35,13 L18,13 Z M12,23 C10.3431458,23 9,24.3431458 9,26 C9,27.6568542 10.3431458,29 12,29 L32,29 C33.6568542,29 35,27.6568542 35,26 C35,24.3431458 33.6568542,23 32,23 L12,23 Z" id="Combined-Shape"></path>
                </g>
            </g>
        </g>
    </g>
</svg>