<?xml version="1.0" encoding="UTF-8"?>
<svg width="100px" height="100px" viewBox="0 0 100 100" version="1.1" xmlns="http://www.w3.org/2000/svg" xmlns:xlink="http://www.w3.org/1999/xlink">
    <!-- Generator: Sketch 59.1 (86144) - https://sketch.com -->
    <title>Group 11</title>
    <desc>Created with Sketch.</desc>
    <defs>
        <linearGradient x1="12.1835938%" y1="93.4414062%" x2="92.5117188%" y2="5.921875%" id="linearGradient-1">
            <stop stop-color="#FF872E" offset="0%"></stop>
            <stop stop-color="#FFCF19" offset="100%"></stop>
        </linearGradient>
    </defs>
    <g id="页面-1" stroke="none" stroke-width="1" fill="none" fill-rule="evenodd">
        <g id="遥控弹窗-增加hot标签" transform="translate(-590.000000, -696.000000)">
            <g id="Group-11" transform="translate(590.000000, 696.000000)">
                <rect id="Rectangle-32-Copy-6" fill="url(#linearGradient-1)" x="0" y="0" width="100" height="100" rx="28"></rect>
                <path d="M36.3334142,30 C31.7388013,30 28,34.0379286 28,39.0001391 L28,61.0001605 C28,65.9620714 31.7388013,70 36.3334142,70 L64.6665858,70 C69.2611987,70 73,65.9620714 73,61.0001605 L73,39.0001391 C73,34.0379286 69.2611987,30 64.6665858,30 L36.3334142,30 Z M58.6334369,52.6832816 L48.3416408,57.8291796 C46.8597053,58.5701474 45.0576862,57.9694743 44.3167184,56.4875388 C44.1084353,56.0709725 44,55.6116333 44,55.145898 L44,44.854102 C44,43.1972477 45.3431458,41.854102 47,41.854102 C47.4657353,41.854102 47.9250745,41.9625372 48.3416408,42.1708204 L58.6334369,47.3167184 C60.1153723,48.0576862 60.7160454,49.8597053 59.9750776,51.3416408 C59.6847865,51.922223 59.2140191,52.3929905 58.6334369,52.6832816 Z" id="Fill-1" fill="#FFFFFF"></path>
            </g>
        </g>
    </g>
</svg>