<?xml version="1.0" encoding="UTF-8"?>
<svg width="100px" height="100px" viewBox="0 0 100 100" version="1.1" xmlns="http://www.w3.org/2000/svg" xmlns:xlink="http://www.w3.org/1999/xlink">
    <!-- Generator: Sketch 51.1 (57501) - http://www.bohemiancoding.com/sketch -->
    <title>Group 17</title>
    <desc>Created with Sketch.</desc>
    <defs>
        <linearGradient x1="85.6622869%" y1="17.3881392%" x2="17.8923825%" y2="86.3052844%" id="linearGradient-1">
            <stop stop-color="#E370EC" offset="0%"></stop>
            <stop stop-color="#F76234" offset="100%"></stop>
        </linearGradient>
    </defs>
    <g id="Page-1" stroke="none" stroke-width="1" fill="none" fill-rule="evenodd">
        <g id="遥控弹窗定稿" transform="translate(-60.000000, -696.000000)">
            <g id="Group-17" transform="translate(60.000000, 696.000000)">
                <rect id="Rectangle-32-Copy-5" fill="url(#linearGradient-1)" x="0" y="0" width="100" height="100" rx="28"></rect>
                <g id="Group-23" fill="#FFFFFF">
                    <path d="M50.0001465,74 C36.7451108,74 26,63.2548892 26,50.0001465 C26,36.7451108 36.7451108,26 50.0001465,26 C63.2548892,26 74,36.7451108 74,50.0001465 C74,63.2548892 63.2548892,74 50.0001465,74 Z M37.8436364,56.8542952 C38.7647892,62.605182 43.7853901,66.0587735 49.819411,66.0587735 C55.8531507,66.0587735 60.8737516,62.605182 61.7951294,56.8542952 C61.933277,55.8881857 61.7951294,54.0972793 60.1830134,54.0972793 L39.4557523,54.0972793 C37.8436364,54.0972793 37.7054887,55.8881857 37.8436364,56.8542952 Z M35.4869208,47.1262965 C36.8642924,48.0731123 38.3252816,48.7617773 39.4524628,49.105926 C40.1202315,49.3212093 40.6212236,49.4072071 40.913452,49.3212093 C41.6648382,49.1921339 43.7102332,47.5568106 45.2545852,45.3618978 C46.2981998,43.8987276 47.1329489,42.177249 47.2581459,40.4557178 C47.3835468,38.8203945 46.7573577,37.2282015 45.3797823,36.2382554 C44.4614157,35.5928782 43.2926039,35.2915971 42.1238432,35.5066703 C40.662854,35.7650313 39.5358766,36.7116896 38.9514707,37.959734 C38.2837021,37.3141467 37.4070678,36.840765 36.4887012,36.7116896 C34.8607317,36.4966164 33.2327112,37.2282015 32.3143446,38.5622437 C31.3543475,39.9394161 31.3125642,41.6608947 31.9805367,43.1671425 C32.6483563,44.7593881 33.9841484,46.0934303 35.4869208,47.1262965 Z M55.1906931,45.2759 C56.1506901,46.6528623 57.3195018,47.8580391 58.1962889,48.5465465 C58.7388605,48.9768505 59.1980693,49.2350014 59.4902468,49.2781316 C60.241633,49.4072071 62.6626192,48.5896242 64.8332113,47.0402987 C66.2942004,46.0074851 67.6299416,44.6733904 68.297965,43.0809872 C68.9657337,41.5316616 68.8823709,39.8103406 67.9639533,38.3900905 C67.3377641,37.4432221 66.3359838,36.7547673 65.1671721,36.5394839 C63.7480172,36.2813331 62.3704418,36.7978449 61.4104447,37.7875809 C60.9928664,36.9269204 60.3668301,36.1953353 59.5318772,35.7219536 C58.1126714,34.9472909 56.3595048,35.0763663 55.0237127,36.0231822 C53.6879206,37.0129181 53.0619352,38.6482414 53.1871323,40.2837748 C53.3541127,42.0481735 54.1471294,43.8125197 55.1906931,45.2759 Z" id="Combined-Shape"></path>
                </g>
            </g>
        </g>
    </g>
</svg>