<?xml version="1.0" encoding="UTF-8"?>
<svg width="100px" height="100px" viewBox="0 0 100 100" version="1.1" xmlns="http://www.w3.org/2000/svg" xmlns:xlink="http://www.w3.org/1999/xlink">
    <!-- Generator: Sketch 51.1 (57501) - http://www.bohemiancoding.com/sketch -->
    <title>Group 16</title>
    <desc>Created with Sketch.</desc>
    <defs>
        <linearGradient x1="10.1601562%" y1="91.921875%" x2="92.21875%" y2="7.37890625%" id="linearGradient-1">
            <stop stop-color="#B456F1" offset="0%"></stop>
            <stop stop-color="#FF7FEA" offset="100%"></stop>
        </linearGradient>
    </defs>
    <g id="Page-1" stroke="none" stroke-width="1" fill="none" fill-rule="evenodd">
        <g id="遥控弹窗定稿" transform="translate(-589.000000, -502.000000)">
            <g id="Group-16" transform="translate(589.000000, 502.000000)">
                <rect id="Rectangle-32-Copy-3" fill="url(#linearGradient-1)" x="0" y="0" width="100" height="100" rx="28"></rect>
                <g id="Group-3" transform="translate(31.000000, 27.000000)" fill="#FFFFFF">
                    <path d="M23.9606079,36.5855752 C23.9606079,38.5957031 24.2288602,41.207386 28.0592793,41.207386 C28.0599946,41.207386 30.2795257,41.2078614 34.7178726,41.2088121 C34.8708604,41.1785075 34.9791411,41.1544422 34.9791411,41.1544422 C36.135268,41.2088121 37.9815743,42.2832031 37.9815743,44.1039158 C37.9815743,45.9246285 36.135268,47 35.089836,47 L7.00784551,47 C5.96384418,47 4.11619665,46.2215035 4.11619665,44.1039158 C4.11619665,41.9863281 5.96384418,41.2088121 7.00784551,41.2088121 C7.11997104,41.1544422 7.15555793,41.1785075 7.20276868,41.2088121 L14.1100231,41.2088121 C17.1906139,41.2088121 18.1370737,38.5957031 18.1370737,36.5855752 C18.1370737,34.5754472 14.628626,33.2989642 13.4561364,32.8136458 C9.22433651,31.0637365 0,27.3951037 0,19.2814179 C0,12.9151457 3.87485797,5.82141427 5.54332874,1.76871595 C5.98548244,0.693884987 7.02179414,0 8.16880074,0 L33.9288808,0 C35.0762451,0 36.1125568,0.693884987 36.5547105,1.76871595 C38.2231812,5.8217708 42.0980392,12.9151457 42.0980392,19.2814179 C42.0980392,27.3951037 32.873345,31.0637365 28.6419029,32.8136458 C27.4690555,33.2989642 23.9606079,34.5754472 23.9606079,36.5855752 Z M4.92590043,14.2645905 C3.76952546,17.1449036 4.21923828,20.9615714 5.97705078,23.0137447 C7.73486328,25.065918 12.4469393,28.6352539 20.6873316,28.6352539 C28.927724,28.6352539 32.8503236,25.5376378 35.074289,23.0137447 C37.2982543,20.4898516 39.9423828,15.6530762 36.3078453,13.5766111 C32.6733078,11.500146 27.4572754,22.1154785 19.4962147,14.6769386 C11.535154,7.23839874 6.08227539,11.3842773 4.92590043,14.2645905 Z" id="Combined-Shape"></path>
                </g>
            </g>
        </g>
    </g>
</svg>