<?xml version="1.0" encoding="UTF-8"?>
<svg width="100px" height="100px" viewBox="0 0 100 100" version="1.1" xmlns="http://www.w3.org/2000/svg" xmlns:xlink="http://www.w3.org/1999/xlink">
    <!-- Generator: Sketch 51.1 (57501) - http://www.bohemiancoding.com/sketch -->
    <title>Group 11</title>
    <desc>Created with Sketch.</desc>
    <defs>
        <linearGradient x1="12.1835938%" y1="93.4414062%" x2="92.5117188%" y2="5.921875%" id="linearGradient-1">
            <stop stop-color="#FF872E" offset="0%"></stop>
            <stop stop-color="#FFCF19" offset="100%"></stop>
        </linearGradient>
    </defs>
    <g id="Page-1" stroke="none" stroke-width="1" fill="none" fill-rule="evenodd">
        <g id="遥控弹窗定稿" transform="translate(-590.000000, -696.000000)">
            <g id="Group-11" transform="translate(590.000000, 696.000000)">
                <rect id="Rectangle-32-Copy-6" fill="url(#linearGradient-1)" x="0" y="0" width="100" height="100" rx="28"></rect>
                <path d="M73,40 L28,40 L28,39.0001391 C28,34.0379286 31.7388013,30 36.3334142,30 L64.6665858,30 C69.2611987,30 73,34.0379286 73,39.0001391 L73,40 Z M73,46 L73,61.0001605 C73,65.9620714 69.2611987,70 64.6665858,70 L36.3334142,70 C31.7388013,70 28,65.9620714 28,61.0001605 L28,46 L73,46 Z M57,56 C55.3431458,56 54,57.3431458 54,59 C54,60.6568542 55.3431458,62 57,62 L65,62 C66.6568542,62 68,60.6568542 68,59 C68,57.3431458 66.6568542,56 65,56 L57,56 Z" id="Fill-1" fill="#FFFFFF"></path>
            </g>
        </g>
    </g>
</svg>