<?xml version="1.0" encoding="UTF-8"?>
<svg width="100px" height="100px" viewBox="0 0 100 100" version="1.1" xmlns="http://www.w3.org/2000/svg" xmlns:xlink="http://www.w3.org/1999/xlink">
    <!-- Generator: Sketch 51.1 (57501) - http://www.bohemiancoding.com/sketch -->
    <title>Group 10</title>
    <desc>Created with Sketch.</desc>
    <defs>
        <linearGradient x1="79.0820312%" y1="10.4414062%" x2="20.8085938%" y2="85.2226562%" id="linearGradient-1">
            <stop stop-color="#6DC5F6" offset="0%"></stop>
            <stop stop-color="#4590FA" offset="100%"></stop>
        </linearGradient>
    </defs>
    <g id="Page-1" stroke="none" stroke-width="1" fill="none" fill-rule="evenodd">
        <g id="遥控弹窗定稿" transform="translate(-236.000000, -696.000000)">
            <g id="Group-10" transform="translate(236.000000, 696.000000)">
                <rect id="Rectangle-32-Copy-4" fill="url(#linearGradient-1)" x="0" y="0" width="100" height="100" rx="28"></rect>
                <path d="M39.5982658,29.6498743 C36.2032479,30.7199064 33.8249818,33.9790675 34.0199216,37.6987401 L35.4722444,65.4107097 C35.510644,66.1434177 35.646474,66.8479182 35.8665221,67.5123149 L31.9525361,66.8221736 C27.6013817,66.0549477 24.6960336,61.9056806 25.4632595,57.5545261 L29.2722732,35.9525361 C30.0394991,31.6013817 34.1887662,28.6960336 38.5399206,29.4632595 L39.5982658,29.6498743 Z" id="Combined-Shape" fill="#FFFFFF"></path>
                <path d="M46.2902596,30.1999532 L64.5244952,29.2443374 C68.9367181,29.0131026 72.7009843,32.4024631 72.9322191,36.814686 L74.2755086,62.4461774 C74.5067434,66.8584003 71.1173829,70.6226666 66.70516,70.8539014 L48.4709244,71.8095172 C44.0587015,72.040752 40.2944353,68.6513914 40.0632005,64.2391685 L38.719911,38.6076771 C38.4886762,34.1954542 41.8780367,30.431188 46.2902596,30.1999532 Z M60.3720894,41.850994 C58.7415884,41.9364449 57.2306389,42.7090024 56.1829588,43.9519275 C55.0041326,42.8332503 53.4276704,42.2149355 51.7975468,42.3003667 C48.4911613,42.473647 45.9477273,45.3585754 46.1243221,48.7282063 C46.1301008,48.8384704 46.1432405,48.9411559 46.1625733,49.0212006 L46.166829,49.1024043 C46.1980648,49.698419 46.3757813,50.3454065 46.7068883,51.0289875 C46.7153997,51.0505811 46.7246789,51.0796039 46.7409416,51.1010679 C48.7931628,55.3093157 56.0803805,59.8995101 56.386429,60.1121665 C56.5824593,60.2420612 56.8049161,60.2967061 57.0238133,60.2852341 C57.2504474,60.2733568 57.4655977,60.1885851 57.6469571,60.0385433 C57.8929962,59.8264624 63.6641728,55.2748798 65.8312348,51.1333148 C65.9149623,50.9960436 65.975871,50.8602449 66.0300825,50.7392752 C66.043355,50.7018776 66.0642459,50.6636197 66.0774241,50.6262271 L66.10415,50.565716 C66.233672,50.2858765 66.3333055,50.0224502 66.4112687,49.7751908 C66.6269023,49.1291673 66.7177028,48.5491654 66.6903275,48.0268133 C66.6880141,47.9826708 66.686467,47.9531506 66.6771893,47.9169348 C66.6891963,47.8571951 66.691529,47.7608916 66.6857503,47.6506275 C66.5091554,44.2809967 63.6781917,41.6777285 60.3720894,41.850994 Z" id="Combined-Shape" fill="#FFFFFF"></path>
            </g>
        </g>
    </g>
</svg>