<?xml version="1.0" encoding="UTF-8"?>
<svg width="100px" height="100px" viewBox="0 0 100 100" version="1.1" xmlns="http://www.w3.org/2000/svg" xmlns:xlink="http://www.w3.org/1999/xlink">
    <!-- Generator: Sketch 51.1 (57501) - http://www.bohemiancoding.com/sketch -->
    <title>Group 15</title>
    <desc>Created with Sketch.</desc>
    <defs>
        <linearGradient x1="97.5387008%" y1="3.79539696%" x2="2.50470197%" y2="97.7684227%" id="linearGradient-1">
            <stop stop-color="#8FE446" offset="0%"></stop>
            <stop stop-color="#4ED8A9" offset="100%"></stop>
        </linearGradient>
    </defs>
    <g id="Page-1" stroke="none" stroke-width="1" fill="none" fill-rule="evenodd">
        <g id="遥控弹窗定稿" transform="translate(-413.000000, -696.000000)">
            <g id="Group-15" transform="translate(413.000000, 696.000000)">
                <rect id="Rectangle-32-Copy-7" fill="url(#linearGradient-1)" x="0" y="0" width="100" height="100" rx="28"></rect>
                <path d="M61.3864761,27 C61.4487382,27.0373409 61.5105917,27.0929028 61.5725269,27.0992761 C63.2584228,27.2975014 64.6963328,28.0041184 65.9296442,29.1630748 C69.2825613,32.3177667 69.1462712,37.0107103 65.6631103,39.973305 C64.4917342,40.9710501 63.1527735,41.5844374 61.6468818,41.9132333 L38.7027475,41.9192797 C34.6740992,41.1631473 31.7178779,38.490615 32.0214258,34.3442245 C32.2448991,31.3321961 33.750709,29.1691213 36.3973361,27.8180677 C37.1844361,27.4152437 38.1078263,27.2665338 38.9631532,27.0060464 L40.3078335,27.0060464 C40.4320308,27.0433873 40.549773,27.0992761 40.6736434,27.1053225 C42.6505858,27.2541141 44.2930944,28.0536339 45.5451988,29.5967847 C46.468589,30.7436482 47.3610116,31.9150244 48.2658539,33.0799456 C48.8917427,33.8795471 49.511585,34.6790669 50.1563485,35.5095542 C50.2986851,35.3547162 50.391833,35.2615683 50.4723161,35.162619 C51.7799824,33.4642217 53.1000684,31.7722793 54.3955601,30.0679172 C55.3189503,28.8531537 56.4344377,27.8924226 57.9282364,27.458631 C58.6224337,27.2541141 59.3412253,27.1487916 60.0417958,27 L61.3864761,27 Z M53.7138643,38.2116615 L54.2714446,38.2116615 C56.4035518,38.2116615 58.5295309,38.2180348 60.6613113,38.2116615 C62.4525298,38.205615 64.0021356,36.6065755 63.9586665,34.8092288 C63.9213256,33.4147879 63.0414045,32.1626835 61.7397846,31.6794582 C60.388731,31.1709848 59.0313041,31.4563117 58.1018675,32.5967202 C56.6266166,34.4001133 55.2260475,36.2656867 53.7138643,38.2116615 Z M46.6172989,38.2116615 C46.5429439,38.0693249 46.5243961,38.0010164 46.4810087,37.9451277 C45.1050339,36.1852036 43.7415606,34.412533 42.3409915,32.6710752 C41.4792097,31.5986483 40.3203349,31.2207454 38.9941208,31.5741356 C37.1345938,32.0758272 36.1617698,33.6937414 36.508705,35.5899556 C36.7503177,36.9103685 38.1202461,38.1806939 39.4218659,38.1992418 C41.7891308,38.2305362 44.1628507,38.2116615 46.6172989,38.2116615 Z" id="Fill-1" fill="#FFFFFF"></path>
                <path d="M69,58.8499728 L69,65 C69,69.418278 65.418278,73 61,73 L39,73 C34.581722,73 31,69.418278 31,65 L31,58.8499728 C27.5766395,58.1550673 25,55.1284369 25,51.5 L25,48.5 C25,44.3578644 28.3578644,41 32.5,41 L67.5,41 C71.6421356,41 75,44.3578644 75,48.5 L75,51.5 C75,55.1284369 72.4233605,58.1550673 69,58.8499728 Z M48,42 C46.8954305,42 46,42.8954305 46,44 L46,60 C46,61.1045695 46.8954305,62 48,62 L52,62 C53.1045695,62 54,61.1045695 54,60 L54,44 C54,42.8954305 53.1045695,42 52,42 L48,42 Z" id="Combined-Shape" fill="#FFFFFF"></path>
            </g>
        </g>
    </g>
</svg>