<?xml version="1.0" encoding="UTF-8"?>
<svg width="56px" height="59px" viewBox="0 0 56 59" version="1.1" xmlns="http://www.w3.org/2000/svg" xmlns:xlink="http://www.w3.org/1999/xlink">
    <!-- Generator: Sketch 51.1 (57501) - http://www.bohemiancoding.com/sketch -->
    <title>免广告</title>
    <desc>Created with Sketch.</desc>
    <defs>
        <linearGradient x1="50%" y1="100%" x2="50%" y2="-2.48949813e-15%" id="linearGradient-1">
            <stop stop-color="#C79D54" offset="0%"></stop>
            <stop stop-color="#F0D096" offset="100%"></stop>
        </linearGradient>
    </defs>
    <g id="Page-2" stroke="none" stroke-width="1" fill="none" fill-rule="evenodd">
        <g id="会员详情页定稿" transform="translate(-58.000000, -1081.000000)">
            <g id="点歌专享特权" transform="translate(29.000000, 794.000000)">
                <g id="免广告" transform="translate(29.000000, 287.000000)">
                    <path d="M47.8658669,0 L7.96076772,0 C5.7822113,0 4,1.85175261 4,4.11522349 L4,40.7402152 C4,43.0036861 5.7822113,44.8553634 7.96076772,44.8553634 L47.8658669,44.8553634 C50.0441332,44.8553634 51.8266346,43.0036861 51.8266346,40.7402152 L51.8266346,4.11522349 C51.8266346,1.85175261 50.0441332,0 47.8658669,0 Z" id="Fill-1-Copy" fill="#FFEDCE"></path>
                    <path d="M51.3623542,6 L4.63764582,6 C2.08678352,6 0,8.1628437 0,10.8065736 L0,53.5844977 C0,56.2282276 2.08678352,58.3909833 4.63764582,58.3909833 L51.3623542,58.3909833 C53.9128768,58.3909833 56,56.2282276 56,53.5844977 L56,10.8065736 C56,8.1628437 53.9128768,6 51.3623542,6 Z" id="Fill-1" fill="url(#linearGradient-1)"></path>
                    <path d="M41.1945035,35.0954114 C40.9541979,35.9284578 40.5940475,36.5238147 40.1135242,36.9999782 C39.7529338,37.357297 39.3926953,37.5953351 38.7918873,37.714267 C38.1910793,37.9523052 37.3503176,37.9523052 36.2689863,37.9523052 L33.26565,37.9523052 L33.26565,25.9285014 L36.1487015,25.9285014 C37.8308408,25.9285014 38.5516697,26.0476948 38.9119081,26.285733 C39.633001,26.5238583 40.233457,27.1192153 40.7139803,27.9523488 C41.1945035,28.7857439 41.555094,30.0953896 41.555094,31.8811117 C41.6753788,33.071564 41.555094,34.1430845 41.1945035,35.0954114 Z M42.7563581,23.7858093 C41.9155964,23.0715204 40.8342651,22.5953569 39.7529338,22.2381253 C38.9119081,22 37.8308408,22 36.2689863,22 L30.0219201,22 C29.5410448,22 29.0605216,22.3573188 29.0605216,22.952327 L29.0605216,41.047673 C29.0605216,41.5238365 29.421112,42 30.0219201,42 L36.6292247,42 C37.8308408,42 38.9119081,41.8811553 39.7529338,41.64303 C40.7139803,41.4049918 41.555094,41.047673 42.2758348,40.5715095 C42.9965757,40.095346 43.5974718,39.4999891 44.1982798,38.6669428 C44.7987359,37.8334605 45.2792591,36.8811335 45.5194768,35.8096131 C45.8800672,34.619248 46,33.3096022 46,31.8811117 C46,30.2142343 45.7597824,28.6665504 45.2792591,27.2380599 C44.678803,25.8096567 43.8376894,24.738049 42.7563581,23.7858093 Z M17.4071509,32.7142452 L18.9690054,28.5477057 C19.0892902,28.3095804 19.0892902,28.0715422 19.2092231,27.8334169 C19.3295958,28.1903869 19.4495287,28.4285123 19.5698135,28.7857439 L21.0113832,32.5954005 L17.4071509,32.5954005 L17.4071509,32.7142452 Z M21.3719736,22.5953569 C21.2516009,22.2381253 20.8914504,22 20.53086,22 L17.8880261,22 C17.5274357,22 17.1669333,22.2381253 17.0469124,22.5953569 L10.0787534,40.6904414 C9.95882056,40.9284796 9.95882056,41.2857984 10.1990382,41.5238365 C10.318971,41.7619619 10.6795614,41.8811553 10.9197791,41.8811553 L13.4426801,41.8811553 C13.8032705,41.8811553 14.163509,41.64303 14.2837938,41.2857984 L16.0858659,36.40497 L22.452953,36.40497 L24.3753099,41.2857984 C24.4953308,41.64303 24.8558332,41.8811553 25.2164236,41.8811553 L27.9795423,41.8811553 C28.3397807,41.8811553 28.5800863,41.7619619 28.7003711,41.5238365 C28.820304,41.2857984 28.9405888,40.9284796 28.820304,40.6904414 L21.3719736,22.5953569 Z" id="Fill-3" fill="#FFFFFF"></path>
                </g>
            </g>
        </g>
    </g>
</svg>