<?xml version="1.0" encoding="UTF-8"?>
<svg width="62px" height="58px" viewBox="0 0 62 58" version="1.1" xmlns="http://www.w3.org/2000/svg" xmlns:xlink="http://www.w3.org/1999/xlink">
    <!-- Generator: Sketch 51.1 (57501) - http://www.bohemiancoding.com/sketch -->
    <title>Fill 1</title>
    <desc>Created with Sketch.</desc>
    <defs>
        <linearGradient x1="50%" y1="100%" x2="50%" y2="-2.48949813e-15%" id="linearGradient-1">
            <stop stop-color="#C79D54" offset="0%"></stop>
            <stop stop-color="#F0D096" offset="100%"></stop>
        </linearGradient>
    </defs>
    <g id="Page-2" stroke="none" stroke-width="1" fill="none" fill-rule="evenodd">
        <g id="会员详情页定稿" transform="translate(-433.000000, -1081.000000)" fill="url(#linearGradient-1)">
            <g id="点歌专享特权" transform="translate(29.000000, 794.000000)">
                <g id="Group-3" transform="translate(403.000000, 284.000000)">
                    <path d="M49.7327073,61 L14.267193,61 C10.7421972,61 7.88888889,57.2982264 7.88888889,52.7457046 L7.88888889,51.7418129 L56.1111111,51.7418129 L56.1110979,52.7457046 C56.1181966,57.2982264 53.257703,61 49.7327073,61 Z M29.8354797,50.046835 L25.2955669,45.3536503 C24.1705697,44.1906721 24.1705479,42.345069 25.2955177,41.1820642 L29.8354305,36.4886579 C30.9873682,35.2977735 32.8866007,35.266201 34.0774851,36.4181386 C34.1014019,36.4412732 34.1249321,36.4648041 34.1480659,36.4887215 L38.6877108,41.1821278 C39.8125986,42.3451164 39.8125769,44.1906246 38.6876616,45.3535867 L34.1480167,50.0467714 C32.9960861,51.2376626 31.0968538,51.2692464 29.9059626,50.1173158 C29.8820796,50.0942141 29.8585821,50.0707173 29.8354797,50.046835 Z M58.0624621,12.9687696 C56.3644221,13.0513952 54.8051567,14.1312017 54.1327668,15.6717682 C53.3707192,17.3983926 53.744683,19.1592365 54.7567329,20.4247571 L54.2782983,22.4331337 C53.2943152,26.546355 49.5937452,29.4354114 45.3385966,29.4354114 C40.5500925,29.4354114 36.5653032,25.7762437 36.1839762,21.0370114 L35.726505,15.34161 C37.9374567,13.8903754 39.240223,11.1803266 38.6095001,8.24329398 C38.069128,5.71904514 36.0039676,3.68306938 33.4607191,3.15344055 C29.0738992,2.23854114 25.2136778,5.54003748 25.2136778,9.729092 C25.2136778,12.0677128 26.4264398,14.1312017 28.2560645,15.34161 L27.7985067,21.0370114 C27.4175262,25.7762437 23.4327368,29.4354114 18.6439729,29.4354114 C14.3890841,29.4354114 10.6882543,26.5325984 9.70418462,22.4331337 L9.22609653,20.4247571 C10.2449898,19.1659428 10.6121102,17.3983926 9.84971606,15.6717682 C9.17056935,14.1241515 7.61840727,13.0513952 5.92045388,12.9687696 C2.82254003,12.8172752 0.570267784,15.4998108 1.06940596,18.3475115 C1.34652208,19.9226414 2.39313566,21.1605628 3.7581859,21.7590606 L7.87455993,51.7418129 L56.1288864,51.7418129 L56.1288864,51.7280563 L60.2453471,21.7661109 C61.6103973,21.1676131 62.6637677,19.9226414 62.934127,18.3545618 C63.4193184,15.4998108 61.1670462,12.8105688 58.0624621,12.9687696 Z" id="Fill-1"></path>
                </g>
            </g>
        </g>
    </g>
</svg>