<?xml version="1.0" encoding="UTF-8"?>
<svg width="65px" height="65px" viewBox="0 0 65 65" version="1.1" xmlns="http://www.w3.org/2000/svg" xmlns:xlink="http://www.w3.org/1999/xlink">
    <!-- Generator: Sketch 51.1 (57501) - http://www.bohemiancoding.com/sketch -->
    <title>消费9.5折</title>
    <desc>Created with Sketch.</desc>
    <defs>
        <linearGradient x1="50%" y1="100%" x2="50%" y2="-2.48949813e-15%" id="linearGradient-1">
            <stop stop-color="#C79D54" offset="0%"></stop>
            <stop stop-color="#F0D096" offset="100%"></stop>
        </linearGradient>
    </defs>
    <g id="Page-2" stroke="none" stroke-width="1" fill="none" fill-rule="evenodd">
        <g id="会员详情页定稿" transform="translate(-629.000000, -884.000000)">
            <g id="点歌专享特权" transform="translate(29.000000, 794.000000)">
                <g id="Group-9" transform="translate(603.000000, 92.000000)">
                    <rect id="Rectangle-13-Copy" fill="#FFEDCE" transform="translate(12.266478, 39.551007) rotate(184.000000) translate(-12.266478, -39.551007) " x="2.06647767" y="21.0702376" width="20.4" height="36.9615385" rx="4"></rect>
                    <rect id="-" fill="#F0D5A7" transform="translate(18.266478, 40.743315) rotate(165.000000) translate(-18.266478, -40.743315) " x="8.06647767" y="22.2625453" width="20.4" height="36.9615385" rx="4"></rect>
                    <path d="M28.447905,57.6587931 L1.51643861,31.5021534 C0.547020389,30.5606256 4.91848339e-15,29.2667868 3.55271368e-15,27.9154 L0,8.34907452 C0,4.40016874 3.30411469,1.19230769 7.36598203,1.19230769 L27.8133974,0.484394158 C29.2073263,0.436134701 30.5580555,0.972303645 31.5394048,1.96342445 L58.1332667,28.8220881 C59.3259751,29.9734839 60,31.5619209 60,33.2219173 C60,34.8819964 59.3259751,36.4707639 58.1332667,37.622077 L37.5051712,57.6587931 C36.2909539,58.8372922 34.6646907,59.4918211 32.9746427,59.4828142 C31.264322,59.4828142 29.6553647,58.8359701 28.447905,57.6587931 Z" id="Fill-5" fill="url(#linearGradient-1)"></path>
                    <path d="M15.5903496,21.5665877 C13.9905029,21.5665877 12.4785453,20.9464 11.3503998,19.817627 C10.223309,18.7022148 9.58989165,17.1859773 9.59050687,15.6048567 C9.5854093,14.0224262 10.2157505,12.502783 11.3421382,11.3838778 C12.4682623,10.2647106 13.9977098,9.63841012 15.5903496,9.64356234 C17.1905479,9.64356234 18.7025055,10.2636627 19.8344302,11.3920864 C20.9543141,12.4969322 21.590456,14.0152655 21.590456,15.6048567 C21.5945868,17.1872872 20.963982,18.7063191 19.8378579,19.825137 C18.7118217,20.9440422 17.1829894,21.570692 15.5903496,21.5665877 Z" id="Fill-7" fill="#FFFFFF"></path>
                    <text id="%" transform="translate(32.580374, 32.319915) rotate(40.000000) translate(-32.580374, -32.319915) " font-family="PingFangSC-Medium, PingFang SC" font-size="28" font-weight="400" fill="#FFFFFF">
                        <tspan x="18.7203744" y="42.3199154">%</tspan>
                    </text>
                </g>
            </g>
        </g>
    </g>
</svg>