<?xml version="1.0" encoding="UTF-8"?>
<svg width="47px" height="65px" viewBox="0 0 47 65" version="1.1" xmlns="http://www.w3.org/2000/svg" xmlns:xlink="http://www.w3.org/1999/xlink">
    <!-- Generator: Sketch 51.1 (57501) - http://www.bohemiancoding.com/sketch -->
    <title>Group 6</title>
    <desc>Created with Sketch.</desc>
    <defs>
        <linearGradient x1="50%" y1="100%" x2="50%" y2="-2.48949813e-15%" id="linearGradient-1">
            <stop stop-color="#C79D54" offset="0%"></stop>
            <stop stop-color="#F0D096" offset="100%"></stop>
        </linearGradient>
    </defs>
    <g id="Page-2" stroke="none" stroke-width="1" fill="none" fill-rule="evenodd">
        <g id="会员详情页定稿" transform="translate(-442.000000, -884.000000)">
            <g id="点歌专享特权" transform="translate(29.000000, 794.000000)">
                <g id="Group-6" transform="translate(433.500000, 120.000000) rotate(-20.000000) translate(-433.500000, -120.000000) translate(405.000000, 92.000000)">
                    <g id="Group-3" transform="translate(0.000000, 0.000000)" fill="url(#linearGradient-1)">
                        <path d="M34.0580765,0.0806428828 C27.9333412,0.0806428828 22.1741941,2.46539935 17.8436451,6.79880694 C11.460302,13.1852206 9.63624314,22.4323804 12.3688804,30.4553638 L1.96147271,43.3932519 C1.08481584,44.4304636 1.14876682,45.9649731 2.1084629,46.9258036 L3.28794329,48.1056155 L1.46329937,49.8782385 C1.44647584,49.895285 0.360368394,51.4386861 1.46329937,53.1458276 C1.92454447,53.5176809 3.32057287,55.2934886 4.15390864,55.5162728 C4.98724442,55.739057 5.84273217,55.4170251 6.3318008,54.9273764 L8.49137467,53.3114523 L9.6709629,54.4915921 C10.1777178,55.0000356 10.8462374,55.2564975 11.5164825,55.2564975 C12.1138256,55.2564975 12.713757,55.0524863 13.2019629,54.6380168 L26.6156059,44.7315581 C28.9797431,45.5405001 31.4862333,45.9626186 34.0580765,45.9626186 C40.1828118,45.9626186 45.9409882,43.5761138 50.2719686,39.2432526 C59.2120569,30.2986675 59.2120569,15.7428457 50.2719686,6.79880694 C45.9414196,2.46539935 40.1828118,0.0806428828 34.0580765,0.0806428828 Z" id="Fill-1"></path>
                    </g>
                    <path d="M40.5396544,10.1523573 C40.2186122,10.0094134 32.6451405,6.7117121 26.7739233,11.9654203 C25.7420256,12.8885709 25.7420256,14.3843875 26.7739233,15.3075381 C27.2889442,15.7693113 27.9657416,16 28.6415565,16 C29.3173715,16 29.9932955,15.7693113 30.5091898,15.3075381 C33.6526953,12.4912957 37.9799412,14.2966427 38.1913858,14.3874541 C39.492365,14.9598233 41.0709403,14.4875643 41.7207749,13.3240305 C42.3727928,12.1559463 41.8440176,10.7358059 40.5396544,10.1523573" id="Fill-4" fill="#FFFFFF"></path>
                    <rect id="Rectangle-14" fill="#FFFFFF" transform="translate(13.735376, 43.231852) rotate(45.000000) translate(-13.735376, -43.231852) " x="10.7353756" y="38.2318519" width="6" height="10" rx="3"></rect>
                </g>
            </g>
        </g>
    </g>
</svg>