<?xml version="1.0" encoding="UTF-8"?>
<svg width="65px" height="65px" viewBox="0 0 65 65" version="1.1" xmlns="http://www.w3.org/2000/svg" xmlns:xlink="http://www.w3.org/1999/xlink">
    <!-- Generator: Sketch 51.1 (57501) - http://www.bohemiancoding.com/sketch -->
    <title>优先置顶</title>
    <desc>Created with Sketch.</desc>
    <defs>
        <linearGradient x1="50%" y1="100%" x2="50%" y2="-2.48949813e-15%" id="linearGradient-1">
            <stop stop-color="#C79D54" offset="0%"></stop>
            <stop stop-color="#F0D096" offset="100%"></stop>
        </linearGradient>
    </defs>
    <g id="Page-2" stroke="none" stroke-width="1" fill="none" fill-rule="evenodd" fill-opacity="0.99">
        <g id="会员详情页定稿" transform="translate(-53.000000, -884.000000)" fill="url(#linearGradient-1)">
            <g id="点歌专享特权" transform="translate(29.000000, 794.000000)">
                <path d="M67.8002803,112.499974 C68.7940076,112.499974 69.5997691,111.716754 69.5997691,110.750146 C69.5997691,109.783452 68.7933296,108.999894 67.8002803,108.999894 L46.1997197,108.999894 C45.2056534,108.999894 44.3998919,109.783452 44.3998919,110.750146 C44.3998919,111.716415 45.2062467,112.499974 46.1997197,112.499974 L67.8002803,112.499974 Z M56.3400434,116.271493 L47.4481077,124.932751 C46.7455664,125.616988 46.9816677,126.171817 47.975734,126.171817 L53.3759801,126.171817 L53.3759801,135.250193 C53.3759801,136.216463 54.1817416,136.999767 55.1754689,136.999767 L58.7764804,136.999767 C59.7702924,136.999767 60.5760539,136.216463 60.5760539,135.250193 L60.5760539,126.171817 L65.9762152,126.171817 C66.9700273,126.171817 67.2067218,125.617327 66.5039263,124.932751 L57.6115669,116.271493 C57.2607199,115.929545 56.691314,115.929545 56.3400434,116.271493 Z M34.599822,95 L79.399839,95 C82.4927157,95 85,97.5072843 85,100.599822 L85,145.399839 C85,148.492716 82.4927157,151 79.399839,151 L34.599822,151 C31.5072843,151 29,148.492716 29,145.399839 L29,100.599822 C29,97.5072843 31.5072843,95 34.599822,95 Z" id="优先置顶"></path>
            </g>
        </g>
    </g>
</svg>