<?xml version="1.0" encoding="UTF-8"?>
<svg width="100px" height="100px" viewBox="0 0 100 100" version="1.1" xmlns="http://www.w3.org/2000/svg" xmlns:xlink="http://www.w3.org/1999/xlink">
    <!-- Generator: Sketch 51.1 (57501) - http://www.bohemiancoding.com/sketch -->
    <title>定制MV</title>
    <desc>Created with Sketch.</desc>
    <defs>
        <linearGradient x1="86.3984375%" y1="12.921875%" x2="9.7421875%" y2="89.0625%" id="linearGradient-1">
            <stop stop-color="#FF8D67" offset="0%"></stop>
            <stop stop-color="#FF493D" offset="100%"></stop>
        </linearGradient>
    </defs>
    <g id="Page-1" stroke="none" stroke-width="1" fill="none" fill-rule="evenodd">
        <g id="会员详情页修改" transform="translate(-610.000000, -1347.000000)">
            <g id="VIP免费畅玩" transform="translate(30.000000, 1251.000000)">
                <g id="定制MV" transform="translate(580.000000, 96.000000)">
                    <circle id="Oval-5-Copy-3" fill="url(#linearGradient-1)" cx="50" cy="50" r="50"></circle>
                    <g id="Group-5" transform="translate(29.000000, 30.000000)" fill="#FFFFFF">
                        <path d="M8.02604265,38.0714286 C6.93417652,38.0714286 5.88695943,37.6352204 5.11480886,36.8585475 C4.34298137,36.0818747 3.90909091,35.0284362 3.90909091,33.9300184 L3.90909091,32.5914394 C3.95800226,31.1969043 4.22987782,30.0134084 4.72471757,29.0409517 C6.12817296,26.282888 8.02604265,25.5027379 9.28683472,25.5027379 C11.0491982,25.5027379 12.7303968,27.0212431 14.3304305,30.0582537 C16.0827352,33.0479618 18.8895859,31.9230548 19.9515381,30.0582537 C24.3320072,22.9228002 28.2338608,19.3550735 31.6570989,19.3550735 C35.0882901,19.3550735 37.0322182,21.1295428 38.2892401,22.7270537 C39.5462619,24.3245646 40.0680942,25.8448574 40.0680942,29.3385039 C40.0680942,30.2019364 40.0680942,31.7245763 40.0680942,33.9064237 C40.0824387,36.1397238 38.3340831,37.982315 36.1157171,38.0714286 C33.8973512,38.1605422 9.11790878,38.0714286 8.02604265,38.0714286 Z M7.57858676,0 L35.4214132,0 C39.6069672,0 43,3.4091808 43,7.6144806 L43,33.3857768 C43,37.5910766 39.6069672,41 35.4214132,41 L7.57858676,41 C3.39303285,41 0,37.5910766 0,33.3857768 L0,7.6144806 C0,3.4091808 3.39303285,0 7.57858676,0 Z M6.84090909,12.2023508 C6.84090909,14.6284321 8.80989558,16.5952381 11.2386666,16.5952381 C13.6674375,16.5952381 15.6363636,14.6284321 15.6363636,12.2023508 C15.6363636,9.7763298 13.6674375,7.80952381 11.2386666,7.80952381 C8.80989558,7.80952381 6.84090909,9.7763298 6.84090909,12.2023508 Z" id="Combined-Shape"></path>
                    </g>
                </g>
            </g>
        </g>
    </g>
</svg>