<?xml version="1.0" encoding="UTF-8"?>
<svg width="65px" height="65px" viewBox="0 0 65 65" version="1.1" xmlns="http://www.w3.org/2000/svg" xmlns:xlink="http://www.w3.org/1999/xlink">
    <!-- Generator: Sketch 51.1 (57501) - http://www.bohemiancoding.com/sketch -->
    <title>我的歌单</title>
    <desc>Created with Sketch.</desc>
    <defs>
        <linearGradient x1="50%" y1="100%" x2="50%" y2="-2.48949813e-15%" id="linearGradient-1">
            <stop stop-color="#C79D54" offset="0%"></stop>
            <stop stop-color="#F0D096" offset="100%"></stop>
        </linearGradient>
    </defs>
    <g id="Page-1" stroke="none" stroke-width="1" fill="none" fill-rule="evenodd">
        <g id="会员详情页修改" transform="translate(-432.000000, -884.000000)">
            <g id="点歌专享特权" transform="translate(23.000000, 794.000000)">
                <g id="Group-13" transform="translate(414.000000, 93.000000)">
                    <path d="M47.8658669,0 L7.96076772,0 C5.7822113,0 4,1.85175261 4,4.11522349 L4,40.7402152 C4,43.0036861 5.7822113,44.8553634 7.96076772,44.8553634 L47.8658669,44.8553634 C50.0441332,44.8553634 51.8266346,43.0036861 51.8266346,40.7402152 L51.8266346,4.11522349 C51.8266346,1.85175261 50.0441332,0 47.8658669,0 Z" id="Fill-1-Copy" fill="#FFEDCE"></path>
                    <path d="M51.3623542,6 L4.63764582,6 C2.08678352,6 0,8.1628437 0,10.8065736 L0,53.5844977 C0,56.2282276 2.08678352,58.3909833 4.63764582,58.3909833 L51.3623542,58.3909833 C53.9128768,58.3909833 56,56.2282276 56,53.5844977 L56,10.8065736 C56,8.1628437 53.9128768,6 51.3623542,6 Z" id="Fill-1" fill="url(#linearGradient-1)"></path>
                    <path d="M23.1296353,18 C22.3476157,18.0013043 21.589453,18.3012623 21.0074614,18.898864 C20.4236606,19.505007 20.1384712,20.2895091 20.1325806,21.0818794 L20.1432679,24.8387798 L20.14554,35.0114306 C19.2001823,34.3176438 18.0478541,33.9069425 16.8024965,33.9157784 C13.5967041,33.9105189 11.0087097,36.5695372 11,39.8601543 C11.0093829,43.1359607 13.6092006,45.8007013 16.8010238,45.8026788 C19.9938569,45.804993 22.5820196,43.1458485 22.586101,39.8532539 L22.567209,24.8443759 L38.5356241,24.8667181 L38.5329734,35.0393689 C37.5842917,34.3437728 36.4411781,33.9351753 35.1859748,33.9227209 C31.9912062,33.9289481 29.4008976,36.5984432 29.4055259,39.8732819 C29.3992567,43.174418 31.9954558,45.8381907 35.1942216,45.8319635 C38.3880224,45.8243899 40.9856942,43.1665498 40.976648,39.871641 L40.973871,24.8567041 L40.9737027,21.1134362 C40.975007,20.3199299 40.6750491,19.5332819 40.0830435,18.922216 C39.500547,18.3336606 38.7287518,18.0331978 37.9721879,18.0294109 L23.1296353,18 Z" id="Fill-1" fill="#FFFFFF"></path>
                </g>
            </g>
        </g>
    </g>
</svg>