<?xml version="1.0" encoding="UTF-8"?>
<svg width="30px" height="30px" viewBox="0 0 30 30" version="1.1" xmlns="http://www.w3.org/2000/svg" xmlns:xlink="http://www.w3.org/1999/xlink">
    <!-- Generator: Sketch 51.1 (57501) - http://www.bohemiancoding.com/sketch -->
    <title>Group 17 Copy</title>
    <desc>Created with Sketch.</desc>
    <defs></defs>
    <g id="Page-2" stroke="none" stroke-width="1" fill="none" fill-rule="evenodd">
        <g id="会员详情页定稿" transform="translate(-90.000000, -712.000000)">
            <g id="开通VIP" transform="translate(30.000000, 391.000000)">
                <g id="Group-7" transform="translate(60.000000, 318.000000)">
                    <g id="Group-17-Copy" transform="translate(0.000000, 3.000000)">
                        <circle id="Oval-3" fill="#999999" cx="15" cy="15" r="15"></circle>
                        <path d="M5.82391025,15.7704882 L14.7299838,15.7559835 C15.5570617,15.7546365 16.2286328,16.4240237 16.2299798,17.2511016 C16.2299811,17.2519146 16.2299818,17.2527276 16.2299818,17.2535406 L16.2299818,17.2535406 C16.2299818,18.0823626 15.5588047,18.7546337 14.7299838,18.7559835 L5.82391025,18.7704882 C4.99683232,18.7718352 4.32526122,18.102448 4.32391422,17.2753701 C4.3239129,17.2745571 4.32391223,17.2737441 4.32391223,17.2729311 L4.32391223,17.2729311 C4.32391223,16.4441091 4.99508934,15.771838 5.82391025,15.7704882 Z" id="Rectangle-8" fill="#FFFFFF" transform="translate(10.276947, 17.263236) rotate(45.000000) translate(-10.276947, -17.263236) "></path>
                        <path d="M11.7017191,14.2667475 L25.2474826,14.4149135 C26.0694606,14.4239045 26.7310763,15.0927966 26.7310763,15.9148238 L26.7310763,15.9311413 C26.7310763,16.7505565 26.066809,17.4148238 25.2473938,17.4148238 C25.2419845,17.4148238 25.2365751,17.4147942 25.231166,17.4147351 L11.6854025,17.266569 C10.8634245,17.2575781 10.2018088,16.5886859 10.2018088,15.7666588 L10.2018088,15.7503412 C10.2018088,14.930926 10.8660761,14.2666588 11.6854913,14.2666588 C11.6909007,14.2666588 11.69631,14.2666883 11.7017191,14.2667475 Z" id="Rectangle-8-Copy" fill="#FFFFFF" transform="translate(18.466443, 15.840741) rotate(-45.000000) translate(-18.466443, -15.840741) "></path>
                    </g>
                </g>
            </g>
        </g>
    </g>
</svg>