<?xml version="1.0" encoding="UTF-8"?>
<svg width="65px" height="65px" viewBox="0 0 65 65" version="1.1" xmlns="http://www.w3.org/2000/svg" xmlns:xlink="http://www.w3.org/1999/xlink">
    <!-- Generator: Sketch 51.1 (57501) - http://www.bohemiancoding.com/sketch -->
    <title>记录常唱</title>
    <desc>Created with Sketch.</desc>
    <defs>
        <linearGradient x1="50%" y1="100%" x2="50%" y2="-2.48949813e-15%" id="linearGradient-1">
            <stop stop-color="#C79D54" offset="0%"></stop>
            <stop stop-color="#F0D096" offset="100%"></stop>
        </linearGradient>
        <path d="M28.9740353,0.00168221942 C12.994633,0.00168221942 0,12.9980706 0,28.9776923 C0,44.953657 12.9980706,57.9517276 28.9740353,57.9517276 C44.9499269,57.9517276 57.9479975,44.9516822 57.9479975,28.9776923 C57.9479975,13.0000454 44.9482446,0 28.9740353,0" id="path-2"></path>
    </defs>
    <g id="Page-2" stroke="none" stroke-width="1" fill="none" fill-rule="evenodd">
        <g id="会员详情页定稿" transform="translate(-241.000000, -884.000000)">
            <g id="点歌专享特权" transform="translate(29.000000, 794.000000)">
                <g id="Group-7" transform="translate(216.000000, 94.000000)">
                    <mask id="mask-3" fill="white">
                        <use xlink:href="#path-2"></use>
                    </mask>
                    <use id="Fill-3" fill="url(#linearGradient-1)" xlink:href="#path-2"></use>
                    <rect id="Rectangle-13" fill="#FFFFFF" mask="url(#mask-3)" x="31.0714286" y="-4.14285714" width="5.17857143" height="35.2142857" rx="2.58928571"></rect>
                    <path d="M36.25,28.4834633 C36.25,24.1993029 32.7672937,20.7142857 28.4831332,20.7142857 C24.1944336,20.7188249 20.7187424,24.1944336 20.7142857,28.4834633 C20.7187424,32.772163 24.1944336,36.2477717 28.4831332,36.2523109 C32.7708425,36.2464512 36.244553,32.7708425 36.2480193,28.4834633" id="Fill-1" fill="#FFFFFF" mask="url(#mask-3)"></path>
                    <path d="M21.910504,19.3038587 C22.765509,19.3038587 23.4585053,18.6108625 23.4585053,17.7558574 C23.4585053,16.9011018 22.765509,16.2078561 21.910504,16.2078561 C13.0557669,16.2078561 5.85279666,23.4125101 5.8513624,32.2669977 L5.8513624,32.2687437 C5.8513624,33.1234993 6.54435863,33.816745 7.3993637,33.816745 C8.25436876,33.816745 8.94736499,33.1234993 8.94736499,32.2687437 C8.94736499,25.1198387 14.7633451,19.3038587 21.9120006,19.3038587 L21.910504,19.3038587 Z" id="Fill-5" fill="#FFFFFF" mask="url(#mask-3)" transform="translate(14.654934, 25.012301) rotate(-30.000000) translate(-14.654934, -25.012301) "></path>
                </g>
            </g>
        </g>
    </g>
</svg>