<?xml version="1.0" encoding="UTF-8"?>
<svg width="62px" height="58px" viewBox="0 0 62 58" version="1.1" xmlns="http://www.w3.org/2000/svg" xmlns:xlink="http://www.w3.org/1999/xlink">
    <!-- Generator: Sketch 51.1 (57501) - http://www.bohemiancoding.com/sketch -->
    <title>Group 11</title>
    <desc>Created with Sketch.</desc>
    <defs>
        <linearGradient x1="50%" y1="100%" x2="50%" y2="-2.48949813e-15%" id="linearGradient-1">
            <stop stop-color="#C79D54" offset="0%"></stop>
            <stop stop-color="#F0D096" offset="100%"></stop>
        </linearGradient>
    </defs>
    <g id="Page-2" stroke="none" stroke-width="1" fill="none" fill-rule="evenodd">
        <g id="会员详情页定稿" transform="translate(-631.000000, -1081.000000)">
            <g id="点歌专享特权" transform="translate(29.000000, 794.000000)">
                <g id="Group-11" transform="translate(602.000000, 287.000000)">
                    <path d="M59.3675704,25.8757668 C58.7048033,25.9238086 58.1889106,26.4704638 58.1787001,27.1346708 L57.8518327,51.7523517 C57.469462,55.3210574 54.4474116,58.020953 50.8582849,57.9998775 L11.2276136,57.9998775 C7.63848689,58.020953 4.61643647,55.3210574 4.23393489,51.7523517 L3.90772205,27.1346708 C3.8866465,26.4745218 3.37585898,25.9345427 2.71832804,25.8757668 C1.82595527,25.8189544 0.990002136,25.4181263 0.387058176,24.7569301 C-0.241935686,23.8835384 -0.0895633959,22.6726761 0.736833743,21.9829428 L26.8701215,1.30468774 C29.3031038,-0.434895912 32.5730864,-0.434895912 35.0060687,1.30468774 L61.2088665,21.9829428 C62.0280639,22.6788286 62.1702257,23.8891672 61.535603,24.7569301 C61.0155213,25.4007161 60.221981,25.8016751 59.3675704,25.8757668 Z" id="Fill-1" fill="url(#linearGradient-1)"></path>
                    <path d="M42.180945,33.8376998 L39.5667343,36.4874359 C38.9318516,37.1339719 38.6402627,38.0598087 38.7892178,38.9721689 L39.4048124,42.712745 C39.7837241,45.0055218 37.4675451,46.7529209 35.4850158,45.6721041 L32.2552103,43.9079016 C31.4686982,43.4769057 30.5281658,43.4769057 29.7414916,43.9079016 L26.5150088,45.6688192 C24.5323174,46.7529209 22.2194612,45.0022369 22.5952527,42.7092916 L23.2106448,38.9687156 C23.359762,38.0598087 23.0713742,37.1305185 22.4333309,36.484151 L19.8189175,33.8344149 C18.2155024,32.2115473 19.0998322,29.3800045 21.3156813,29.0467134 L24.9275591,28.5013776 C25.8087282,28.3699395 26.5667541,27.7943237 26.9619957,26.9660232 L28.5785801,23.5654766 C29.5697637,21.4781745 32.4303015,21.4781745 33.4214851,23.5654766 L35.0380289,26.9660232 C35.4299478,27.7943237 36.1912964,28.3699395 37.0723035,28.5013776 L40.6843838,29.0467134 C42.9001924,29.3867849 43.7845627,32.2150007 42.180945,33.8376998" id="Path" fill="#FFFFFF"></path>
                </g>
            </g>
        </g>
    </g>
</svg>