<?xml version="1.0" encoding="UTF-8"?>
<svg width="100px" height="100px" viewBox="0 0 100 100" version="1.1" xmlns="http://www.w3.org/2000/svg" xmlns:xlink="http://www.w3.org/1999/xlink">
    <!-- Generator: Sketch 51.1 (57501) - http://www.bohemiancoding.com/sketch -->
    <title>霸屏祝福</title>
    <desc>Created with Sketch.</desc>
    <defs>
        <linearGradient x1="10.1601562%" y1="91.921875%" x2="92.21875%" y2="7.37890625%" id="linearGradient-1">
            <stop stop-color="#B456F1" offset="0%"></stop>
            <stop stop-color="#FF7FEA" offset="100%"></stop>
        </linearGradient>
    </defs>
    <g id="Page-1" stroke="none" stroke-width="1" fill="none" fill-rule="evenodd">
        <g id="会员结果页" transform="translate(-51.000000, -854.000000)">
            <g id="VIP免费畅玩-Copy" transform="translate(45.000000, 765.000000)">
                <g id="霸屏祝福" transform="translate(6.000000, 89.000000)">
                    <circle id="Oval-5-Copy" fill="url(#linearGradient-1)" cx="50" cy="50" r="50"></circle>
                    <g id="Group-11" transform="translate(26.000000, 27.000000)" fill="#FFFFFF">
                        <path d="M8,0 L40,0 C44.418278,-8.11624501e-16 48,3.581722 48,8 L48,28 C48,32.418278 44.418278,36 40,36 L8,36 C3.581722,36 -3.47095419e-16,32.418278 -8.8817842e-16,28 L0,8 C-5.41083001e-16,3.581722 3.581722,8.11624501e-16 8,0 Z M28.3457566,8.22857143 C26.5448806,8.22857143 24.8360233,8.99775305 23.6102896,10.3156633 C22.3764275,9.00614152 20.6756986,8.22857143 18.8752395,8.22857143 C15.223362,8.22857143 12.2553191,11.2810532 12.2553191,15.0293686 C12.2553191,15.1520244 12.2638645,15.2667009 12.2805383,15.3566212 L12.2805383,15.4469507 C12.2805383,16.1099466 12.4389395,16.8380042 12.7641831,17.6155743 C12.7723115,17.6400236 12.7808569,17.6727591 12.7975307,17.6975153 C14.815062,22.4851825 22.5767217,28.0009073 22.9015484,28.2546073 C23.109971,28.4101008 23.3518455,28.4836534 23.5936158,28.4836534 C23.8439314,28.4836534 24.0858059,28.4021216 24.2942286,28.2462188 C24.577475,28.0252543 31.1969785,23.3115489 33.8229997,18.8431551 C33.9231468,18.6957431 33.9980748,18.548638 34.06477,18.4175937 C34.081548,18.376879 34.1067672,18.3356527 34.123441,18.294938 L34.1563718,18.2293647 C34.3151898,17.9264591 34.4401392,17.6400236 34.5402863,17.3702628 C34.8150916,16.6661429 34.9485863,16.0280056 34.9485863,15.4469507 C34.9485863,15.3978475 34.9485863,15.3650097 34.9404578,15.3242949 C34.9571316,15.2587216 34.9652601,15.1520244 34.9652601,15.0293686 C34.9652601,11.2810532 31.9973215,8.22857143 28.3457566,8.22857143 Z" id="Combined-Shape"></path>
                        <rect id="Rectangle-10" x="12" y="39" width="23" height="7" rx="3.5"></rect>
                    </g>
                </g>
            </g>
        </g>
    </g>
</svg>