<?xml version="1.0" encoding="UTF-8"?>
<svg width="100px" height="100px" viewBox="0 0 100 100" version="1.1" xmlns="http://www.w3.org/2000/svg" xmlns:xlink="http://www.w3.org/1999/xlink">
    <!-- Generator: Sketch 51.1 (57501) - http://www.bohemiancoding.com/sketch -->
    <title>歌曲冠名</title>
    <desc>Created with Sketch.</desc>
    <defs>
        <linearGradient x1="12.1835938%" y1="93.4414062%" x2="92.5117188%" y2="5.921875%" id="linearGradient-1">
            <stop stop-color="#FF872E" offset="0%"></stop>
            <stop stop-color="#FFCF19" offset="100%"></stop>
        </linearGradient>
    </defs>
    <g id="Page-1" stroke="none" stroke-width="1" fill="none" fill-rule="evenodd">
        <g id="会员结果页" transform="translate(-418.000000, -854.000000)">
            <g id="VIP免费畅玩-Copy" transform="translate(45.000000, 765.000000)">
                <g id="歌曲冠名" transform="translate(373.000000, 89.000000)">
                    <circle id="Oval-5" fill="url(#linearGradient-1)" cx="50" cy="50" r="50"></circle>
                    <path d="M75.9980852,50.2899672 C74.406045,48.8658662 72.3041394,48 70,48 C65.0294373,48 61,52.0294373 61,57 C61,58.9031913 61.5907424,60.6684074 62.5988662,62.122287 C58.8486609,62.7847733 56,66.0597164 56,70 C56,71.8243464 56.6106613,73.5060652 57.6387286,74.8519011 C55.2235801,75.5953836 52.6585535,75.9969196 50.0001587,76 C35.6474556,75.9833691 24.0166309,64.3525444 24,50.0001587 C24.0144092,35.6465035 35.6465035,24.0144092 50.0001587,24 C64.3347074,24 76,35.6611031 76,50.0001587 C75.9998883,50.096886 75.9992492,50.1934898 75.9980852,50.2899672 Z M50.0001299,43 C46.1345502,43 43.0006237,46.1333029 43,49.9988826 C42.9993763,53.8644623 46.1321076,56.9987527 49.9976873,57.0002079 C53.863267,57.0014032 56.998181,53.8691398 57,50.0037679 C56.9941272,46.1406309 53.8630591,43.0111738 50.0001299,43.0071201 L50.0001299,43 Z M43.5867329,32.25939 C37.9159838,34.3053055 33.5668818,38.9413219 31.8867186,44.7305819 C31.8304148,44.9385949 31.1282362,47.1659902 33.4424041,47.6209907 C35.7521286,48.0718018 36.1810403,45.7315451 36.3456987,45.250773 C37.7905539,41.0637904 41.0834046,37.7757004 45.2723551,36.3370024 C45.6492794,36.2071292 47.7596237,35.1929629 47.0229138,33.264606 C46.2862674,31.3362492 43.9376318,32.1378957 43.5954292,32.2636429 L43.5954292,32.25939 L43.5867329,32.25939 Z" id="Fill-1" fill="#FFFFFF"></path>
                    <circle id="Oval-8" fill="#FFFFFF" cx="70" cy="57" r="5"></circle>
                    <rect id="Rectangle-7" fill="#FFFFFF" x="60" y="65" width="20" height="10" rx="5"></rect>
                </g>
            </g>
        </g>
    </g>
</svg>