<?xml version="1.0" encoding="UTF-8"?>
<svg width="100px" height="100px" viewBox="0 0 100 100" version="1.1" xmlns="http://www.w3.org/2000/svg" xmlns:xlink="http://www.w3.org/1999/xlink">
    <!-- Generator: Sketch 51.1 (57501) - http://www.bohemiancoding.com/sketch -->
    <title>动感礼物</title>
    <desc>Created with Sketch.</desc>
    <defs>
        <linearGradient x1="97.5387008%" y1="3.79539696%" x2="2.50470197%" y2="97.7684227%" id="linearGradient-1">
            <stop stop-color="#8FE446" offset="0%"></stop>
            <stop stop-color="#4ED8A9" offset="100%"></stop>
        </linearGradient>
    </defs>
    <g id="Page-1" stroke="none" stroke-width="1" fill="none" fill-rule="evenodd">
        <g id="会员结果页" transform="translate(-234.000000, -854.000000)">
            <g id="VIP免费畅玩-Copy" transform="translate(45.000000, 765.000000)">
                <g id="动感礼物" transform="translate(189.000000, 89.000000)">
                    <circle id="Oval-5-Copy-2" fill="url(#linearGradient-1)" cx="50" cy="50" r="50"></circle>
                    <g id="Group-12" transform="translate(25.000000, 27.000000)" fill="#FFFFFF">
                        <path d="M36.3864761,0 C36.4487382,0.0373408833 36.5105917,0.0929028103 36.5725269,0.0992760901 C38.2584228,0.297501436 39.6963328,1.00411841 40.9296442,2.16307484 C44.2825613,5.31776666 44.1462712,10.0107103 40.6631103,12.973305 C39.4917342,13.9710501 38.1527735,14.5844374 36.6468818,14.9132333 L13.7027475,14.9192797 C9.67409924,14.1631473 6.71787789,11.490615 7.02142577,7.34422453 C7.24489911,4.33219613 8.75070904,2.16912129 11.3973361,0.818067666 C12.1844361,0.415243695 13.1078263,0.266533832 13.9631532,0.006046445 L15.3078335,0.006046445 C15.4320308,0.0433873283 15.549773,0.0992760901 15.6736434,0.105322535 C17.6505858,0.254114107 19.2930944,1.05363389 20.5451988,2.59678471 C21.468589,3.74364825 22.3610116,4.9150244 23.2658539,6.07994557 C23.8917427,6.87954706 24.511585,7.67906685 25.1563485,8.50955424 C25.2986851,8.35471623 25.391833,8.26156829 25.4723161,8.16261903 C26.7799824,6.46422166 28.1000684,4.77227928 29.3955601,3.06791717 C30.3189503,1.85315368 31.4344377,0.892422598 32.9282364,0.458631024 C33.6224337,0.254114107 34.3412253,0.148791572 35.0417958,0 L36.3864761,0 Z M28.7138643,11.2116615 L29.2714446,11.2116615 C31.4035518,11.2116615 33.5295309,11.2180348 35.6613113,11.2116615 C37.4525298,11.205615 39.0021356,9.60657547 38.9586665,7.80922884 C38.9213256,6.41478789 38.0414045,5.16268352 36.7397846,4.67945817 C35.388731,4.17098483 34.0313041,4.45631167 33.1018675,5.59672022 C31.6266166,7.4001133 30.2260475,9.2656867 28.7138643,11.2116615 Z M21.6172989,11.2116615 C21.5429439,11.0693249 21.5243961,11.0010164 21.4810087,10.9451277 C20.1050339,9.18520362 18.7415606,7.41253302 17.3409915,5.67107515 C16.4792097,4.59864825 15.3203349,4.22074544 13.9941208,4.57413564 C12.1345938,5.07582716 11.1617698,6.69374144 11.508705,8.58995562 C11.7503177,9.91036847 13.1202461,11.1806939 14.4218659,11.1992418 C16.7891308,11.2305362 19.1628507,11.2116615 21.6172989,11.2116615 Z" id="Fill-1"></path>
                        <path d="M44,31.8499728 L44,38 C44,42.418278 40.418278,46 36,46 L14,46 C9.581722,46 6,42.418278 6,38 L6,31.8499728 C2.57663952,31.1550673 4.44355359e-16,28.1284369 0,24.5 L0,21.5 C-5.07265313e-16,17.3578644 3.35786438,14 7.5,14 L42.5,14 C46.6421356,14 50,17.3578644 50,21.5 L50,24.5 C50,28.1284369 47.4233605,31.1550673 44,31.8499728 Z M23,15 C21.8954305,15 21,15.8954305 21,17 L21,33 C21,34.1045695 21.8954305,35 23,35 L27,35 C28.1045695,35 29,34.1045695 29,33 L29,17 C29,15.8954305 28.1045695,15 27,15 L23,15 Z" id="Combined-Shape"></path>
                    </g>
                </g>
            </g>
        </g>
    </g>
</svg>