<?xml version="1.0" encoding="UTF-8"?>
<svg width="100px" height="100px" viewBox="0 0 100 100" version="1.1" xmlns="http://www.w3.org/2000/svg" xmlns:xlink="http://www.w3.org/1999/xlink">
    <!-- Generator: Sketch 51.1 (57501) - http://www.bohemiancoding.com/sketch -->
    <title>照片祝福</title>
    <desc>Created with Sketch.</desc>
    <defs>
        <linearGradient x1="79.0820312%" y1="10.4414062%" x2="20.8085938%" y2="85.2226562%" id="linearGradient-1">
            <stop stop-color="#6DC5F6" offset="0%"></stop>
            <stop stop-color="#4590FA" offset="100%"></stop>
        </linearGradient>
    </defs>
    <g id="Page-1" stroke="none" stroke-width="1" fill="none" fill-rule="evenodd">
        <g id="会员结果页" transform="translate(-600.000000, -854.000000)">
            <g id="VIP免费畅玩-Copy" transform="translate(45.000000, 765.000000)">
                <g id="照片祝福" transform="translate(555.000000, 89.000000)">
                    <circle id="Oval-5-Copy-3" fill="url(#linearGradient-1)" cx="50" cy="50" r="50"></circle>
                    <g id="Group-10" transform="translate(23.000000, 27.000000)" fill="#FFFFFF">
                        <path d="M15.4733394,0.650237889 C11.9790534,1.65781908 9.50952116,4.96792679 9.70802032,8.75551641 L11.343519,39.9626894 C11.3724894,40.5154787 11.4569163,41.0522126 11.5911259,41.5677824 L6.87846202,40.7368126 C2.5273076,39.9695867 -0.378040502,35.8203196 0.389185421,31.4691652 L4.72518987,6.87846202 C5.49241579,2.5273076 9.64168288,-0.378040502 13.9928373,0.389185421 L15.4733394,0.650237889 Z" id="Combined-Shape"></path>
                        <path d="M22.3543575,1.32944448 L43.3255777,0.230389398 C47.7378006,-0.000845405881 51.5020668,3.38851512 51.7333016,7.80073803 L53.2510443,36.7609945 C53.4822791,41.1732174 50.0929186,44.9374837 45.6806957,45.1687185 L24.7094755,46.2677735 C20.2972526,46.4990083 16.5329864,43.1096478 16.3017516,38.6974249 L14.7840088,9.73716841 C14.552774,5.32494551 17.9421346,1.56067928 22.3543575,1.32944448 Z M38.2018565,13.8790735 C36.4409154,13.9713605 34.80909,14.8057226 33.6775955,16.1480817 C32.4044633,14.9399104 30.701884,14.2721304 28.9413505,14.364396 C25.3704543,14.5515388 22.6235454,17.6672615 22.8142679,21.3064628 C22.8205089,21.425548 22.8346997,21.5364484 22.8555791,21.6228966 L22.8601753,21.7105966 C22.89391,22.3542926 23.0858438,23.053039 23.4434394,23.7913065 C23.4526317,23.8146276 23.4626532,23.8459722 23.4802169,23.8691533 C25.6966159,28.414061 33.5668109,33.371471 33.8973433,33.6011398 C34.109056,33.7414261 34.3493094,33.8004425 34.5857184,33.7880529 C34.8304832,33.7752253 35.0628455,33.6836719 35.2587137,33.5216267 C35.5244358,33.2925794 41.7573067,28.3768702 44.0977336,23.90398 C44.1881593,23.7557271 44.2539406,23.6090645 44.3124891,23.4784172 C44.3268234,23.4380278 44.3493856,23.3967093 44.363618,23.3563253 L44.392482,23.2909733 C44.5323658,22.9887467 44.6399699,22.7042462 44.7241702,22.4372061 C44.9570544,21.7395007 45.0551191,21.1130986 45.0255537,20.5489583 C45.0230552,20.5012845 45.0213844,20.4694026 45.0113645,20.4302896 C45.024332,20.3657708 45.0268513,20.261763 45.0206103,20.1426777 C44.8298878,16.5034764 41.7724471,13.6919468 38.2018565,13.8790735 Z" id="Combined-Shape"></path>
                    </g>
                </g>
            </g>
        </g>
    </g>
</svg>