<?xml version="1.0" encoding="UTF-8"?>
<svg width="100px" height="100px" viewBox="0 0 100 100" version="1.1" xmlns="http://www.w3.org/2000/svg" xmlns:xlink="http://www.w3.org/1999/xlink">
    <!-- Generator: Sketch 51.1 (57501) - http://www.bohemiancoding.com/sketch -->
    <title>专属礼物</title>
    <desc>Created with Sketch.</desc>
    <defs>
        <linearGradient x1="85.6622869%" y1="17.3881392%" x2="17.8923825%" y2="86.3052844%" id="linearGradient-1">
            <stop stop-color="#E370EC" offset="0%"></stop>
            <stop stop-color="#F76234" offset="100%"></stop>
        </linearGradient>
    </defs>
    <g id="Page-1" stroke="none" stroke-width="1" fill="none" fill-rule="evenodd">
        <g id="会员详情页修改" transform="translate(-40.000000, -1347.000000)">
            <g id="VIP免费畅玩" transform="translate(30.000000, 1251.000000)">
                <g id="专属礼物" transform="translate(10.000000, 96.000000)">
                    <circle id="Oval-5-Copy" fill="url(#linearGradient-1)" cx="50" cy="50" r="50"></circle>
                    <g id="Group-12" transform="translate(25.000000, 27.000000)" fill="#FFFFFF">
                        <path d="M36.3864761,0 C36.4487382,0.0373408833 36.5105917,0.0929028103 36.5725269,0.0992760901 C38.2584228,0.297501436 39.6963328,1.00411841 40.9296442,2.16307484 C44.2825613,5.31776666 44.1462712,10.0107103 40.6631103,12.973305 C39.4917342,13.9710501 38.1527735,14.5844374 36.6468818,14.9132333 L13.7027475,14.9192797 C9.67409924,14.1631473 6.71787789,11.490615 7.02142577,7.34422453 C7.24489911,4.33219613 8.75070904,2.16912129 11.3973361,0.818067666 C12.1844361,0.415243695 13.1078263,0.266533832 13.9631532,0.006046445 L15.3078335,0.006046445 C15.4320308,0.0433873283 15.549773,0.0992760901 15.6736434,0.105322535 C17.6505858,0.254114107 19.2930944,1.05363389 20.5451988,2.59678471 C21.468589,3.74364825 22.3610116,4.9150244 23.2658539,6.07994557 C23.8917427,6.87954706 24.511585,7.67906685 25.1563485,8.50955424 C25.2986851,8.35471623 25.391833,8.26156829 25.4723161,8.16261903 C26.7799824,6.46422166 28.1000684,4.77227928 29.3955601,3.06791717 C30.3189503,1.85315368 31.4344377,0.892422598 32.9282364,0.458631024 C33.6224337,0.254114107 34.3412253,0.148791572 35.0417958,0 L36.3864761,0 Z M28.7138643,11.2116615 L29.2714446,11.2116615 C31.4035518,11.2116615 33.5295309,11.2180348 35.6613113,11.2116615 C37.4525298,11.205615 39.0021356,9.60657547 38.9586665,7.80922884 C38.9213256,6.41478789 38.0414045,5.16268352 36.7397846,4.67945817 C35.388731,4.17098483 34.0313041,4.45631167 33.1018675,5.59672022 C31.6266166,7.4001133 30.2260475,9.2656867 28.7138643,11.2116615 Z M21.6172989,11.2116615 C21.5429439,11.0693249 21.5243961,11.0010164 21.4810087,10.9451277 C20.1050339,9.18520362 18.7415606,7.41253302 17.3409915,5.67107515 C16.4792097,4.59864825 15.3203349,4.22074544 13.9941208,4.57413564 C12.1345938,5.07582716 11.1617698,6.69374144 11.508705,8.58995562 C11.7503177,9.91036847 13.1202461,11.1806939 14.4218659,11.1992418 C16.7891308,11.2305362 19.1628507,11.2116615 21.6172989,11.2116615 Z" id="Fill-1"></path>
                        <path d="M44,31.8499728 L44,38 C44,42.418278 40.418278,46 36,46 L14,46 C9.581722,46 6,42.418278 6,38 L6,31.8499728 C2.57663952,31.1550673 4.44355359e-16,28.1284369 0,24.5 L0,21.5 C-5.07265313e-16,17.3578644 3.35786438,14 7.5,14 L42.5,14 C46.6421356,14 50,17.3578644 50,21.5 L50,24.5 C50,28.1284369 47.4233605,31.1550673 44,31.8499728 Z M33.3857088,27.8782748 C34.588422,26.6612505 33.9251443,24.5400887 32.2632879,24.285035 L29.5542276,23.8760332 C28.8934723,23.7774546 28.3224608,23.3457428 28.0285217,22.7245174 L26.8161138,20.1741074 C26.0727261,18.6086309 23.9273227,18.6086309 23.183935,20.1741074 L21.9714968,22.7245174 C21.6750656,23.3457428 21.1065462,23.7774546 20.4456693,23.8760332 L17.736761,24.285035 C16.0748742,24.5350034 15.4116268,26.6586605 16.6141881,27.8758112 L18.5749982,29.8631133 C19.0535306,30.3478889 19.2698215,31.0448565 19.1579836,31.7265367 L18.6964395,34.5319687 C18.4145959,36.2516777 20.1492381,37.5646907 21.6362566,36.7516144 L24.0561187,35.4309262 C24.6461243,35.1076793 25.3515236,35.1076793 25.9414077,35.4309262 L28.3637618,36.7540781 C29.8506588,37.5646907 31.5877931,36.2541414 31.3036093,34.5345587 L30.8419133,31.7291267 C30.730197,31.0448565 30.9488887,30.3504789 31.4250507,29.8655769 L33.3857088,27.8782748 Z" id="Combined-Shape"></path>
                    </g>
                </g>
            </g>
        </g>
    </g>
</svg>