<?xml version="1.0" encoding="UTF-8"?>
<svg width="50px" height="46px" viewBox="0 0 50 46" version="1.1" xmlns="http://www.w3.org/2000/svg" xmlns:xlink="http://www.w3.org/1999/xlink">
    <!-- Generator: Sketch 51.1 (57501) - http://www.bohemiancoding.com/sketch -->
    <title>账单详情</title>
    <desc>Created with Sketch.</desc>
    <defs></defs>
    <g id="Page-1" stroke="none" stroke-width="1" fill="none" fill-rule="evenodd">
        <g id="我的非会员定稿" transform="translate(-105.000000, -2419.000000)">
            <g id="Group-19" transform="translate(74.000000, 2419.000000)">
                <g id="Group-30" transform="translate(31.000000, 0.000000)">
                    <path d="M8,1.5 C4.41014913,1.5 1.5,4.41014913 1.5,8 L1.5,35 C1.5,38.5898509 4.41014913,41.5 8,41.5 L42,41.5 C45.5898509,41.5 48.5,38.5898509 48.5,35 L48.5,8 C48.5,4.41014913 45.5898509,1.5 42,1.5 L8,1.5 Z" id="Rectangle-19" stroke="#333333" stroke-width="3"></path>
                    <path d="M23.3448959,17.0829164 L17.7241965,12.462217 C17.1447148,11.882792 17.1447148,11.0138241 17.7241965,10.4343991 C18.3033952,9.85520031 19.1723065,9.85520031 19.7517316,10.4343991 L24.7930059,14.4758997 L29.8345066,10.4343991 C30.4137053,9.85520031 31.2826732,9.85520031 31.8620982,10.4343991 C32.441297,11.0138241 32.441297,11.882792 31.8620982,12.462217 L26.2413988,17.0829164 L26.2413988,18.241314 L30.1379018,18.241314 C31.0068131,18.241314 31.5862947,18.8207956 31.5862947,19.6897069 C31.5862947,20.5586182 31.0068131,21.1380998 30.1379018,21.1380998 L26.2413988,21.1380998 L26.2413988,31.0346027 C26.2413988,31.903514 25.6619738,32.4827128 24.7930059,32.4827128 C23.9240946,32.4827128 23.3448959,31.903514 23.3448959,31.0346027 L23.3448959,21.1380998 L19.44811,21.1380998 C18.5791988,21.1380998 18,20.5586182 18,19.6897069 C18,18.8207956 18.5791988,18.241314 19.44811,18.241314 L23.3448959,18.241314 L23.3448959,17.0829164 Z" id="Path" fill="#333333"></path>
                    <rect id="Rectangle-20" fill="#333333" x="18" y="23" width="13.6304932" height="3" rx="1.5"></rect>
                </g>
            </g>
        </g>
    </g>
</svg>