<?xml version="1.0" encoding="UTF-8"?>
<svg width="50px" height="46px" viewBox="0 0 50 46" version="1.1" xmlns="http://www.w3.org/2000/svg" xmlns:xlink="http://www.w3.org/1999/xlink">
    <!-- Generator: Sketch 51.1 (57501) - http://www.bohemiancoding.com/sketch -->
    <title>意见反馈</title>
    <desc>Created with Sketch.</desc>
    <defs></defs>
    <g id="Page-1" stroke="none" stroke-width="1" fill="none" fill-rule="evenodd">
        <g id="我的非会员定稿" transform="translate(-595.000000, -2419.000000)">
            <g id="Group-18" transform="translate(564.000000, 2419.000000)">
                <g id="意见反馈" transform="translate(31.000000, 0.000000)">
                    <path d="M8,1.5 C4.41014913,1.5 1.5,4.41014913 1.5,8 L1.5,32 C1.5,35.5898509 4.41014913,38.5 8,38.5 L17.6986613,38.5 L18.1291681,38.8959322 C20.0353342,40.6490114 21.6180082,41.9545106 22.864063,42.8066359 C23.9464615,43.5468434 24.712384,43.8930664 25,43.8930664 C25.2929315,43.8930664 26.0788494,43.5428924 27.1918081,42.7981554 C28.4683762,41.9439391 30.0954681,40.6364651 32.0602815,38.8813303 L32.4871678,38.5 L42,38.5 C45.5898509,38.5 48.5,35.5898509 48.5,32 L48.5,8 C48.5,4.41014913 45.5898509,1.5 42,1.5 L8,1.5 Z" id="Rectangle-19-Copy-3" stroke="#333333" stroke-width="3"></path>
                    <rect id="Rectangle-21-Copy" fill="#333333" x="24" y="12" width="16" height="4" rx="2"></rect>
                    <rect id="Rectangle-21-Copy-2" fill="#333333" x="10" y="12" width="8" height="4" rx="2"></rect>
                    <rect id="Rectangle-21" fill="#333333" x="13" y="23" width="25" height="4" rx="2"></rect>
                </g>
            </g>
        </g>
    </g>
</svg>