<?xml version="1.0" encoding="UTF-8"?>
<svg width="50px" height="46px" viewBox="0 0 50 46" version="1.1" xmlns="http://www.w3.org/2000/svg" xmlns:xlink="http://www.w3.org/1999/xlink">
    <!-- Generator: Sketch 51.1 (57501) - http://www.bohemiancoding.com/sketch -->
    <title>帮助中心</title>
    <desc>Created with Sketch.</desc>
    <defs></defs>
    <g id="Page-1" stroke="none" stroke-width="1" fill="none" fill-rule="evenodd">
        <g id="我的非会员定稿" transform="translate(-350.000000, -2419.000000)">
            <g id="Group-15" transform="translate(319.000000, 2419.000000)">
                <g id="帮助中心" transform="translate(31.000000, 0.000000)">
                    <path d="M8,1.5 C4.41014913,1.5 1.5,4.41014913 1.5,8 L1.5,32 C1.5,35.5898509 4.41014913,38.5 8,38.5 L17.6986613,38.5 L18.1291681,38.8959322 C20.0353342,40.6490114 21.6180082,41.9545106 22.864063,42.8066359 C23.9464615,43.5468434 24.712384,43.8930664 25,43.8930664 C25.2929315,43.8930664 26.0788494,43.5428924 27.1918081,42.7981554 C28.4683762,41.9439391 30.0954681,40.6364651 32.0602815,38.8813303 L32.4871678,38.5 L42,38.5 C45.5898509,38.5 48.5,35.5898509 48.5,32 L48.5,8 C48.5,4.41014913 45.5898509,1.5 42,1.5 L8,1.5 Z" id="Rectangle-19-Copy" stroke="#333333" stroke-width="3"></path>
                    <path d="M31.5602731,17.3328239 C31.2587615,17.9019145 30.9073329,18.395924 30.4929257,18.8101485 C30.0827659,19.2245557 29.3418657,19.923531 28.2747011,20.9029184 C27.9817754,21.1790833 27.7431053,21.4219093 27.5673682,21.631168 C27.3916311,21.8404268 27.2576817,22.032879 27.1697218,22.2045059 C27.0819446,22.3761327 27.0148558,22.5518699 26.9688207,22.7275614 C26.9228312,22.9034812 26.8516321,23.2088747 26.7554973,23.6441986 C26.592228,24.5734407 26.0732828,25.0337003 25.206791,25.0337003 C24.7549346,25.0337003 24.3781593,24.8831728 24.0684728,24.577551 C23.7587407,24.2719748 23.6080306,23.824183 23.6080306,23.2256811 C23.6080306,22.4765605 23.7211088,21.8277306 23.9471283,21.2795111 C24.1730108,20.7312916 24.4701838,20.2499782 24.8427118,19.8355711 C25.2151942,19.4213466 25.7173786,18.9273371 26.3494477,18.3581095 C26.9060248,17.8601724 27.3036712,17.4833971 27.5506074,17.2281032 C27.797498,16.9728551 28.0067567,16.6923973 28.1742733,16.3786005 C28.3416072,16.0646211 28.4295671,15.7297706 28.4295671,15.3615355 C28.4295671,14.6499097 28.1699804,14.0472976 27.6553281,13.557581 C27.1404475,13.0679101 26.4750395,12.8209738 25.6588757,12.8209738 C24.7046066,12.8209738 24.0015667,13.0679101 23.5535922,13.5618739 C23.1017359,14.0557008 22.7208503,14.7839047 22.4111638,15.7465314 C22.1180555,16.7551931 21.5573225,17.2573775 20.7328011,17.2573775 C20.2471948,17.2573775 19.8370349,17.0816404 19.5021844,16.7300291 C19.1673339,16.3786005 19,15.9977149 19,15.5876007 C19,14.7419799 19.263697,13.8840739 19.7909998,13.0134718 C20.3183482,12.1429153 21.0925872,11.4230689 22.105542,10.8537957 C23.118314,10.2847051 24.3028499,10 25.6547654,10 C26.9103177,10 28.0235175,10.23867 28.9820339,10.7157361 C29.9447062,11.1929391 30.689671,11.8415864 31.2127264,12.6618605 C31.7359646,13.4823173 31.9996616,14.3737448 31.9996616,15.3364172 C32.0080192,16.0938497 31.8615564,16.7594861 31.5602731,17.3328239 M25.5040096,31.2196658 C24.3069602,31.2196658 23.335976,30.2277649 23.335976,29.0098444 C23.335976,27.7876309 24.3069602,26.8000229 25.5040096,26.8000229 C26.701059,26.8000229 27.6720889,27.7876309 27.6720889,29.0098444 C27.6720889,30.2318751 26.701059,31.2196658 25.5040096,31.2196658" id="Fill-1" fill="#333333"></path>
                </g>
            </g>
        </g>
    </g>
</svg>