<svg xmlns="http://www.w3.org/2000/svg" width="25.907" height="28" viewBox="0 0 25.907 28">
  <metadata><?xpacket begin="﻿" id="W5M0MpCehiHzreSzNTczkc9d"?>
<x:xmpmeta xmlns:x="adobe:ns:meta/" x:xmptk="Adobe XMP Core 5.6-c138 79.159824, 2016/09/14-01:09:01        ">
   <rdf:RDF xmlns:rdf="http://www.w3.org/1999/02/22-rdf-syntax-ns#">
      <rdf:Description rdf:about=""/>
   </rdf:RDF>
</x:xmpmeta>
                                                                                                    
                                                                                                    
                                                                                                    
                                                                                                    
                                                                                                    
                                                                                                    
                                                                                                    
                                                                                                    
                                                                                                    
                                                                                                    
                                                                                                    
                                                                                                    
                                                                                                    
                                                                                                    
                                                                                                    
                                                                                                    
                                                                                                    
                                                                                                    
                                                                                                    
                                                                                                    
                           
<?xpacket end="w"?></metadata>
<defs>
    <style>
      .cls-1 {
        fill: #11b72c;
        fill-rule: evenodd;
      }
    </style>
  </defs>
  <path id="圆角矩形_511_拷贝_3" data-name="圆角矩形 511 拷贝 3" class="cls-1" d="M637.656,477h22.657a1.625,1.625,0,0,1,0,3.25H637.656A1.625,1.625,0,0,1,637.656,477Zm11.331,8.125a1.629,1.629,0,0,1,1.629,1.629v16.617a1.629,1.629,0,0,1-3.258,0V486.754A1.629,1.629,0,0,1,648.987,485.125Zm1.152-3.365a1.622,1.622,0,0,1,0,2.3l-9.366,9.341a1.627,1.627,0,1,1-2.3-2.3l9.366-9.341A1.63,1.63,0,0,1,650.139,481.76Zm0,0L660.505,492.1a1.627,1.627,0,1,1-2.3,2.3l-10.365-10.341A1.627,1.627,0,1,1,650.139,481.76Z" transform="translate(-636.031 -477)"/>
</svg>
