<?xml version="1.0" encoding="UTF-8"?>
<svg width="100px" height="100px" viewBox="0 0 100 100" version="1.1" xmlns="http://www.w3.org/2000/svg" xmlns:xlink="http://www.w3.org/1999/xlink">
    <!-- Generator: Sketch 51.1 (57501) - http://www.bohemiancoding.com/sketch -->
    <title>Group 12</title>
    <desc>Created with Sketch.</desc>
    <defs>
        <linearGradient x1="79.0820312%" y1="10.4414062%" x2="20.8085938%" y2="85.2226562%" id="linearGradient-1">
            <stop stop-color="#68F0F5" offset="0%"></stop>
            <stop stop-color="#4590FA" offset="100%"></stop>
        </linearGradient>
    </defs>
    <g id="Page-2" stroke="none" stroke-width="1" fill="none" fill-rule="evenodd">
        <g id="首页新版本按钮" transform="translate(-620.000000, -260.000000)">
            <g id="按钮入口" transform="translate(27.000000, 260.000000)">
                <g id="Group-12" transform="translate(593.000000, 0.000000)">
                    <circle id="Oval-2-Copy-4" fill="url(#linearGradient-1)" cx="50" cy="50" r="50"></circle>
                    <path d="M49.0001587,24 C34.6465035,24.0144092 23.0144092,35.6465035 23,50.0001587 C23.0166309,64.3525444 34.6474556,75.9833691 49.0001587,76 C63.3525444,75.9833691 74.9834326,64.3525444 75,50.0001587 C75,35.6611031 63.3347074,24 49.0001587,24 Z M49.0001587,41.4459197 C44.2788297,41.4459197 40.4511248,45.2728629 40.4503631,49.9941919 C40.4496014,54.7155209 44.2758463,58.5436701 48.9971753,58.5454474 C53.7185043,58.5469074 57.5474152,54.7212338 57.5496369,50.0001587 C57.542464,45.2818131 53.7182504,41.4595672 49.0001587,41.454616 L49.0001587,41.4459197 Z M49.0001587,54.1427077 C47.4873834,54.1930447 46.067284,53.4154558 45.2951542,52.1136769 C44.5227704,50.8122153 44.5210565,49.1930532 45.2907108,47.8897508 C46.0601112,46.586258 47.4786871,45.8056858 48.9914624,45.8531028 C51.2815726,45.8505638 53.1402321,47.7052877 53.1427077,49.9956519 C53.1451833,52.286016 51.2902689,54.1447389 49.0001587,54.1469606 L49.0001587,54.1427077 Z M42.5867329,32.25939 C36.9159838,34.3053055 32.5668818,38.9413219 30.8867186,44.7305819 C30.8304148,44.9385949 30.1282362,47.1659902 32.4424041,47.6209907 C34.7521286,48.0718018 35.1810403,45.7315451 35.3456987,45.250773 C36.7905539,41.0637904 40.0834046,37.7757004 44.2723551,36.3370024 C44.6492794,36.2071292 46.7596237,35.1929629 46.0229138,33.264606 C45.2862674,31.3362492 42.9376318,32.1378957 42.5954292,32.2636429 L42.5954292,32.25939 L42.5867329,32.25939 Z" id="Fill-1" fill="#FFFFFF"></path>
                </g>
            </g>
        </g>
    </g>
</svg>