<?xml version="1.0" encoding="UTF-8"?>
<svg width="100px" height="100px" viewBox="0 0 100 100" version="1.1" xmlns="http://www.w3.org/2000/svg" xmlns:xlink="http://www.w3.org/1999/xlink">
    <!-- Generator: Sketch 51.1 (57501) - http://www.bohemiancoding.com/sketch -->
    <title>Group 12 Copy 3</title>
    <desc>Created with Sketch.</desc>
    <defs>
        <linearGradient x1="15.7350852%" y1="89.7549716%" x2="90.5859375%" y2="13.4055398%" id="linearGradient-1">
            <stop stop-color="#46BCEC" offset="0%"></stop>
            <stop stop-color="#4ED8A9" offset="100%"></stop>
        </linearGradient>
    </defs>
    <g id="Page-2" stroke="none" stroke-width="1" fill="none" fill-rule="evenodd">
        <g id="首页老新版本按钮" transform="translate(-178.000000, -260.000000)">
            <g id="按钮入口" transform="translate(26.000000, 260.000000)">
                <g id="Group-12-Copy-3" transform="translate(152.000000, 0.000000)">
                    <circle id="Oval-2-Copy-5" fill="url(#linearGradient-1)" cx="50" cy="50" r="50"></circle>
                    <path d="M28.0871938,55.6553664 C30.5811819,54.2747569 37.146583,52.6609868 41.9445801,53.6801758 C47.6313477,54.8881571 54.6147461,59.1203613 61.376709,59.1203613 C65.5180057,59.1203613 69.4132916,57.3236077 73.0625669,53.7301005 L73.0625669,64.014683 L76.1605466,64.014683 C77.1766074,64.014683 78.6281738,65.3820505 78.6281738,67.4371196 C78.6281738,69.4921887 77.1766074,71 76.1605466,71 L24.8391208,71 C23.8233926,71 22.026123,69.8393365 22.026123,67.4371196 C22.026123,65.0349026 23.8233926,64.014683 24.8391208,64.014683 L28.0871938,64.014683 L28.0871938,55.6553664 Z M28.0871938,48.7679273 L28.0871938,41.458214 C28.0871938,38.3405361 30.515545,35.8127594 33.5061847,35.8127594 L46.1163616,35.7521656 C46.4912206,35.6102599 46.9030832,34.9851639 46.9030832,34.2252706 L46.9030832,30 L54.2499204,30 L54.2499204,34.0017929 C54.2499204,34.8679639 54.8391509,35.7843262 55.9292189,35.7843262 L67.6471516,35.8127594 C70.6341325,35.8127594 73.0625669,38.3405361 73.0625669,41.458214 L73.0625669,46.6411333 C69.0803765,50.8585679 65.2842116,52.9672852 61.6740723,52.9672852 C55.8237305,52.9672852 50.2558594,48.6629561 43.1884766,47.123291 C38.7225905,46.1503752 33.6888296,46.6985873 28.0871938,48.7679273 Z M50.7436297,30.231614 L48.884053,27.2428752 C48.1830633,26.097551 47.9183836,24.7410746 48.1382432,23.4190197 C48.3799724,21.7149425 49.098757,20.7208424 50.1034257,19.7438293 L50.9106032,18.9828389 C51.3601347,18.5501333 51.6840202,18.1377341 51.8815113,17.745311 L53.2779193,15 L54.9263676,17.6069641 C55.7030275,18.8238555 55.992404,20.0953097 55.7914204,21.3766695 C55.5665715,22.8373189 54.8822127,23.7266682 53.8502695,24.6936932 L53.3357115,25.1805488 C52.647777,25.8296071 52.2255201,26.3974402 52.0075731,26.952066 L50.7436297,30.231614 Z" id="Fill-1" fill="#FFFFFF"></path>
                </g>
            </g>
        </g>
    </g>
</svg>