<?xml version="1.0" encoding="UTF-8"?>
<svg width="100px" height="100px" viewBox="0 0 100 100" version="1.1" xmlns="http://www.w3.org/2000/svg" xmlns:xlink="http://www.w3.org/1999/xlink">
    <!-- Generator: Sketch 51.1 (57501) - http://www.bohemiancoding.com/sketch -->
    <title>Group 11</title>
    <desc>Created with Sketch.</desc>
    <defs>
        <linearGradient x1="13.6835938%" y1="88.921875%" x2="87.96875%" y2="11.734375%" id="linearGradient-1">
            <stop stop-color="#EE6730" offset="0%"></stop>
            <stop stop-color="#F7C123" offset="100%"></stop>
        </linearGradient>
    </defs>
    <g id="Page-2" stroke="none" stroke-width="1" fill="none" fill-rule="evenodd">
        <g id="首页新版本按钮" transform="translate(-326.000000, -260.000000)">
            <g id="按钮入口" transform="translate(27.000000, 260.000000)">
                <g id="Group-11" transform="translate(299.000000, 0.000000)">
                    <circle id="Oval-2-Copy-2" fill="url(#linearGradient-1)" cx="50" cy="50" r="50"></circle>
                    <path d="M74,39 L24,39 L24,38.0001391 C24,33.0379286 27.7388013,29 32.3334142,29 L65.6665858,29 C70.2611987,29 74,33.0379286 74,38.0001391 L74,39 Z M74,45 L74,62.0001605 C74,66.9620714 70.2611987,71 65.6665858,71 L32.3334142,71 C27.7388013,71 24,66.9620714 24,62.0001605 L24,45 L74,45 Z M58,58 C56.3431458,58 55,59.3431458 55,61 C55,62.6568542 56.3431458,64 58,64 L66,64 C67.6568542,64 69,62.6568542 69,61 C69,59.3431458 67.6568542,58 66,58 L58,58 Z" id="Fill-1" fill="#FFFFFF"></path>
                </g>
            </g>
        </g>
    </g>
</svg>