<?xml version="1.0" encoding="UTF-8"?>
<svg width="38px" height="34px" viewBox="0 0 38 34" version="1.1" xmlns="http://www.w3.org/2000/svg" xmlns:xlink="http://www.w3.org/1999/xlink">
    <!-- Generator: Sketch 52.5 (67469) - http://www.bohemiancoding.com/sketch -->
    <title>Fill 1</title>
    <desc>Created with Sketch.</desc>
    <g id="Page-2" stroke="none" stroke-width="1" fill="none" fill-rule="evenodd">
        <g id="首页老新版本按钮-copy-4" transform="translate(-140.000000, -1687.000000)" fill="#7A581E">
            <g id="分组-4" transform="translate(140.000000, 1681.000000)">
                <path d="M19.504608,37.0065692 L30.1726184,37.0065692 C31.1240418,37.0065692 31.8833333,37.5714686 31.9881198,38.3311582 C32.0928593,39.0974301 31.4954594,39.7946071 30.5746045,39.9667335 C30.4436566,39.996295 30.3041289,40 30.1726184,40 L8.82797092,40 C8.01668471,40 7.3315642,39.5924463 7.09582986,38.9764253 C6.85170323,38.3599313 7.0780607,37.6635426 7.72858059,37.3108155 C8.0648349,37.1315944 8.50953264,37.0065692 8.90232944,37.0065692 C12.441017,36.9917885 15.9749223,37.0065692 19.504608,37.0065692 M0,15.6381352 L0.122025579,15.277547 C0.435531694,14.2969586 1.25350998,13.6399978 2.25048094,13.5672527 C3.15994333,13.4984781 4.07015406,14.0551449 4.49679926,14.9311744 C4.93233096,15.8253902 4.81011829,16.8791158 4.17889667,17.6638217 C4.1010697,17.7542139 4.02413138,17.8455374 3.94812848,17.9374492 C5.71083451,19.0685278 7.46507498,20.1868122 9.21042895,21.3132829 C9.87214528,21.7420085 10.538071,22.1711262 11.1998341,22.5862733 C11.5783987,22.8189203 11.8701563,22.7507341 12.0747795,22.3625968 C14.0888329,18.5164689 16.1012962,14.6692136 18.1118886,10.8211739 C17.2369432,10.3556837 16.6711075,9.64377183 16.6190513,8.59038936 C16.5843472,7.85146771 16.8322804,7.21730098 17.3330576,6.7020068 C18.3253047,5.68906551 19.9533102,5.78519298 20.8242333,6.90705584 C21.8248992,8.19367363 21.4640608,9.6989189 19.8751091,10.8305367 C20.3941738,11.828576 20.9165125,12.8244585 21.4421252,13.8186743 C22.9004454,16.6014687 24.3495986,19.3749004 25.8077317,22.1575477 C26.1426122,22.8007341 26.3558413,22.8600968 26.9572698,22.4863223 C29.2115859,21.0444594 31.4619265,19.593969 33.7164298,18.1476943 C33.8212904,18.0795081 33.9216142,18.0107826 34.0430786,17.9330374 C33.5775667,17.4453413 33.2812255,16.8932824 33.2465214,16.2131353 C33.1809484,14.940145 34.0169803,13.8268605 35.1878927,13.6175958 C36.4068389,13.3939193 37.5386507,14.1238704 37.8996762,15.3598999 C37.9258212,15.4554391 37.9651088,15.5561744 38,15.6515176 L38,16.5093608 C37.6165244,17.7955374 36.8290876,18.5438708 35.475628,18.5528905 C35.42722,18.6987728 35.3754912,18.8447042 35.3360633,18.9909787 C34.0174948,23.7307832 32.6978506,28.4795582 31.3798902,33.2199019 C31.2103453,33.8402941 31.0007643,34 30.4042468,34 L7.62587373,34 C6.98604624,34 6.79002891,33.8447059 6.61608751,33.2199019 C5.54072832,29.3741662 4.47888596,25.5146069 3.40366709,21.6686751 C3.11686723,20.6289201 2.82052608,19.588969 2.5289088,18.5438708 C1.51898226,18.5438708 0.757643676,18.124312 0.282637245,17.2117138 C0.16954493,16.9880864 0.0955531842,16.737253 0.00439647543,16.4999981 C0,16.2041647 0,15.9209294 0,15.6381352" id="Fill-1"></path>
            </g>
        </g>
    </g>
</svg>