<?xml version="1.0" encoding="UTF-8"?>
<svg width="100px" height="100px" viewBox="0 0 100 100" version="1.1" xmlns="http://www.w3.org/2000/svg" xmlns:xlink="http://www.w3.org/1999/xlink">
    <!-- Generator: Sketch 51.1 (57501) - http://www.bohemiancoding.com/sketch -->
    <title>Group 23</title>
    <desc>Created with Sketch.</desc>
    <defs>
        <linearGradient x1="85.6622869%" y1="17.3881392%" x2="17.8923825%" y2="86.3052844%" id="linearGradient-1">
            <stop stop-color="#E370EC" offset="0%"></stop>
            <stop stop-color="#F76234" offset="100%"></stop>
        </linearGradient>
    </defs>
    <g id="Page-2" stroke="none" stroke-width="1" fill="none" fill-rule="evenodd">
        <g id="首页老新版本按钮" transform="translate(-473.000000, -260.000000)">
            <g id="按钮入口" transform="translate(26.000000, 260.000000)">
                <g id="Group-23" transform="translate(447.000000, 0.000000)">
                    <circle id="Oval-2-Copy-3" fill="url(#linearGradient-1)" cx="50" cy="50" r="50"></circle>
                    <path d="M50.0001587,76 C35.6405367,76 24,64.3594633 24,50.0001587 C24,35.6405367 35.6405367,24 50.0001587,24 C64.3594633,24 76,35.6405367 76,50.0001587 C76,64.3594633 64.3594633,76 50.0001587,76 Z M36.8306061,57.4254864 C37.8285217,63.6556138 43.267506,67.3970046 49.8043619,67.3970046 C56.3409133,67.3970046 61.7798976,63.6556138 62.7780568,57.4254864 C62.9277168,56.3788679 62.7780568,54.4387193 61.0315979,54.4387193 L38.577065,54.4387193 C36.8306061,54.4387193 36.6809461,56.3788679 36.8306061,57.4254864 Z M34.2774976,46.8868212 C35.7696501,47.9125384 37.3523884,48.6585921 38.5735014,49.0314198 C39.2969175,49.2646434 39.8396589,49.3578076 40.1562397,49.2646434 C40.9702414,49.1248117 43.186086,47.3532115 44.859134,44.9753892 C45.9897165,43.3902882 46.8940279,41.525353 47.0296581,39.660361 C47.1655091,37.8887607 46.4871375,36.1638849 44.9947641,35.0914433 C43.999867,34.3922847 42.7336543,34.0658969 41.4674968,34.2988928 C39.8847585,34.5787839 38.6638663,35.6043304 38.03076,36.9563785 C37.3073439,36.2569923 36.3576568,35.7441621 35.3627597,35.6043304 C33.599126,35.3713344 31.8354371,36.1638849 30.84054,37.6090973 C29.8005431,39.1010341 29.7552779,40.9659692 30.4789147,42.5977377 C31.202386,44.3226705 32.6494941,45.7678828 34.2774976,46.8868212 Z M55.6232508,44.882225 C56.6632476,46.3739341 57.9294603,47.6795424 58.879313,48.4254254 C59.4670989,48.8915881 59.9645751,49.1712515 60.2811007,49.2179759 C61.0951024,49.3578076 63.7178375,48.4720929 66.0693122,46.7936569 C67.6520505,45.6747755 69.0991034,44.2295062 69.8227954,42.5044028 C70.5462115,40.8259668 70.4559018,38.9612023 69.4609494,37.4225981 C68.7825778,36.396824 67.6973157,35.6509979 66.4311031,35.4177743 C64.8936853,35.1381108 63.4013119,35.6976654 62.3613151,36.7698793 C61.9089386,35.8374971 61.2307326,35.0449466 60.3262003,34.5321164 C58.7887273,33.6928985 56.8894635,33.8327302 55.4423554,34.8584474 C53.9952473,35.9306613 53.3170965,37.7022615 53.4527267,39.4740894 C53.6336221,41.3855213 54.4927235,43.2968963 55.6232508,44.882225 Z" id="Combined-Shape" fill="#FFFFFF"></path>
                </g>
            </g>
        </g>
    </g>
</svg>