<?xml version="1.0" encoding="UTF-8"?>
<svg width="100px" height="100px" viewBox="0 0 100 100" version="1.1" xmlns="http://www.w3.org/2000/svg" xmlns:xlink="http://www.w3.org/1999/xlink">
    <!-- Generator: Sketch 51.1 (57501) - http://www.bohemiancoding.com/sketch -->
    <title>Group 23</title>
    <desc>Created with Sketch.</desc>
    <defs>
        <linearGradient x1="85.6622869%" y1="17.3881392%" x2="17.8923825%" y2="86.3052844%" id="linearGradient-1">
            <stop stop-color="#E370EC" offset="0%"></stop>
            <stop stop-color="#F76234" offset="100%"></stop>
        </linearGradient>
    </defs>
    <g id="Page-2" stroke="none" stroke-width="1" fill="none" fill-rule="evenodd">
        <g id="首页新版本按钮" transform="translate(-473.000000, -260.000000)">
            <g id="按钮入口" transform="translate(27.000000, 260.000000)">
                <g id="Group-23" transform="translate(446.000000, 0.000000)">
                    <circle id="Oval-2-Copy-3" fill="url(#linearGradient-1)" cx="50" cy="50" r="50"></circle>
                    <g id="Group-26" transform="translate(27.000000, 22.000000)" fill="#FFFFFF">
                        <path d="M8,11 L38,11 C42.418278,11 46,14.581722 46,19 L46,45 C46,49.418278 42.418278,53 38,53 L8,53 C3.581722,53 5.41083001e-16,49.418278 0,45 L0,19 C-5.41083001e-16,14.581722 3.581722,11 8,11 Z M17.242062,37.2247062 C15.6997036,36.6281486 14.2672084,37.2305656 14.0205043,38.8990226 C13.7738002,40.5674796 15.8186,41.7518058 16.646603,42.2247062 C17.4746059,42.6976066 19.0560858,43.3990226 22.787228,43.3990226 C26.5183701,43.3990226 27.6311,42.6630607 28.4670375,42.2247062 C29.302975,41.7863517 31.669186,40.4087882 31.3107875,38.7166496 C30.9523891,37.0245109 29.6076625,36.7579093 28.242062,37.2247062 C26.8764614,37.6915031 26.5560858,38.8990226 22.787228,38.8990226 C19.0183701,38.8990226 18.7844204,37.8212638 17.242062,37.2247062 Z M39,28.5 C39,25.4623723 36.5377351,23 33.5,23 C30.4623723,23 28,25.4623723 28,28.5 C28,31.5377351 30.4623723,34 33.5,34 C36.5377351,34 39,31.5377351 39,28.5 Z M18,28.5 C18,25.4623723 15.5376277,23 12.5,23 C9.46237231,23 7,25.4623723 7,28.5 C7,31.5377351 9.46237231,34 12.5,34 C15.5376277,34 18,31.5377351 18,28.5 Z" id="Fill-1"></path>
                        <path d="M9.25616211,13 C6.79356162,11.4231632 5.34540686,9.35922112 5.05951967,7.24725458 C4.62876028,4.07582401 6.56575944,1.3659731 9.90893787,0.3719878 C10.4863846,0.200169188 11.1147692,0.093728415 11.7436076,0.093728415 C17.5445082,0.093728415 20.7950002,7.66696417 22.1177957,10.9774235 L23.8568293,10.9774235 C25.06527,7.71498863 28.452239,0 34.2535935,0 C34.8798226,0 35.4859715,0.0803098152 36.0878094,0.256870339 C39.4335971,1.24419679 41.3803528,3.96070655 40.9376814,7.13173355 C40.6394285,9.26781321 39.2036395,11.4212462 36.5841414,13 L9.25616211,13 Z M33.6667438,4 C31.5931855,4 29.4229632,7.5521966 28,11 C33.328656,10.6611462 35.7632893,8.0447561 35.9819619,6.29913881 C36.1495912,4.93625891 35.1154055,4.35084261 34.269007,4.07781422 C34.055757,4.00972678 33.8347268,4 33.6667438,4 Z M10.721666,4.1042927 C9.83158351,4.31321599 8.88045267,4.99078067 9.01231238,6.28948385 C9.19251674,8.03520402 11.6598579,10.6599788 17,11 C15.5089618,7.58863753 13.368741,4 11.3226217,4 C11.1071292,4 10.9141036,4.02680525 10.721666,4.1042927 Z" id="Combined-Shape-Copy-2"></path>
                    </g>
                </g>
            </g>
        </g>
    </g>
</svg>