<?xml version="1.0" encoding="UTF-8"?>
<svg width="100px" height="100px" viewBox="0 0 100 100" version="1.1" xmlns="http://www.w3.org/2000/svg" xmlns:xlink="http://www.w3.org/1999/xlink">
    <!-- Generator: Sketch 51.1 (57501) - http://www.bohemiancoding.com/sketch -->
    <title>Group 3 Copy 3</title>
    <desc>Created with Sketch.</desc>
    <defs>
        <linearGradient x1="15.7350852%" y1="89.7549716%" x2="90.5859375%" y2="13.4055398%" id="linearGradient-1">
            <stop stop-color="#46BCEC" offset="0%"></stop>
            <stop stop-color="#4ED8A9" offset="100%"></stop>
        </linearGradient>
    </defs>
    <g id="Page-2" stroke="none" stroke-width="1" fill="none" fill-rule="evenodd">
        <g id="首页新版本按钮" transform="translate(-178.000000, -260.000000)">
            <g id="按钮入口" transform="translate(27.000000, 260.000000)">
                <g id="Group-3-Copy-3" transform="translate(151.000000, 0.000000)">
                    <circle id="Oval-2-Copy" fill="url(#linearGradient-1)" cx="50" cy="50" r="50"></circle>
                    <g id="Group-25-Copy" transform="translate(24.000000, 27.000000)" fill="#FFFFFF">
                        <path d="M47,14.2025024 C46.9007511,14.1966291 46.8007234,14.1936508 46.7,14.1936508 L36.02,14.1936508 C33.2585763,14.1936508 31.02,16.432227 31.02,19.1936508 L31.02,34 L8,34 C3.581722,34 2.31743984e-15,30.418278 1.77635684e-15,26 L0,8 C-5.41083001e-16,3.581722 3.581722,8.11624501e-16 8,0 L39,0 C43.418278,-8.11624501e-16 47,3.581722 47,8 L47,14.2025024 Z M30.9727548,14.2798049 C31.9676786,14.2798049 33.7023047,13.6964441 33.7023047,11.9694313 C33.7023047,11.1638988 33.3625356,10.6122432 33.2616797,10.3225224 C33.2552323,10.297827 32.5237066,8.67812595 31.0671027,5.46341911 C30.5673281,4.35451678 29.1791284,3.25475299 27.5832397,4.04770818 C25.9873511,4.84066337 26.5037373,6.67089738 27.0035118,7.78010776 L27.849164,9.65905763 L15.3405042,9.65905763 C14.3458208,9.65905763 13.16,10.694259 13.16,11.9694313 C13.16,13.2449885 14.3458208,14.2798049 15.3405042,14.2798049 L30.9727548,14.2798049 Z M15.8771092,18.8888889 C14.9117694,18.8888889 12.9775537,18.8888889 13.1881997,21.1361966 C13.1971547,21.2317341 13.1927468,21.3220489 13.2020744,21.4118663 C13.225568,21.7354787 13.3002465,22.0591659 13.4352623,22.3588069 L15.6998769,27.5091349 C16.1988408,28.6178816 17.9241431,29.9997152 19.3269141,29.3328857 C20.7296851,28.6660563 20.3962914,26.4937782 19.8973275,25.3850315 L18.9925583,23.3773617 L31.0481997,23.3773617 C31.0481997,21.2314187 31.0481997,19.7352611 31.0481997,18.8888889 L15.8771092,18.8888889 Z" id="Combined-Shape"></path>
                        <path d="M40,19 L49,19 C51.209139,19 53,20.790861 53,23 L53,42 C53,44.209139 51.209139,46 49,46 L40,46 C37.790861,46 36,44.209139 36,42 L36,23 C36,20.790861 37.790861,19 40,19 Z M41.6264368,21.7931034 C40.0838483,21.7931034 38.8333333,23.0436185 38.8333333,24.5862069 C38.8333333,26.1287953 40.0838483,27.3793103 41.6264368,27.3793103 L47.3735632,27.3793103 C48.9161517,27.3793103 50.1666667,26.1287953 50.1666667,24.5862069 C50.1666667,23.0436185 48.9161517,21.7931034 47.3735632,21.7931034 L41.6264368,21.7931034 Z" id="Combined-Shape"></path>
                        <path d="M32,39 L32,45 L14,45 C12.3431458,45 11,43.6568542 11,42 C11,40.3431458 12.3431458,39 14,39 L32,39 Z" id="Combined-Shape"></path>
                    </g>
                </g>
            </g>
        </g>
    </g>
</svg>