<?xml version="1.0" encoding="UTF-8"?>
<svg width="108px" height="115px" viewBox="0 0 108 115" version="1.1" xmlns="http://www.w3.org/2000/svg" xmlns:xlink="http://www.w3.org/1999/xlink">
    <!-- Generator: Sketch 59.1 (86144) - https://sketch.com -->
    <title>编组 29</title>
    <desc>Created with Sketch.</desc>
    <defs>
        <linearGradient x1="50%" y1="29.7052557%" x2="50%" y2="100%" id="linearGradient-1">
            <stop stop-color="#FFC773" offset="0%"></stop>
            <stop stop-color="#FF2911" offset="100%"></stop>
        </linearGradient>
        <path d="M66.9934735,28.996582 C80.0393985,38.0340169 85.0988298,46.460612 82.1717673,54.2763672 C79.2447048,62.0921224 75.4432735,63.3333333 70.7674735,58 C66.19955,65.875 61.9774131,66.7122396 58.1010627,60.5117188 C49.7161836,60.5117188 44.1782639,58.5599366 41.4873034,54.6563724 C38.7980831,58.5599366 33.2601634,60.5117188 24.8752843,60.5117188 C20.9989339,66.7122396 16.776797,65.875 12.2088735,58 C7.5330735,63.3333333 3.73164225,62.0921224 0.804579752,54.2763672 C-2.08883835,46.5504482 2.8216949,38.2276511 15.5361795,29.3079756 L15.9828735,28.996582 L41.488,31.583582 L66.9934735,28.996582 Z" id="path-2"></path>
        <filter x="-3.6%" y="-8.4%" width="107.2%" height="116.8%" filterUnits="objectBoundingBox" id="filter-3">
            <feGaussianBlur stdDeviation="3" in="SourceAlpha" result="shadowBlurInner1"></feGaussianBlur>
            <feOffset dx="0" dy="0" in="shadowBlurInner1" result="shadowOffsetInner1"></feOffset>
            <feComposite in="shadowOffsetInner1" in2="SourceAlpha" operator="arithmetic" k2="-1" k3="1" result="shadowInnerInner1"></feComposite>
            <feColorMatrix values="0 0 0 0 1   0 0 0 0 0.415686275   0 0 0 0 0.0941176471  0 0 0 1 0" type="matrix" in="shadowInnerInner1"></feColorMatrix>
        </filter>
        <circle id="path-4" cx="56" cy="37" r="14"></circle>
        <filter x="-7.1%" y="-7.1%" width="114.3%" height="114.3%" filterUnits="objectBoundingBox" id="filter-5">
            <feGaussianBlur stdDeviation="2" in="SourceAlpha" result="shadowBlurInner1"></feGaussianBlur>
            <feOffset dx="0" dy="0" in="shadowBlurInner1" result="shadowOffsetInner1"></feOffset>
            <feComposite in="shadowOffsetInner1" in2="SourceAlpha" operator="arithmetic" k2="-1" k3="1" result="shadowInnerInner1"></feComposite>
            <feColorMatrix values="0 0 0 0 0   0 0 0 0 0   0 0 0 0 0  0 0 0 0.145951705 0" type="matrix" in="shadowInnerInner1"></feColorMatrix>
        </filter>
        <circle id="path-6" cx="24" cy="37" r="14"></circle>
        <filter x="-7.1%" y="-7.1%" width="114.3%" height="114.3%" filterUnits="objectBoundingBox" id="filter-7">
            <feGaussianBlur stdDeviation="2" in="SourceAlpha" result="shadowBlurInner1"></feGaussianBlur>
            <feOffset dx="0" dy="0" in="shadowBlurInner1" result="shadowOffsetInner1"></feOffset>
            <feComposite in="shadowOffsetInner1" in2="SourceAlpha" operator="arithmetic" k2="-1" k3="1" result="shadowInnerInner1"></feComposite>
            <feColorMatrix values="0 0 0 0 0   0 0 0 0 0   0 0 0 0 0  0 0 0 0.152890079 0" type="matrix" in="shadowInnerInner1"></feColorMatrix>
        </filter>
        <linearGradient x1="50%" y1="-35.6124036%" x2="50%" y2="143.971936%" id="linearGradient-8">
            <stop stop-color="#FFC773" offset="0%"></stop>
            <stop stop-color="#FF2911" offset="100%"></stop>
        </linearGradient>
        <path d="M1,24.0087891 C1,28.1069336 3.95123208,33.6748047 18.1377555,33.6748047 C27.5954378,33.6748047 35.0495394,35.7809245 40.5000602,39.9931641 C33.7536409,25.3310547 25.8156527,18 16.6860954,18 C2.99175943,18 1,19.9106445 1,24.0087891 Z" id="path-9"></path>
        <filter x="-7.6%" y="-13.6%" width="115.2%" height="127.3%" filterUnits="objectBoundingBox" id="filter-10">
            <feGaussianBlur stdDeviation="3" in="SourceAlpha" result="shadowBlurInner1"></feGaussianBlur>
            <feOffset dx="0" dy="0" in="shadowBlurInner1" result="shadowOffsetInner1"></feOffset>
            <feComposite in="shadowOffsetInner1" in2="SourceAlpha" operator="arithmetic" k2="-1" k3="1" result="shadowInnerInner1"></feComposite>
            <feColorMatrix values="0 0 0 0 1   0 0 0 0 0.415412896   0 0 0 0 0.0941176471  0 0 0 1 0" type="matrix" in="shadowInnerInner1"></feColorMatrix>
        </filter>
        <path d="M41,24.0087891 C41,28.1069336 43.9512321,33.6748047 58.1377555,33.6748047 C67.5954378,33.6748047 75.0495394,35.7809245 80.5000602,39.9931641 C73.7536409,25.3310547 65.8156527,18 56.6860954,18 C42.9917594,18 41,19.9106445 41,24.0087891 Z" id="path-11"></path>
        <filter x="-6.3%" y="-11.4%" width="112.7%" height="122.7%" filterUnits="objectBoundingBox" id="filter-12">
            <feGaussianBlur stdDeviation="2.5" in="SourceAlpha" result="shadowBlurInner1"></feGaussianBlur>
            <feOffset dx="0" dy="0" in="shadowBlurInner1" result="shadowOffsetInner1"></feOffset>
            <feComposite in="shadowOffsetInner1" in2="SourceAlpha" operator="arithmetic" k2="-1" k3="1" result="shadowInnerInner1"></feComposite>
            <feColorMatrix values="0 0 0 0 1   0 0 0 0 0.415686275   0 0 0 0 0.0941176471  0 0 0 1 0" type="matrix" in="shadowInnerInner1"></feColorMatrix>
        </filter>
        <radialGradient cx="39.6112351%" cy="42.0742188%" fx="39.6112351%" fy="42.0742188%" r="39.0196775%" gradientTransform="translate(0.396112,0.420742),scale(1.000000,0.840000),rotate(68.538418),translate(-0.396112,-0.420742)" id="radialGradient-13">
            <stop stop-color="#FFC7C7" offset="0%"></stop>
            <stop stop-color="#FE496C" offset="100%"></stop>
        </radialGradient>
        <linearGradient x1="80.0502232%" y1="-13.1640625%" x2="80.0502232%" y2="123.691406%" id="linearGradient-14">
            <stop stop-color="#FFC773" offset="0%"></stop>
            <stop stop-color="#FF2911" offset="100%"></stop>
        </linearGradient>
        <linearGradient x1="50%" y1="-30.6738281%" x2="50%" y2="124.238281%" id="linearGradient-15">
            <stop stop-color="#FFC773" offset="0%"></stop>
            <stop stop-color="#FF2911" offset="100%"></stop>
        </linearGradient>
        <linearGradient x1="50%" y1="-30.1215278%" x2="50%" y2="121.223958%" id="linearGradient-16">
            <stop stop-color="#FFC773" offset="0%"></stop>
            <stop stop-color="#FF5643" offset="63.8012618%"></stop>
            <stop stop-color="#FFC773" offset="100%"></stop>
        </linearGradient>
        <linearGradient x1="-18.2002136%" y1="0%" x2="99.4694998%" y2="100%" id="linearGradient-17">
            <stop stop-color="#FFC773" offset="0%"></stop>
            <stop stop-color="#FF2911" offset="100%"></stop>
        </linearGradient>
        <linearGradient x1="-9.47788045%" y1="0%" x2="97.162963%" y2="83.4327421%" id="linearGradient-18">
            <stop stop-color="#FFC773" offset="0%"></stop>
            <stop stop-color="#FF2911" offset="100%"></stop>
        </linearGradient>
    </defs>
    <g id="页面-1" stroke="none" stroke-width="1" fill="none" fill-rule="evenodd">
        <g id="首页入口-新年祝福" transform="translate(-474.000000, -245.000000)">
            <g id="编组-29" transform="translate(474.000000, 245.000000)">
                <circle id="椭圆形" fill="#FF4D50" cx="50" cy="65" r="50"></circle>
                <g id="编组-3" transform="translate(8.000000, 0.000000)">
                    <rect id="矩形" stroke="#F4273B" stroke-width="2" fill="#F9DCB7" x="22" y="54" width="38" height="60"></rect>
                    <ellipse id="椭圆形" fill="url(#linearGradient-1)" cx="41.5" cy="56.5" rx="7.5" ry="5.5"></ellipse>
                    <g id="路径">
                        <use fill="#FFDB0B" fill-rule="evenodd" xlink:href="#path-2"></use>
                        <use fill="black" fill-opacity="1" filter="url(#filter-3)" xlink:href="#path-2"></use>
                    </g>
                    <g id="椭圆形">
                        <use fill="#EB3939" fill-rule="evenodd" xlink:href="#path-4"></use>
                        <use fill="black" fill-opacity="1" filter="url(#filter-5)" xlink:href="#path-4"></use>
                    </g>
                    <g id="椭圆形备份-15">
                        <use fill="#EB3939" fill-rule="evenodd" xlink:href="#path-6"></use>
                        <use fill="black" fill-opacity="1" filter="url(#filter-7)" xlink:href="#path-6"></use>
                    </g>
                    <circle id="椭圆形" stroke="#FFFFFF" stroke-width="2" fill="#C11C06" cx="24" cy="36" r="9"></circle>
                    <circle id="椭圆形备份-16" stroke="#FFFFFF" stroke-width="2" fill="#C11C06" cx="56" cy="36" r="9"></circle>
                    <path d="M41.2697908,0 C46.4953767,0 45.7695284,10.9306641 51.2774721,10.9306641 C56.7854158,10.9306641 64.0888908,2.77441406 71.2990908,5.46533203 C76.1058908,7.25927734 77.8334574,13.3105469 76.4817908,23.6191406 L41.2697908,29.5087891 L40.6569978,29.5087891 L5.44499781,23.6191406 C4.09333114,13.3105469 5.82089781,7.25927734 10.6276978,5.46533203 C17.8378978,2.77441406 25.1413728,10.9306641 30.6493165,10.9306641 C36.1572602,10.9306641 35.4314119,0 40.6569978,0 C40.7615095,0 40.8628859,0.00885263672 40.9611269,0.0265579102 C41.0639027,0.00885263672 41.1652791,0 41.2697908,0 Z" id="路径" fill="url(#linearGradient-8)"></path>
                    <g id="路径-4">
                        <use fill="#FFDB0B" fill-rule="evenodd" xlink:href="#path-9"></use>
                        <use fill="black" fill-opacity="1" filter="url(#filter-10)" xlink:href="#path-9"></use>
                    </g>
                    <g id="路径-4备份" transform="translate(60.750030, 28.996582) scale(-1, 1) translate(-60.750030, -28.996582) ">
                        <use fill="#FFDB0B" fill-rule="evenodd" xlink:href="#path-11"></use>
                        <use fill="black" fill-opacity="1" filter="url(#filter-12)" xlink:href="#path-11"></use>
                    </g>
                    <ellipse id="椭圆形" fill="url(#radialGradient-13)" cx="40.5" cy="27.5" rx="10.5" ry="12.5"></ellipse>
                    <circle id="椭圆形" fill="#FFFFFF" cx="21" cy="38" r="2"></circle>
                    <circle id="椭圆形备份-17" fill="#FFFFFF" cx="59" cy="39" r="2"></circle>
                    <rect id="矩形" fill="url(#linearGradient-14)" x="66" y="108" width="7" height="5" rx="2.5"></rect>
                    <rect id="矩形备份-2" fill="url(#linearGradient-15)" x="10" y="108" width="7" height="5" rx="2.5"></rect>
                    <rect id="矩形" fill="url(#linearGradient-16)" x="14" y="106" width="55" height="9" rx="2"></rect>
                    <path d="M47.272,65.96 C45.704,66.568 43.944,66.888 41.96,66.92 L41.96,73.864 C41.896,76.216 41.4,78.056 40.504,79.384 L41.704,80.648 C42.872,78.952 43.496,76.696 43.576,73.864 L43.576,72.344 L45.304,72.344 L45.304,80.68 L46.952,80.68 L46.952,72.344 L48.424,72.344 L48.424,70.76 L43.576,70.76 L43.576,68.28 C45.224,68.184 46.728,67.912 48.088,67.464 L47.272,65.96 Z M33.912,67.08 L33.912,68.616 L41.256,68.616 L41.256,67.08 L38.344,67.08 C38.152,66.568 37.976,66.104 37.784,65.688 L36.056,65.976 C36.28,66.312 36.488,66.68 36.68,67.08 L33.912,67.08 Z M33.752,70.712 L33.752,72.232 L36.792,72.232 L36.792,73.528 L34.008,73.528 L34.008,75.048 L36.792,75.048 L36.792,78.84 C36.792,79.144 36.6,79.304 36.248,79.304 C36.056,79.304 35.832,79.256 35.592,79.192 L35.96,80.728 L36.792,80.728 C37.896,80.728 38.456,80.232 38.456,79.24 L38.456,75.048 L41.08,75.048 L41.08,73.528 L38.456,73.528 L38.456,72.232 L41.352,72.232 L41.352,70.712 L39.8,70.712 C40.008,70.248 40.2,69.752 40.392,69.208 L38.904,68.68 C38.728,69.384 38.52,70.056 38.28,70.712 L36.872,70.712 C36.648,69.928 36.424,69.256 36.184,68.68 L34.712,69.24 C34.968,69.688 35.192,70.184 35.384,70.712 L33.752,70.712 Z M34.904,75.672 C34.632,76.968 34.152,78.2 33.464,79.352 L34.856,80.232 C35.528,79.032 36.04,77.624 36.408,75.992 L34.904,75.672 Z M40.088,75.576 C40.472,76.568 40.792,77.48 41.016,78.312 L39.608,78.856 C39.368,77.864 39.064,76.888 38.712,75.944 L40.088,75.576 Z" id="新" fill="url(#linearGradient-17)" fill-rule="nonzero"></path>
                    <path d="M37.176,88.08 L41.08,88.08 L41.08,90.144 L36.344,90.144 L36.344,94.672 L33.88,94.672 L33.88,96.304 L41.08,96.304 L41.08,99.712 L42.76,99.712 L42.76,96.304 L48.104,96.304 L48.104,94.672 L42.76,94.672 L42.76,91.712 L47.064,91.712 L47.064,90.144 L42.76,90.144 L42.76,88.08 L47.624,88.08 L47.624,86.464 L37.976,86.464 C38.152,86.016 38.312,85.536 38.456,85.024 L36.728,84.704 C36.184,86.704 35.112,88.288 33.528,89.472 L34.648,90.896 C35.656,90.128 36.504,89.2 37.176,88.08 Z M38.024,94.672 L38.024,91.712 L41.08,91.712 L41.08,94.672 L38.024,94.672 Z" id="年" fill="url(#linearGradient-18)" fill-rule="nonzero"></path>
                </g>
                <g id="编组-27" transform="translate(10.000000, 75.000000)" fill="#FFDDA1">
                    <polygon id="Fill-1" points="4.0561 0.901 5.5201 4.97379915e-14 5.5201 3.717"></polygon>
                    <polygon id="Fill-2" points="8.6752 3.7174 9.8012 1.2384 11.2662 1.8594"></polygon>
                    <polygon id="Fill-3" points="9.9707 5.8581 13.7447 4.3941 13.7447 5.8581"></polygon>
                    <polygon id="Fill-4" points="9.1259 8.4499 13.7449 8.4499 13.0689 11.7179"></polygon>
                    <polygon id="Fill-5" points="6.9853 8.9001 5.9713 13.0691 7.4363 13.0691"></polygon>
                    <polygon id="Fill-6" points="4.788 8.9001 1.126 10.9851 2.141 11.7171"></polygon>
                    <polygon id="Fill-7" points="-1.34559031e-13 5.1258 5.521 6.4218 0.563 3.2668"></polygon>
                </g>
                <g id="编组-26" transform="translate(76.000000, 66.000000)" fill="#FFDDA1">
                    <polygon id="Fill-8" points="13.7859 30.5785 17.7959 29.4505 16.4179 19.0485"></polygon>
                    <polygon id="Fill-9" points="12.4076 17.7956 3.2586 21.4296 6.2666 24.8136"></polygon>
                    <polygon id="Fill-10" points="14.413 13.9099 3.886 6.8919 -2.20268248e-13 11.0279"></polygon>
                    <polygon id="Fill-11" points="9.9015 4.636 15.2895 10.401 12.4085 3.37507799e-14"></polygon>
                    <polygon id="Fill-12" points="22.183 2.6315 18.298 11.1525 26.82 3.6335"></polygon>
                    <polygon id="Fill-13" points="22.5591 12.9079 31.0811 13.9099 29.7021 9.7739"></polygon>
                    <polygon id="Fill-14" points="20.3031 16.7927 29.8271 19.0487 29.2011 23.3097"></polygon>
                    <polygon id="Fill-15" points="2.5073 16.7925 4.8883 16.7925 4.8883 14.4115 2.5073 14.4115"></polygon>
                    <polygon id="Fill-16" points="16.5433 6.3915 18.2973 6.3915 18.2973 4.6365 16.5433 4.6365"></polygon>
                    <polygon id="Fill-17" points="19.9273 25.9415 22.5593 25.9415 22.5593 23.3095 19.9273 23.3095"></polygon>
                    <polygon id="Fill-18" points="9.9013 25.6915 11.4053 25.6915 11.4053 23.3095 9.9013 23.3095"></polygon>
                </g>
            </g>
        </g>
    </g>
</svg>