<?xml version="1.0" encoding="UTF-8"?>
<svg width="100px" height="100px" viewBox="0 0 100 100" version="1.1" xmlns="http://www.w3.org/2000/svg" xmlns:xlink="http://www.w3.org/1999/xlink">
    <!-- Generator: Sketch 51.1 (57501) - http://www.bohemiancoding.com/sketch -->
    <title>Group 10</title>
    <desc>Created with Sketch.</desc>
    <defs>
        <linearGradient x1="2.50470197%" y1="97.7684227%" x2="97.5387008%" y2="3.79539696%" id="linearGradient-1">
            <stop stop-color="#5F66F3" offset="0%"></stop>
            <stop stop-color="#D291FB" offset="100%"></stop>
        </linearGradient>
    </defs>
    <g id="Page-2" stroke="none" stroke-width="1" fill="none" fill-rule="evenodd">
        <g id="首页新版本按钮" transform="translate(-30.000000, -260.000000)">
            <g id="按钮入口" transform="translate(27.000000, 260.000000)">
                <g id="Group-10" transform="translate(3.000000, 0.000000)">
                    <circle id="Oval-2" fill="url(#linearGradient-1)" cx="50" cy="50" r="50"></circle>
                    <path d="M36.4733394,27.6502379 C32.9790534,28.6578191 30.5095212,31.9679268 30.7080203,35.7555164 L32.343519,66.9626894 C32.3724894,67.5154787 32.4569163,68.0522126 32.5911259,68.5677824 L27.878462,67.7368126 C23.5273076,66.9695867 20.6219595,62.8203196 21.3891854,58.4691652 L25.7251899,33.878462 C26.4924158,29.5273076 30.6416829,26.6219595 34.9928373,27.3891854 L36.4733394,27.6502379 Z" id="Combined-Shape" fill="#FFFFFF"></path>
                    <rect id="Combined-Shape-Copy" fill="#FFFFFF" transform="translate(55.017527, 50.249081) rotate(-3.000000) translate(-55.017527, -50.249081) " x="36.5175266" y="27.7490815" width="37" height="45" rx="8"></rect>
                    <path d="M59.7235225,41.1082515 C57.9601647,41.1082515 56.2869086,41.856067 55.0867111,43.1373686 C53.8785544,41.8642225 52.2132574,41.1082515 50.4503079,41.1082515 C46.8745111,41.1082515 43.9683025,44.0759421 43.9683025,47.7201377 C43.9683025,47.8393864 43.9766698,47.9508774 43.9929962,48.0382999 L43.9929962,48.1261203 C43.9929962,48.7706996 44.1480974,49.4785334 44.4665651,50.2345044 C44.4745242,50.2582745 44.4828915,50.2901007 44.4992179,50.3141692 C46.4747173,54.9688456 54.0746758,60.3313558 54.3927353,60.5780086 C54.5968158,60.7291829 54.8336512,60.8006923 55.0703846,60.8006923 C55.3154853,60.8006923 55.5523208,60.7214253 55.7564013,60.5698532 C56.0337467,60.3550265 62.5153439,55.7722574 65.0866564,51.4279856 C65.1847171,51.2846684 65.258084,51.1416496 65.3233898,51.0142454 C65.3398183,50.9746617 65.364512,50.9345806 65.3808385,50.8949968 L65.4130832,50.831245 C65.5685925,50.5367535 65.6909388,50.2582745 65.7889995,49.996007 C66.0580797,49.3114461 66.1887932,48.6910347 66.1887932,48.1261203 C66.1887932,48.078381 66.1887932,48.0464554 66.1808341,48.0068716 C66.1971605,47.9431198 66.2051197,47.8393864 66.2051197,47.7201377 C66.2051197,44.0759421 63.2990131,41.1082515 59.7235225,41.1082515 Z" id="Fill-1" fill="#AC83F8" transform="translate(55.086711, 50.954472) rotate(-3.000000) translate(-55.086711, -50.954472) "></path>
                </g>
            </g>
        </g>
    </g>
</svg>