<?xml version="1.0" encoding="UTF-8"?>
<svg width="46px" height="46px" viewBox="0 0 46 46" version="1.1" xmlns="http://www.w3.org/2000/svg" xmlns:xlink="http://www.w3.org/1999/xlink">
    <!-- Generator: Sketch 52.5 (67469) - http://www.bohemiancoding.com/sketch -->
    <title>Fill 1</title>
    <desc>Created with Sketch.</desc>
    <g id="Page-2" stroke="none" stroke-width="1" fill="none" fill-rule="evenodd">
        <g id="首页老新版本按钮-copy-2" transform="translate(-243.000000, -1682.000000)" fill="#7A581E">
            <path d="M254.928356,1707 L278.071644,1707 C279.138391,1707 280,1706.10608 280,1704.9998 C280,1703.89353 279.138391,1703 278.071644,1703 L254.928356,1703 C253.861609,1703 253,1703.89353 253,1704.9998 C253,1706.10608 253.861609,1707 254.928356,1707 M258.10594,1724.21651 L249.679551,1724.21651 C248.074701,1724.21046 246.776393,1722.90593 246.776393,1721.30058 L246.776393,1712.88905 C246.776393,1711.84418 245.93281,1711 244.888381,1711 C243.843878,1711 243,1711.84418 243,1712.88905 L243,1721.30634 C243,1725.00166 245.985769,1727.99424 249.679551,1728 L258.111693,1728 C259.156122,1728 260,1727.15612 260,1726.11132 C260,1725.06652 259.156122,1724.21651 258.10594,1724.21651 M285.216508,1712.89417 L285.216508,1721.32041 C285.210458,1722.92558 283.905932,1724.22354 282.300584,1724.22354 L273.889053,1724.22354 C272.844178,1724.22354 272,1725.06751 272,1726.11196 C272,1727.1564 272.844178,1728 273.889053,1728 L282.306339,1728 C286.001658,1728 288.994245,1725.01447 289,1721.32041 L289,1712.88812 C289,1711.8436 288.156117,1711 287.111316,1711 C286.066515,1711 285.216508,1711.8436 285.216508,1712.89417 M273.894167,1685.78379 L282.320406,1685.78379 C283.92558,1685.78954 285.223542,1687.09407 285.223542,1688.69978 L285.223542,1697.11132 C285.223542,1698.15612 286.067508,1699 287.111955,1699 C288.156402,1699 289,1698.15612 289,1697.11132 L289,1688.69373 C289,1684.99871 286.014474,1682.00576 282.320406,1682 L273.888119,1682 C272.843598,1682 272,1682.84418 272,1683.88905 C272,1684.93385 272.843598,1685.78379 273.894167,1685.78379 M246.783787,1697.10594 L246.783787,1688.67955 C246.789542,1687.0747 248.094068,1685.77639 249.699785,1685.77639 L258.111316,1685.77639 C259.156117,1685.77639 260,1684.93281 260,1683.88838 C260,1682.84388 259.156117,1682 258.111316,1682 L249.693734,1682 C245.998711,1682 243.005755,1684.98577 243,1688.67955 L243,1697.11169 C243,1698.15612 243.844178,1699 244.889053,1699 C245.933854,1699 246.783787,1698.15612 246.783787,1697.10594" id="Fill-1" transform="translate(266.000000, 1705.000000) scale(-1, 1) translate(-266.000000, -1705.000000) "></path>
        </g>
    </g>
</svg>