<?xml version="1.0" encoding="UTF-8"?>
<svg width="100px" height="100px" viewBox="0 0 100 100" version="1.1" xmlns="http://www.w3.org/2000/svg" xmlns:xlink="http://www.w3.org/1999/xlink">
    <!-- Generator: Sketch 59.1 (86144) - https://sketch.com -->
    <title>Group 12 Copy 3</title>
    <desc>Created with Sketch.</desc>
    <defs>
        <linearGradient x1="15.7350852%" y1="89.7549716%" x2="90.5859375%" y2="13.4055398%" id="linearGradient-1">
            <stop stop-color="#46BCEC" offset="0%"></stop>
            <stop stop-color="#4ED8A9" offset="100%"></stop>
        </linearGradient>
    </defs>
    <g id="页面-1" stroke="none" stroke-width="1" fill="none" fill-rule="evenodd">
        <g id="首页-K歌榜活动入口备份-9" transform="translate(-178.000000, -260.000000)">
            <g id="按钮入口" transform="translate(26.000000, 260.000000)">
                <g id="Group-12-Copy-3" transform="translate(152.000000, 0.000000)">
                    <circle id="Oval-2-Copy-5" fill="url(#linearGradient-1)" cx="50" cy="50" r="50"></circle>
                    <path d="M34.3334142,29 C29.7388013,29 26,33.0379286 26,38.0001391 L26,62.0001605 C26,66.9620714 29.7388013,71 34.3334142,71 L66.6665858,71 C71.2611987,71 75,66.9620714 75,62.0001605 L75,38.0001391 C75,33.0379286 71.2611987,29 66.6665858,29 L34.3334142,29 Z M59.6334369,52.6832816 L47.3416408,58.8291796 C45.8597053,59.5701474 44.0576862,58.9694743 43.3167184,57.4875388 C43.1084353,57.0709725 43,56.6116333 43,56.145898 L43,43.854102 C43,42.1972477 44.3431458,40.854102 46,40.854102 C46.4657353,40.854102 46.9250745,40.9625372 47.3416408,41.1708204 L59.6334369,47.3167184 C61.1153723,48.0576862 61.7160454,49.8597053 60.9750776,51.3416408 C60.6847865,51.922223 60.2140191,52.3929905 59.6334369,52.6832816 Z" id="Fill-1" fill="#FFFFFF"></path>
                </g>
            </g>
        </g>
    </g>
</svg>