<?xml version="1.0" encoding="UTF-8"?>
<svg width="100px" height="100px" viewBox="0 0 100 100" version="1.1" xmlns="http://www.w3.org/2000/svg" xmlns:xlink="http://www.w3.org/1999/xlink">
    <!-- Generator: Sketch 51.1 (57501) - http://www.bohemiancoding.com/sketch -->
    <title>Group 11</title>
    <desc>Created with Sketch.</desc>
    <defs>
        <linearGradient x1="13.6835938%" y1="88.921875%" x2="87.96875%" y2="11.734375%" id="linearGradient-1">
            <stop stop-color="#EE6730" offset="0%"></stop>
            <stop stop-color="#F7C123" offset="100%"></stop>
        </linearGradient>
        <path d="M54.8686644,25.2652357 L69.8686644,33.6260756 C73.0364648,35.3917737 75,38.7341817 75,42.3608399 L75,58.481081 C75,62.1077391 73.0364648,65.4501471 69.8686644,67.2158452 L54.8686644,75.5766851 C51.8420887,77.2636661 48.1579113,77.2636661 45.1313356,75.5766851 L30.1313356,67.2158452 C26.9635352,65.4501471 25,62.1077391 25,58.481081 L25,42.3608399 C25,38.7341817 26.9635352,35.3917737 30.1313356,33.6260756 L45.1313356,25.2652357 C48.1579113,23.5782548 51.8420887,23.5782548 54.8686644,25.2652357 Z" id="path-2"></path>
    </defs>
    <g id="Page-2" stroke="none" stroke-width="1" fill="none" fill-rule="evenodd">
        <g id="首页新版本按钮" transform="translate(-326.000000, -260.000000)">
            <g id="按钮入口" transform="translate(27.000000, 260.000000)">
                <g id="Group-11" transform="translate(299.000000, 0.000000)">
                    <circle id="Oval-2-Copy-2" fill="url(#linearGradient-1)" cx="50" cy="50" r="50"></circle>
                    <mask id="mask-3" fill="white">
                        <use xlink:href="#path-2"></use>
                    </mask>
                    <use id="Combined-Shape" fill="#FFFFFF" xlink:href="#path-2"></use>
                    <g id="Group-27" mask="url(#mask-3)" fill="#F1872C">
                        <g transform="translate(36.000000, 39.000000)">
                            <rect id="Rectangle-26" transform="translate(9.838980, 12.959931) rotate(-30.000000) translate(-9.838980, -12.959931) " x="6.33897954" y="0.95993147" width="7" height="24" rx="3.5"></rect>
                            <path d="M18.3961572,0.858915858 L18.3961572,0.858915858 C20.3291538,0.858915858 21.8961572,2.42591923 21.8961572,4.35891586 L21.8961572,21.3589159 C21.8961572,23.2919125 20.3291538,24.8589159 18.3961572,24.8589159 L18.3961572,24.8589159 C16.4631606,24.8589159 14.8961572,23.2919125 14.8961572,21.3589159 L14.8961572,4.35891586 C14.8961572,2.42591923 16.4631606,0.858915858 18.3961572,0.858915858 Z" id="Rectangle-26-Copy" transform="translate(18.396157, 12.858916) rotate(30.000000) translate(-18.396157, -12.858916) "></path>
                        </g>
                    </g>
                </g>
            </g>
        </g>
    </g>
</svg>